<?xml version="1.0" encoding="us-ascii" standalone="no"?><svg xmlns="http://www.w3.org/2000/svg" xmlns:xlink="http://www.w3.org/1999/xlink" contentStyleType="text/css" height="218px" preserveAspectRatio="none" style="width:748px;height:218px;background:#FFFFFF;" version="1.1" viewBox="0 0 748 218" width="748px" zoomAndPan="magnify"><defs/><g><!--class CameraInput--><g id="elem_CameraInput"><rect codeLine="1" fill="#F1F1F1" height="96.8906" id="CameraInput" rx="2.5" ry="2.5" style="stroke:#181818;stroke-width:0.5;" width="353" x="182" y="115"/><ellipse cx="312.75" cy="131" fill="#ADD1B2" rx="11" ry="11" style="stroke:#181818;stroke-width:1.0;"/><path d="M312.6875,126.8281 Q311.9375,126.8281 311.375,127.125 Q310.8125,127.4063 310.4219,127.9375 Q310.0313,128.4688 309.8281,129.25 Q309.6406,130.0156 309.6406,130.9688 Q309.6406,131.9375 309.8125,132.7031 Q310,133.4531 310.3594,133.9688 Q310.7344,134.4844 311.3125,134.7656 Q311.8906,135.0313 312.6875,135.0313 Q313.4219,135.0313 314.1563,134.8594 Q314.9063,134.6875 315.7813,134.3906 L315.7813,136.5469 Q315.375,136.7031 314.9844,136.8281 Q314.5938,136.9375 314.1875,137.0156 Q313.7813,137.0938 313.3594,137.125 Q312.9375,137.1719 312.4375,137.1719 Q311.0313,137.1719 310,136.7188 Q308.9844,136.2656 308.3125,135.4531 Q307.6406,134.6406 307.3125,133.5 Q306.9844,132.3438 306.9844,130.9531 Q306.9844,129.5781 307.3594,128.4219 Q307.7344,127.2656 308.4531,126.4375 Q309.1719,125.6094 310.2344,125.1563 Q311.2969,124.6875 312.6875,124.6875 Q313.5938,124.6875 314.5,124.9219 Q315.4063,125.1406 316.2344,125.5469 L315.4063,127.6406 Q314.7188,127.3125 314.0313,127.0781 Q313.3438,126.8281 312.6875,126.8281 Z " fill="#000000"/><text fill="#000000" font-family="sans-serif" font-size="14" lengthAdjust="spacing" textLength="83" x="333.25" y="135.8467">CameraInput</text><line style="stroke:#181818;stroke-width:0.5;" x1="183" x2="534" y1="147" y2="147"/><line style="stroke:#181818;stroke-width:0.5;" x1="183" x2="534" y1="155" y2="155"/><ellipse cx="193" cy="168.6484" fill="#84BE84" rx="3" ry="3" style="stroke:#038048;stroke-width:1.0;"/><text fill="#000000" font-family="sans-serif" font-size="14" lengthAdjust="spacing" textLength="326" x="202" y="171.9951">OnPointerEnter(eventData:PointerEventData) : void</text><ellipse cx="193" cy="184.9453" fill="#84BE84" rx="3" ry="3" style="stroke:#038048;stroke-width:1.0;"/><text fill="#000000" font-family="sans-serif" font-size="14" lengthAdjust="spacing" textLength="315" x="202" y="188.292">OnPointerExit(eventData:PointerEventData) : void</text><ellipse cx="193" cy="201.2422" fill="#84BE84" rx="3" ry="3" style="stroke:#038048;stroke-width:1.0;"/><text fill="#000000" font-family="sans-serif" font-size="14" lengthAdjust="spacing" textLength="327" x="202" y="204.5889">OnPointerMove(eventData:PointerEventData) : void</text></g><!--class MonoBehaviour--><g id="elem_MonoBehaviour"><rect fill="#F1F1F1" height="48" id="MonoBehaviour" rx="2.5" ry="2.5" style="stroke:#181818;stroke-width:0.5;" width="133" x="7" y="7"/><ellipse cx="22" cy="23" fill="#ADD1B2" rx="11" ry="11" style="stroke:#181818;stroke-width:1.0;"/><path d="M21.9375,18.8281 Q21.1875,18.8281 20.625,19.125 Q20.0625,19.4063 19.6719,19.9375 Q19.2813,20.4688 19.0781,21.25 Q18.8906,22.0156 18.8906,22.9688 Q18.8906,23.9375 19.0625,24.7031 Q19.25,25.4531 19.6094,25.9688 Q19.9844,26.4844 20.5625,26.7656 Q21.1406,27.0313 21.9375,27.0313 Q22.6719,27.0313 23.4063,26.8594 Q24.1563,26.6875 25.0313,26.3906 L25.0313,28.5469 Q24.625,28.7031 24.2344,28.8281 Q23.8438,28.9375 23.4375,29.0156 Q23.0313,29.0938 22.6094,29.125 Q22.1875,29.1719 21.6875,29.1719 Q20.2813,29.1719 19.25,28.7188 Q18.2344,28.2656 17.5625,27.4531 Q16.8906,26.6406 16.5625,25.5 Q16.2344,24.3438 16.2344,22.9531 Q16.2344,21.5781 16.6094,20.4219 Q16.9844,19.2656 17.7031,18.4375 Q18.4219,17.6094 19.4844,17.1563 Q20.5469,16.6875 21.9375,16.6875 Q22.8438,16.6875 23.75,16.9219 Q24.6563,17.1406 25.4844,17.5469 L24.6563,19.6406 Q23.9688,19.3125 23.2813,19.0781 Q22.5938,18.8281 21.9375,18.8281 Z " fill="#000000"/><text fill="#000000" font-family="sans-serif" font-size="14" lengthAdjust="spacing" textLength="101" x="36" y="27.8467">MonoBehaviour</text><line style="stroke:#181818;stroke-width:0.5;" x1="8" x2="139" y1="39" y2="39"/><line style="stroke:#181818;stroke-width:0.5;" x1="8" x2="139" y1="47" y2="47"/></g><!--class IPointerEnterHandler--><g id="elem_IPointerEnterHandler"><rect fill="#F1F1F1" height="48" id="IPointerEnterHandler" rx="2.5" ry="2.5" style="stroke:#181818;stroke-width:0.5;" width="169" x="175" y="7"/><ellipse cx="190" cy="23" fill="#ADD1B2" rx="11" ry="11" style="stroke:#181818;stroke-width:1.0;"/><path d="M189.9375,18.8281 Q189.1875,18.8281 188.625,19.125 Q188.0625,19.4063 187.6719,19.9375 Q187.2813,20.4688 187.0781,21.25 Q186.8906,22.0156 186.8906,22.9688 Q186.8906,23.9375 187.0625,24.7031 Q187.25,25.4531 187.6094,25.9688 Q187.9844,26.4844 188.5625,26.7656 Q189.1406,27.0313 189.9375,27.0313 Q190.6719,27.0313 191.4063,26.8594 Q192.1563,26.6875 193.0313,26.3906 L193.0313,28.5469 Q192.625,28.7031 192.2344,28.8281 Q191.8438,28.9375 191.4375,29.0156 Q191.0313,29.0938 190.6094,29.125 Q190.1875,29.1719 189.6875,29.1719 Q188.2813,29.1719 187.25,28.7188 Q186.2344,28.2656 185.5625,27.4531 Q184.8906,26.6406 184.5625,25.5 Q184.2344,24.3438 184.2344,22.9531 Q184.2344,21.5781 184.6094,20.4219 Q184.9844,19.2656 185.7031,18.4375 Q186.4219,17.6094 187.4844,17.1563 Q188.5469,16.6875 189.9375,16.6875 Q190.8438,16.6875 191.75,16.9219 Q192.6563,17.1406 193.4844,17.5469 L192.6563,19.6406 Q191.9688,19.3125 191.2813,19.0781 Q190.5938,18.8281 189.9375,18.8281 Z " fill="#000000"/><text fill="#000000" font-family="sans-serif" font-size="14" lengthAdjust="spacing" textLength="137" x="204" y="27.8467">IPointerEnterHandler</text><line style="stroke:#181818;stroke-width:0.5;" x1="176" x2="343" y1="39" y2="39"/><line style="stroke:#181818;stroke-width:0.5;" x1="176" x2="343" y1="47" y2="47"/></g><!--class IPointerExitHandler--><g id="elem_IPointerExitHandler"><rect fill="#F1F1F1" height="48" id="IPointerExitHandler" rx="2.5" ry="2.5" style="stroke:#181818;stroke-width:0.5;" width="158" x="378.5" y="7"/><ellipse cx="393.5" cy="23" fill="#ADD1B2" rx="11" ry="11" style="stroke:#181818;stroke-width:1.0;"/><path d="M393.4375,18.8281 Q392.6875,18.8281 392.125,19.125 Q391.5625,19.4063 391.1719,19.9375 Q390.7813,20.4688 390.5781,21.25 Q390.3906,22.0156 390.3906,22.9688 Q390.3906,23.9375 390.5625,24.7031 Q390.75,25.4531 391.1094,25.9688 Q391.4844,26.4844 392.0625,26.7656 Q392.6406,27.0313 393.4375,27.0313 Q394.1719,27.0313 394.9063,26.8594 Q395.6563,26.6875 396.5313,26.3906 L396.5313,28.5469 Q396.125,28.7031 395.7344,28.8281 Q395.3438,28.9375 394.9375,29.0156 Q394.5313,29.0938 394.1094,29.125 Q393.6875,29.1719 393.1875,29.1719 Q391.7813,29.1719 390.75,28.7188 Q389.7344,28.2656 389.0625,27.4531 Q388.3906,26.6406 388.0625,25.5 Q387.7344,24.3438 387.7344,22.9531 Q387.7344,21.5781 388.1094,20.4219 Q388.4844,19.2656 389.2031,18.4375 Q389.9219,17.6094 390.9844,17.1563 Q392.0469,16.6875 393.4375,16.6875 Q394.3438,16.6875 395.25,16.9219 Q396.1563,17.1406 396.9844,17.5469 L396.1563,19.6406 Q395.4688,19.3125 394.7813,19.0781 Q394.0938,18.8281 393.4375,18.8281 Z " fill="#000000"/><text fill="#000000" font-family="sans-serif" font-size="14" lengthAdjust="spacing" textLength="126" x="407.5" y="27.8467">IPointerExitHandler</text><line style="stroke:#181818;stroke-width:0.5;" x1="379.5" x2="535.5" y1="39" y2="39"/><line style="stroke:#181818;stroke-width:0.5;" x1="379.5" x2="535.5" y1="47" y2="47"/></g><!--class IPointerMoveHandler--><g id="elem_IPointerMoveHandler"><rect fill="#F1F1F1" height="48" id="IPointerMoveHandler" rx="2.5" ry="2.5" style="stroke:#181818;stroke-width:0.5;" width="170" x="571.5" y="7"/><ellipse cx="586.5" cy="23" fill="#ADD1B2" rx="11" ry="11" style="stroke:#181818;stroke-width:1.0;"/><path d="M586.4375,18.8281 Q585.6875,18.8281 585.125,19.125 Q584.5625,19.4063 584.1719,19.9375 Q583.7813,20.4688 583.5781,21.25 Q583.3906,22.0156 583.3906,22.9688 Q583.3906,23.9375 583.5625,24.7031 Q583.75,25.4531 584.1094,25.9688 Q584.4844,26.4844 585.0625,26.7656 Q585.6406,27.0313 586.4375,27.0313 Q587.1719,27.0313 587.9063,26.8594 Q588.6563,26.6875 589.5313,26.3906 L589.5313,28.5469 Q589.125,28.7031 588.7344,28.8281 Q588.3438,28.9375 587.9375,29.0156 Q587.5313,29.0938 587.1094,29.125 Q586.6875,29.1719 586.1875,29.1719 Q584.7813,29.1719 583.75,28.7188 Q582.7344,28.2656 582.0625,27.4531 Q581.3906,26.6406 581.0625,25.5 Q580.7344,24.3438 580.7344,22.9531 Q580.7344,21.5781 581.1094,20.4219 Q581.4844,19.2656 582.2031,18.4375 Q582.9219,17.6094 583.9844,17.1563 Q585.0469,16.6875 586.4375,16.6875 Q587.3438,16.6875 588.25,16.9219 Q589.1563,17.1406 589.9844,17.5469 L589.1563,19.6406 Q588.4688,19.3125 587.7813,19.0781 Q587.0938,18.8281 586.4375,18.8281 Z " fill="#000000"/><text fill="#000000" font-family="sans-serif" font-size="14" lengthAdjust="spacing" textLength="138" x="600.5" y="27.8467">IPointerMoveHandler</text><line style="stroke:#181818;stroke-width:0.5;" x1="572.5" x2="740.5" y1="39" y2="39"/><line style="stroke:#181818;stroke-width:0.5;" x1="572.5" x2="740.5" y1="47" y2="47"/></g><!--reverse link MonoBehaviour to CameraInput--><g id="link_MonoBehaviour_CameraInput"><path codeLine="6" d="M142.18,63.45 C175.9,78.89 217.24,97.82 254.72,114.98 " fill="none" id="MonoBehaviour-backto-CameraInput" style="stroke:#181818;stroke-width:1.0;"/><polygon fill="none" points="139.07,69.72,123.8,55.03,144.89,56.99,139.07,69.72" style="stroke:#181818;stroke-width:1.0;"/></g><!--reverse link IPointerEnterHandler to CameraInput--><g id="link_IPointerEnterHandler_CameraInput"><path codeLine="7" d="M289.24,71.2 C299.66,84.93 311.47,100.5 322.35,114.84 " fill="none" id="IPointerEnterHandler-backto-CameraInput" style="stroke:#181818;stroke-width:1.0;"/><polygon fill="none" points="283.48,75.19,276.97,55.03,294.64,66.73,283.48,75.19" style="stroke:#181818;stroke-width:1.0;"/></g><!--reverse link IPointerExitHandler to CameraInput--><g id="link_IPointerExitHandler_CameraInput"><path codeLine="8" d="M427.76,71.2 C417.34,84.93 405.53,100.5 394.65,114.84 " fill="none" id="IPointerExitHandler-backto-CameraInput" style="stroke:#181818;stroke-width:1.0;"/><polygon fill="none" points="422.36,66.73,440.03,55.03,433.52,75.19,422.36,66.73" style="stroke:#181818;stroke-width:1.0;"/></g><!--reverse link IPointerMoveHandler to CameraInput--><g id="link_IPointerMoveHandler_CameraInput"><path codeLine="9" d="M585.18,63.23 C549.83,78.71 506.39,97.74 467.02,114.98 " fill="none" id="IPointerMoveHandler-backto-CameraInput" style="stroke:#181818;stroke-width:1.0;"/><polygon fill="none" points="582.78,56.64,603.91,55.03,588.4,69.47,582.78,56.64" style="stroke:#181818;stroke-width:1.0;"/></g><!--SRC=[Iyv9B2vMS4xCJIrAzCmhA2rHgEPI009j1V-yWFpCl9BK8bSGeP5QbffNuf9OacW54uO9Q2fOAPJbPwPWwAl8B253csz-MIenscgvVFFpyfrICnBBClDBYnHiQdHraJt2vOdiVe_4l9ISL7ogWAubg0ZaDboA0000]--></g></svg>