<?xml version="1.0" encoding="us-ascii" standalone="no"?><svg xmlns="http://www.w3.org/2000/svg" xmlns:xlink="http://www.w3.org/1999/xlink" contentStyleType="text/css" height="202px" preserveAspectRatio="none" style="width:354px;height:202px;background:#FFFFFF;" version="1.1" viewBox="0 0 354 202" width="354px" zoomAndPan="magnify"><defs/><g><!--class FocusScript--><g id="elem_FocusScript"><rect codeLine="1" fill="#F1F1F1" height="80.5938" id="FocusScript" rx="2.5" ry="2.5" style="stroke:#181818;stroke-width:0.5;" width="340" x="7" y="115"/><ellipse cx="137.25" cy="131" fill="#A9DCDF" rx="11" ry="11" style="stroke:#181818;stroke-width:1.0;"/><path d="M140.2031,136 L139.375,133.1094 L135.1875,133.1094 L134.3438,136 L131.75,136 L135.6875,123.8125 L138.8438,123.8125 L142.7969,136 L140.2031,136 Z M138.7656,130.9531 L138,128.2969 Q137.9375,128.1406 137.8438,127.8125 Q137.75,127.4688 137.625,127.0625 Q137.5156,126.6406 137.4063,126.2344 Q137.3125,125.8125 137.2813,125.5313 Q137.25,125.7031 137.1875,125.9531 Q137.1406,126.2031 137.0625,126.4844 Q137,126.7656 136.9219,127.0469 Q136.8438,127.3281 136.7813,127.5781 Q136.7188,127.8281 136.6563,128.0156 Q136.6094,128.2031 136.5781,128.2969 L135.8125,130.9531 L138.7656,130.9531 Z " fill="#000000"/><text fill="#000000" font-family="sans-serif" font-size="14" font-style="italic" lengthAdjust="spacing" textLength="71" x="157.75" y="135.8467">FocusScript</text><line style="stroke:#181818;stroke-width:0.5;" x1="8" x2="346" y1="147" y2="147"/><line style="stroke:#181818;stroke-width:0.5;" x1="8" x2="346" y1="155" y2="155"/><ellipse cx="18" cy="168.6484" fill="#84BE84" rx="3" ry="3" style="stroke:#038048;stroke-width:1.0;"/><text fill="#000000" font-family="sans-serif" font-size="14" lengthAdjust="spacing" textLength="145" x="27" y="171.9951">GetFocusRange() : float</text><ellipse cx="18" cy="184.9453" fill="#84BE84" rx="3" ry="3" style="stroke:#038048;stroke-width:1.0;"/><text fill="#000000" font-family="sans-serif" font-size="14" font-style="italic" lengthAdjust="spacing" textLength="314" x="27" y="188.292">GetFocusPlacePos(rayTouchPos:Vector3) : Vector3</text></g><!--class MonoBehaviour--><g id="elem_MonoBehaviour"><rect fill="#F1F1F1" height="48" id="MonoBehaviour" rx="2.5" ry="2.5" style="stroke:#181818;stroke-width:0.5;" width="133" x="110.5" y="7"/><ellipse cx="125.5" cy="23" fill="#ADD1B2" rx="11" ry="11" style="stroke:#181818;stroke-width:1.0;"/><path d="M125.4375,18.8281 Q124.6875,18.8281 124.125,19.125 Q123.5625,19.4063 123.1719,19.9375 Q122.7813,20.4688 122.5781,21.25 Q122.3906,22.0156 122.3906,22.9688 Q122.3906,23.9375 122.5625,24.7031 Q122.75,25.4531 123.1094,25.9688 Q123.4844,26.4844 124.0625,26.7656 Q124.6406,27.0313 125.4375,27.0313 Q126.1719,27.0313 126.9063,26.8594 Q127.6563,26.6875 128.5313,26.3906 L128.5313,28.5469 Q128.125,28.7031 127.7344,28.8281 Q127.3438,28.9375 126.9375,29.0156 Q126.5313,29.0938 126.1094,29.125 Q125.6875,29.1719 125.1875,29.1719 Q123.7813,29.1719 122.75,28.7188 Q121.7344,28.2656 121.0625,27.4531 Q120.3906,26.6406 120.0625,25.5 Q119.7344,24.3438 119.7344,22.9531 Q119.7344,21.5781 120.1094,20.4219 Q120.4844,19.2656 121.2031,18.4375 Q121.9219,17.6094 122.9844,17.1563 Q124.0469,16.6875 125.4375,16.6875 Q126.3438,16.6875 127.25,16.9219 Q128.1563,17.1406 128.9844,17.5469 L128.1563,19.6406 Q127.4688,19.3125 126.7813,19.0781 Q126.0938,18.8281 125.4375,18.8281 Z " fill="#000000"/><text fill="#000000" font-family="sans-serif" font-size="14" lengthAdjust="spacing" textLength="101" x="139.5" y="27.8467">MonoBehaviour</text><line style="stroke:#181818;stroke-width:0.5;" x1="111.5" x2="242.5" y1="39" y2="39"/><line style="stroke:#181818;stroke-width:0.5;" x1="111.5" x2="242.5" y1="47" y2="47"/></g><!--reverse link MonoBehaviour to FocusScript--><g id="link_MonoBehaviour_FocusScript"><path codeLine="5" d="M177,75.14 C177,88 177,102.04 177,114.69 " fill="none" id="MonoBehaviour-backto-FocusScript" style="stroke:#181818;stroke-width:1.0;"/><polygon fill="none" points="170,75.04,177,55.04,184,75.04,170,75.04" style="stroke:#181818;stroke-width:1.0;"/></g><!--SRC=[IqmgBYbAJ2vHICv9B2vMSCjFBYqEJYxAB2XHgEPI009j1VVK4h1mK69UUgg6feALGbfEVc89LBOw4Mf2BLnXG4vYScf0Vh56KM9bI7vfSWQGRHMMcboINsGCqWvbSjLo-URdvJkbPYIMPUQN5YdOrEZg8hi00000]--></g></svg>