<?xml version="1.0" encoding="us-ascii" standalone="no"?><svg xmlns="http://www.w3.org/2000/svg" xmlns:xlink="http://www.w3.org/1999/xlink" contentStyleType="text/css" height="170px" preserveAspectRatio="none" style="width:164px;height:170px;background:#FFFFFF;" version="1.1" viewBox="0 0 164 170" width="164px" zoomAndPan="magnify"><defs/><g><!--class GameObjectPlacer--><g id="elem_GameObjectPlacer"><rect codeLine="1" fill="#F1F1F1" height="48" id="GameObjectPlacer" rx="2.5" ry="2.5" style="stroke:#181818;stroke-width:0.5;" width="150" x="7" y="115"/><ellipse cx="22" cy="131" fill="#ADD1B2" rx="11" ry="11" style="stroke:#181818;stroke-width:1.0;"/><path d="M21.9375,126.8281 Q21.1875,126.8281 20.625,127.125 Q20.0625,127.4063 19.6719,127.9375 Q19.2813,128.4688 19.0781,129.25 Q18.8906,130.0156 18.8906,130.9688 Q18.8906,131.9375 19.0625,132.7031 Q19.25,133.4531 19.6094,133.9688 Q19.9844,134.4844 20.5625,134.7656 Q21.1406,135.0313 21.9375,135.0313 Q22.6719,135.0313 23.4063,134.8594 Q24.1563,134.6875 25.0313,134.3906 L25.0313,136.5469 Q24.625,136.7031 24.2344,136.8281 Q23.8438,136.9375 23.4375,137.0156 Q23.0313,137.0938 22.6094,137.125 Q22.1875,137.1719 21.6875,137.1719 Q20.2813,137.1719 19.25,136.7188 Q18.2344,136.2656 17.5625,135.4531 Q16.8906,134.6406 16.5625,133.5 Q16.2344,132.3438 16.2344,130.9531 Q16.2344,129.5781 16.6094,128.4219 Q16.9844,127.2656 17.7031,126.4375 Q18.4219,125.6094 19.4844,125.1563 Q20.5469,124.6875 21.9375,124.6875 Q22.8438,124.6875 23.75,124.9219 Q24.6563,125.1406 25.4844,125.5469 L24.6563,127.6406 Q23.9688,127.3125 23.2813,127.0781 Q22.5938,126.8281 21.9375,126.8281 Z " fill="#000000"/><text fill="#000000" font-family="sans-serif" font-size="14" lengthAdjust="spacing" textLength="118" x="36" y="135.8467">GameObjectPlacer</text><line style="stroke:#181818;stroke-width:0.5;" x1="8" x2="156" y1="147" y2="147"/><line style="stroke:#181818;stroke-width:0.5;" x1="8" x2="156" y1="155" y2="155"/></g><!--class MonoBehaviour--><g id="elem_MonoBehaviour"><rect fill="#F1F1F1" height="48" id="MonoBehaviour" rx="2.5" ry="2.5" style="stroke:#181818;stroke-width:0.5;" width="133" x="15.5" y="7"/><ellipse cx="30.5" cy="23" fill="#ADD1B2" rx="11" ry="11" style="stroke:#181818;stroke-width:1.0;"/><path d="M30.4375,18.8281 Q29.6875,18.8281 29.125,19.125 Q28.5625,19.4063 28.1719,19.9375 Q27.7813,20.4688 27.5781,21.25 Q27.3906,22.0156 27.3906,22.9688 Q27.3906,23.9375 27.5625,24.7031 Q27.75,25.4531 28.1094,25.9688 Q28.4844,26.4844 29.0625,26.7656 Q29.6406,27.0313 30.4375,27.0313 Q31.1719,27.0313 31.9063,26.8594 Q32.6563,26.6875 33.5313,26.3906 L33.5313,28.5469 Q33.125,28.7031 32.7344,28.8281 Q32.3438,28.9375 31.9375,29.0156 Q31.5313,29.0938 31.1094,29.125 Q30.6875,29.1719 30.1875,29.1719 Q28.7813,29.1719 27.75,28.7188 Q26.7344,28.2656 26.0625,27.4531 Q25.3906,26.6406 25.0625,25.5 Q24.7344,24.3438 24.7344,22.9531 Q24.7344,21.5781 25.1094,20.4219 Q25.4844,19.2656 26.2031,18.4375 Q26.9219,17.6094 27.9844,17.1563 Q29.0469,16.6875 30.4375,16.6875 Q31.3438,16.6875 32.25,16.9219 Q33.1563,17.1406 33.9844,17.5469 L33.1563,19.6406 Q32.4688,19.3125 31.7813,19.0781 Q31.0938,18.8281 30.4375,18.8281 Z " fill="#000000"/><text fill="#000000" font-family="sans-serif" font-size="14" lengthAdjust="spacing" textLength="101" x="44.5" y="27.8467">MonoBehaviour</text><line style="stroke:#181818;stroke-width:0.5;" x1="16.5" x2="147.5" y1="39" y2="39"/><line style="stroke:#181818;stroke-width:0.5;" x1="16.5" x2="147.5" y1="47" y2="47"/></g><!--reverse link MonoBehaviour to GameObjectPlacer--><g id="link_MonoBehaviour_GameObjectPlacer"><path codeLine="3" d="M82,75.02 C82,88.58 82,103.04 82,114.68 " fill="none" id="MonoBehaviour-backto-GameObjectPlacer" style="stroke:#181818;stroke-width:1.0;"/><polygon fill="none" points="75,75,82,55,89,75,75,75" style="stroke:#181818;stroke-width:1.0;"/></g><!--SRC=[Iyv9B2vMS4_CJVLFoafDBWd8IKnEBLAevghbyitFotTApKWioymlBLAmgT7LnL070000]--></g></svg>