<?xml version="1.0" encoding="us-ascii" standalone="no"?><svg xmlns="http://www.w3.org/2000/svg" xmlns:xlink="http://www.w3.org/1999/xlink" contentStyleType="text/css" height="186px" preserveAspectRatio="none" style="width:427px;height:186px;background:#FFFFFF;" version="1.1" viewBox="0 0 427 186" width="427px" zoomAndPan="magnify"><defs/><g><!--class PlantBuildFocus--><g id="elem_PlantBuildFocus"><rect codeLine="1" fill="#F1F1F1" height="64.2969" id="PlantBuildFocus" rx="2.5" ry="2.5" style="stroke:#181818;stroke-width:0.5;" width="413" x="7" y="115"/><ellipse cx="159.25" cy="131" fill="#ADD1B2" rx="11" ry="11" style="stroke:#181818;stroke-width:1.0;"/><path d="M159.1875,126.8281 Q158.4375,126.8281 157.875,127.125 Q157.3125,127.4063 156.9219,127.9375 Q156.5313,128.4688 156.3281,129.25 Q156.1406,130.0156 156.1406,130.9688 Q156.1406,131.9375 156.3125,132.7031 Q156.5,133.4531 156.8594,133.9688 Q157.2344,134.4844 157.8125,134.7656 Q158.3906,135.0313 159.1875,135.0313 Q159.9219,135.0313 160.6563,134.8594 Q161.4063,134.6875 162.2813,134.3906 L162.2813,136.5469 Q161.875,136.7031 161.4844,136.8281 Q161.0938,136.9375 160.6875,137.0156 Q160.2813,137.0938 159.8594,137.125 Q159.4375,137.1719 158.9375,137.1719 Q157.5313,137.1719 156.5,136.7188 Q155.4844,136.2656 154.8125,135.4531 Q154.1406,134.6406 153.8125,133.5 Q153.4844,132.3438 153.4844,130.9531 Q153.4844,129.5781 153.8594,128.4219 Q154.2344,127.2656 154.9531,126.4375 Q155.6719,125.6094 156.7344,125.1563 Q157.7969,124.6875 159.1875,124.6875 Q160.0938,124.6875 161,124.9219 Q161.9063,125.1406 162.7344,125.5469 L161.9063,127.6406 Q161.2188,127.3125 160.5313,127.0781 Q159.8438,126.8281 159.1875,126.8281 Z " fill="#000000"/><text fill="#000000" font-family="sans-serif" font-size="14" lengthAdjust="spacing" textLength="100" x="179.75" y="135.8467">PlantBuildFocus</text><line style="stroke:#181818;stroke-width:0.5;" x1="8" x2="419" y1="147" y2="147"/><line style="stroke:#181818;stroke-width:0.5;" x1="8" x2="419" y1="155" y2="155"/><ellipse cx="18" cy="168.6484" fill="#84BE84" rx="3" ry="3" style="stroke:#038048;stroke-width:1.0;"/><text fill="#000000" font-family="sans-serif" font-size="14" lengthAdjust="spacing" textLength="387" x="27" y="171.9951">&#171;override&#187; GetFocusPlacePos(rayTouchPos:Vector3) : Vector3</text></g><!--class FocusScript--><g id="elem_FocusScript"><rect fill="#F1F1F1" height="48" id="FocusScript" rx="2.5" ry="2.5" style="stroke:#181818;stroke-width:0.5;" width="103" x="162" y="7"/><ellipse cx="177" cy="23" fill="#ADD1B2" rx="11" ry="11" style="stroke:#181818;stroke-width:1.0;"/><path d="M176.9375,18.8281 Q176.1875,18.8281 175.625,19.125 Q175.0625,19.4063 174.6719,19.9375 Q174.2813,20.4688 174.0781,21.25 Q173.8906,22.0156 173.8906,22.9688 Q173.8906,23.9375 174.0625,24.7031 Q174.25,25.4531 174.6094,25.9688 Q174.9844,26.4844 175.5625,26.7656 Q176.1406,27.0313 176.9375,27.0313 Q177.6719,27.0313 178.4063,26.8594 Q179.1563,26.6875 180.0313,26.3906 L180.0313,28.5469 Q179.625,28.7031 179.2344,28.8281 Q178.8438,28.9375 178.4375,29.0156 Q178.0313,29.0938 177.6094,29.125 Q177.1875,29.1719 176.6875,29.1719 Q175.2813,29.1719 174.25,28.7188 Q173.2344,28.2656 172.5625,27.4531 Q171.8906,26.6406 171.5625,25.5 Q171.2344,24.3438 171.2344,22.9531 Q171.2344,21.5781 171.6094,20.4219 Q171.9844,19.2656 172.7031,18.4375 Q173.4219,17.6094 174.4844,17.1563 Q175.5469,16.6875 176.9375,16.6875 Q177.8438,16.6875 178.75,16.9219 Q179.6563,17.1406 180.4844,17.5469 L179.6563,19.6406 Q178.9688,19.3125 178.2813,19.0781 Q177.5938,18.8281 176.9375,18.8281 Z " fill="#000000"/><text fill="#000000" font-family="sans-serif" font-size="14" lengthAdjust="spacing" textLength="71" x="191" y="27.8467">FocusScript</text><line style="stroke:#181818;stroke-width:0.5;" x1="163" x2="264" y1="39" y2="39"/><line style="stroke:#181818;stroke-width:0.5;" x1="163" x2="264" y1="47" y2="47"/></g><!--reverse link FocusScript to PlantBuildFocus--><g id="link_FocusScript_PlantBuildFocus"><path codeLine="4" d="M213.5,75.09 C213.5,88.28 213.5,102.52 213.5,114.75 " fill="none" id="FocusScript-backto-PlantBuildFocus" style="stroke:#181818;stroke-width:1.0;"/><polygon fill="none" points="206.5,75.07,213.5,55.07,220.5,75.07,206.5,75.07" style="stroke:#181818;stroke-width:1.0;"/></g><!--SRC=[Iyv9B2vM2CX9p2jnAitCIN7BJoujLgZcKW02RGKRc_oorAAYp9HKEpi5zzGIi2nGSN9gG7wnHb5YPKX-QN86a6qLbffSabzahAbWfG1bSjLoWPK79nTb5fGesDJewgBR0m00]--></g></svg>