<?xml version="1.0" encoding="us-ascii" standalone="no"?><svg xmlns="http://www.w3.org/2000/svg" xmlns:xlink="http://www.w3.org/1999/xlink" contentStyleType="text/css" height="186px" preserveAspectRatio="none" style="width:218px;height:186px;background:#FFFFFF;" version="1.1" viewBox="0 0 218 186" width="218px" zoomAndPan="magnify"><defs/><g><!--class PlayerUIInputs--><g id="elem_PlayerUIInputs"><rect codeLine="1" fill="#F1F1F1" height="64.2969" id="PlayerUIInputs" rx="2.5" ry="2.5" style="stroke:#181818;stroke-width:0.5;" width="204" x="7" y="115"/><ellipse cx="57.25" cy="131" fill="#ADD1B2" rx="11" ry="11" style="stroke:#181818;stroke-width:1.0;"/><path d="M57.1875,126.8281 Q56.4375,126.8281 55.875,127.125 Q55.3125,127.4063 54.9219,127.9375 Q54.5313,128.4688 54.3281,129.25 Q54.1406,130.0156 54.1406,130.9688 Q54.1406,131.9375 54.3125,132.7031 Q54.5,133.4531 54.8594,133.9688 Q55.2344,134.4844 55.8125,134.7656 Q56.3906,135.0313 57.1875,135.0313 Q57.9219,135.0313 58.6563,134.8594 Q59.4063,134.6875 60.2813,134.3906 L60.2813,136.5469 Q59.875,136.7031 59.4844,136.8281 Q59.0938,136.9375 58.6875,137.0156 Q58.2813,137.0938 57.8594,137.125 Q57.4375,137.1719 56.9375,137.1719 Q55.5313,137.1719 54.5,136.7188 Q53.4844,136.2656 52.8125,135.4531 Q52.1406,134.6406 51.8125,133.5 Q51.4844,132.3438 51.4844,130.9531 Q51.4844,129.5781 51.8594,128.4219 Q52.2344,127.2656 52.9531,126.4375 Q53.6719,125.6094 54.7344,125.1563 Q55.7969,124.6875 57.1875,124.6875 Q58.0938,124.6875 59,124.9219 Q59.9063,125.1406 60.7344,125.5469 L59.9063,127.6406 Q59.2188,127.3125 58.5313,127.0781 Q57.8438,126.8281 57.1875,126.8281 Z " fill="#000000"/><text fill="#000000" font-family="sans-serif" font-size="14" lengthAdjust="spacing" textLength="95" x="77.75" y="135.8467">PlayerUIInputs</text><line style="stroke:#181818;stroke-width:0.5;" x1="8" x2="210" y1="147" y2="147"/><line style="stroke:#181818;stroke-width:0.5;" x1="8" x2="210" y1="155" y2="155"/><ellipse cx="18" cy="168.6484" fill="#84BE84" rx="3" ry="3" style="stroke:#038048;stroke-width:1.0;"/><text fill="#000000" font-family="sans-serif" font-size="14" lengthAdjust="spacing" textLength="178" x="27" y="171.9951">ShopVisibilityChange() : void</text></g><!--class MonoBehaviour--><g id="elem_MonoBehaviour"><rect fill="#F1F1F1" height="48" id="MonoBehaviour" rx="2.5" ry="2.5" style="stroke:#181818;stroke-width:0.5;" width="133" x="42.5" y="7"/><ellipse cx="57.5" cy="23" fill="#ADD1B2" rx="11" ry="11" style="stroke:#181818;stroke-width:1.0;"/><path d="M57.4375,18.8281 Q56.6875,18.8281 56.125,19.125 Q55.5625,19.4063 55.1719,19.9375 Q54.7813,20.4688 54.5781,21.25 Q54.3906,22.0156 54.3906,22.9688 Q54.3906,23.9375 54.5625,24.7031 Q54.75,25.4531 55.1094,25.9688 Q55.4844,26.4844 56.0625,26.7656 Q56.6406,27.0313 57.4375,27.0313 Q58.1719,27.0313 58.9063,26.8594 Q59.6563,26.6875 60.5313,26.3906 L60.5313,28.5469 Q60.125,28.7031 59.7344,28.8281 Q59.3438,28.9375 58.9375,29.0156 Q58.5313,29.0938 58.1094,29.125 Q57.6875,29.1719 57.1875,29.1719 Q55.7813,29.1719 54.75,28.7188 Q53.7344,28.2656 53.0625,27.4531 Q52.3906,26.6406 52.0625,25.5 Q51.7344,24.3438 51.7344,22.9531 Q51.7344,21.5781 52.1094,20.4219 Q52.4844,19.2656 53.2031,18.4375 Q53.9219,17.6094 54.9844,17.1563 Q56.0469,16.6875 57.4375,16.6875 Q58.3438,16.6875 59.25,16.9219 Q60.1563,17.1406 60.9844,17.5469 L60.1563,19.6406 Q59.4688,19.3125 58.7813,19.0781 Q58.0938,18.8281 57.4375,18.8281 Z " fill="#000000"/><text fill="#000000" font-family="sans-serif" font-size="14" lengthAdjust="spacing" textLength="101" x="71.5" y="27.8467">MonoBehaviour</text><line style="stroke:#181818;stroke-width:0.5;" x1="43.5" x2="174.5" y1="39" y2="39"/><line style="stroke:#181818;stroke-width:0.5;" x1="43.5" x2="174.5" y1="47" y2="47"/></g><!--reverse link MonoBehaviour to PlayerUIInputs--><g id="link_MonoBehaviour_PlayerUIInputs"><path codeLine="4" d="M109,75.09 C109,88.28 109,102.52 109,114.75 " fill="none" id="MonoBehaviour-backto-PlayerUIInputs" style="stroke:#181818;stroke-width:1.0;"/><polygon fill="none" points="102,75.07,109,55.07,116,75.07,102,75.07" style="stroke:#181818;stroke-width:1.0;"/></g><!--SRC=[Iyv9B2vM2CX9h4mj2lNqp2ieBIbMgEPI009jXU2C_8AmpEBCfCoSp99Avup4lFHK3Kq5AuMo_CmKhbekt_oyVAVKZCIopFpI8WMR6brTD9C0]--></g></svg>