<?xml version="1.0" encoding="us-ascii" standalone="no"?><svg xmlns="http://www.w3.org/2000/svg" xmlns:xlink="http://www.w3.org/1999/xlink" contentStyleType="text/css" height="278px" preserveAspectRatio="none" style="width:225px;height:278px;background:#FFFFFF;" version="1.1" viewBox="0 0 225 278" width="225px" zoomAndPan="magnify"><defs/><g><!--class PlayerInputs--><g id="elem_PlayerInputs"><rect codeLine="1" fill="#F1F1F1" height="48" id="PlayerInputs" rx="2.5" ry="2.5" style="stroke:#181818;stroke-width:0.5;" width="112" x="63.9298" y="115"/><ellipse cx="78.9298" cy="131" fill="#ADD1B2" rx="11" ry="11" style="stroke:#181818;stroke-width:1.0;"/><path d="M78.8673,126.8281 Q78.1173,126.8281 77.5548,127.125 Q76.9923,127.4063 76.6016,127.9375 Q76.211,128.4688 76.0079,129.25 Q75.8204,130.0156 75.8204,130.9688 Q75.8204,131.9375 75.9923,132.7031 Q76.1798,133.4531 76.5391,133.9688 Q76.9141,134.4844 77.4923,134.7656 Q78.0704,135.0313 78.8673,135.0313 Q79.6016,135.0313 80.336,134.8594 Q81.086,134.6875 81.961,134.3906 L81.961,136.5469 Q81.5548,136.7031 81.1641,136.8281 Q80.7735,136.9375 80.3673,137.0156 Q79.961,137.0938 79.5391,137.125 Q79.1173,137.1719 78.6173,137.1719 Q77.211,137.1719 76.1798,136.7188 Q75.1641,136.2656 74.4923,135.4531 Q73.8204,134.6406 73.4923,133.5 Q73.1641,132.3438 73.1641,130.9531 Q73.1641,129.5781 73.5391,128.4219 Q73.9141,127.2656 74.6329,126.4375 Q75.3516,125.6094 76.4141,125.1563 Q77.4766,124.6875 78.8673,124.6875 Q79.7735,124.6875 80.6798,124.9219 Q81.586,125.1406 82.4141,125.5469 L81.586,127.6406 Q80.8985,127.3125 80.211,127.0781 Q79.5235,126.8281 78.8673,126.8281 Z " fill="#000000"/><text fill="#000000" font-family="sans-serif" font-size="14" lengthAdjust="spacing" textLength="80" x="92.9298" y="135.8467">PlayerInputs</text><line style="stroke:#181818;stroke-width:0.5;" x1="64.9298" x2="174.9298" y1="147" y2="147"/><line style="stroke:#181818;stroke-width:0.5;" x1="64.9298" x2="174.9298" y1="155" y2="155"/></g><!--class MonoBehaviour--><g id="elem_MonoBehaviour"><rect fill="#F1F1F1" height="48" id="MonoBehaviour" rx="2.5" ry="2.5" style="stroke:#181818;stroke-width:0.5;" width="133" x="53.4298" y="7"/><ellipse cx="68.4298" cy="23" fill="#ADD1B2" rx="11" ry="11" style="stroke:#181818;stroke-width:1.0;"/><path d="M68.3673,18.8281 Q67.6173,18.8281 67.0548,19.125 Q66.4923,19.4063 66.1016,19.9375 Q65.711,20.4688 65.5079,21.25 Q65.3204,22.0156 65.3204,22.9688 Q65.3204,23.9375 65.4923,24.7031 Q65.6798,25.4531 66.0391,25.9688 Q66.4141,26.4844 66.9923,26.7656 Q67.5704,27.0313 68.3673,27.0313 Q69.1016,27.0313 69.836,26.8594 Q70.586,26.6875 71.461,26.3906 L71.461,28.5469 Q71.0548,28.7031 70.6641,28.8281 Q70.2735,28.9375 69.8673,29.0156 Q69.461,29.0938 69.0391,29.125 Q68.6173,29.1719 68.1173,29.1719 Q66.711,29.1719 65.6798,28.7188 Q64.6641,28.2656 63.9923,27.4531 Q63.3204,26.6406 62.9923,25.5 Q62.6641,24.3438 62.6641,22.9531 Q62.6641,21.5781 63.0391,20.4219 Q63.4141,19.2656 64.1329,18.4375 Q64.8516,17.6094 65.9141,17.1563 Q66.9766,16.6875 68.3673,16.6875 Q69.2735,16.6875 70.1798,16.9219 Q71.086,17.1406 71.9141,17.5469 L71.086,19.6406 Q70.3985,19.3125 69.711,19.0781 Q69.0235,18.8281 68.3673,18.8281 Z " fill="#000000"/><text fill="#000000" font-family="sans-serif" font-size="14" lengthAdjust="spacing" textLength="101" x="82.4298" y="27.8467">MonoBehaviour</text><line style="stroke:#181818;stroke-width:0.5;" x1="54.4298" x2="185.4298" y1="39" y2="39"/><line style="stroke:#181818;stroke-width:0.5;" x1="54.4298" x2="185.4298" y1="47" y2="47"/></g><!--class Vector2--><g id="elem_Vector2"><rect fill="#F1F1F1" height="48" id="Vector2" rx="2.5" ry="2.5" style="stroke:#181818;stroke-width:0.5;" width="81" x="21.4298" y="223"/><ellipse cx="36.4298" cy="239" fill="#ADD1B2" rx="11" ry="11" style="stroke:#181818;stroke-width:1.0;"/><path d="M36.3673,234.8281 Q35.6173,234.8281 35.0548,235.125 Q34.4923,235.4063 34.1016,235.9375 Q33.711,236.4688 33.5079,237.25 Q33.3204,238.0156 33.3204,238.9688 Q33.3204,239.9375 33.4923,240.7031 Q33.6798,241.4531 34.0391,241.9688 Q34.4141,242.4844 34.9923,242.7656 Q35.5704,243.0313 36.3673,243.0313 Q37.1016,243.0313 37.836,242.8594 Q38.586,242.6875 39.461,242.3906 L39.461,244.5469 Q39.0548,244.7031 38.6641,244.8281 Q38.2735,244.9375 37.8673,245.0156 Q37.461,245.0938 37.0391,245.125 Q36.6173,245.1719 36.1173,245.1719 Q34.711,245.1719 33.6798,244.7188 Q32.6641,244.2656 31.9923,243.4531 Q31.3204,242.6406 30.9923,241.5 Q30.6641,240.3438 30.6641,238.9531 Q30.6641,237.5781 31.0391,236.4219 Q31.4141,235.2656 32.1329,234.4375 Q32.8516,233.6094 33.9141,233.1563 Q34.9766,232.6875 36.3673,232.6875 Q37.2735,232.6875 38.1798,232.9219 Q39.086,233.1406 39.9141,233.5469 L39.086,235.6406 Q38.3985,235.3125 37.711,235.0781 Q37.0235,234.8281 36.3673,234.8281 Z " fill="#000000"/><text fill="#000000" font-family="sans-serif" font-size="14" lengthAdjust="spacing" textLength="49" x="50.4298" y="243.8467">Vector2</text><line style="stroke:#181818;stroke-width:0.5;" x1="22.4298" x2="101.4298" y1="255" y2="255"/><line style="stroke:#181818;stroke-width:0.5;" x1="22.4298" x2="101.4298" y1="263" y2="263"/></g><!--class Camera--><g id="elem_Camera"><rect fill="#F1F1F1" height="48" id="Camera" rx="2.5" ry="2.5" style="stroke:#181818;stroke-width:0.5;" width="81" x="137.4297" y="223"/><ellipse cx="152.4297" cy="239" fill="#ADD1B2" rx="11" ry="11" style="stroke:#181818;stroke-width:1.0;"/><path d="M152.3672,234.8281 Q151.6172,234.8281 151.0547,235.125 Q150.4922,235.4063 150.1016,235.9375 Q149.711,236.4688 149.5079,237.25 Q149.3204,238.0156 149.3204,238.9688 Q149.3204,239.9375 149.4922,240.7031 Q149.6797,241.4531 150.0391,241.9688 Q150.4141,242.4844 150.9922,242.7656 Q151.5704,243.0313 152.3672,243.0313 Q153.1016,243.0313 153.836,242.8594 Q154.586,242.6875 155.461,242.3906 L155.461,244.5469 Q155.0547,244.7031 154.6641,244.8281 Q154.2735,244.9375 153.8672,245.0156 Q153.461,245.0938 153.0391,245.125 Q152.6172,245.1719 152.1172,245.1719 Q150.711,245.1719 149.6797,244.7188 Q148.6641,244.2656 147.9922,243.4531 Q147.3204,242.6406 146.9922,241.5 Q146.6641,240.3438 146.6641,238.9531 Q146.6641,237.5781 147.0391,236.4219 Q147.4141,235.2656 148.1329,234.4375 Q148.8516,233.6094 149.9141,233.1563 Q150.9766,232.6875 152.3672,232.6875 Q153.2735,232.6875 154.1797,232.9219 Q155.086,233.1406 155.9141,233.5469 L155.086,235.6406 Q154.3985,235.3125 153.711,235.0781 Q153.0235,234.8281 152.3672,234.8281 Z " fill="#000000"/><text fill="#000000" font-family="sans-serif" font-size="14" lengthAdjust="spacing" textLength="49" x="166.4297" y="243.8467">Camera</text><line style="stroke:#181818;stroke-width:0.5;" x1="138.4297" x2="217.4297" y1="255" y2="255"/><line style="stroke:#181818;stroke-width:0.5;" x1="138.4297" x2="217.4297" y1="263" y2="263"/></g><!--reverse link MonoBehaviour to PlayerInputs--><g id="link_MonoBehaviour_PlayerInputs"><path codeLine="3" d="M119.9298,75.02 C119.9298,88.58 119.9298,103.04 119.9298,114.68 " fill="none" id="MonoBehaviour-backto-PlayerInputs" style="stroke:#181818;stroke-width:1.0;"/><polygon fill="none" points="112.9298,75,119.9298,55,126.9298,75,112.9298,75" style="stroke:#181818;stroke-width:1.0;"/></g><!--link PlayerInputs to Vector2--><g id="link_PlayerInputs_Vector2"><path codeLine="4" d="M107.3398,163 C98.5098,179.14 86.6498,200.82 77.2698,217.97 " fill="none" id="PlayerInputs-to-Vector2" style="stroke:#181818;stroke-width:1.0;"/><polygon fill="#181818" points="74.6898,222.68,82.511,216.6943,77.084,218.2905,75.4878,212.8635,74.6898,222.68" style="stroke:#181818;stroke-width:1.0;"/><text fill="#000000" font-family="sans-serif" font-size="13" lengthAdjust="spacing" textLength="64" x="6" y="212.007">MoveInput</text></g><!--link PlayerInputs to Camera--><g id="link_PlayerInputs_Camera"><path codeLine="5" d="M132.5098,163 C141.3498,179.14 153.2098,200.82 162.5898,217.97 " fill="none" id="PlayerInputs-to-Camera" style="stroke:#181818;stroke-width:1.0;"/><polygon fill="#181818" points="165.1698,222.68,164.3582,212.8646,162.7695,218.2938,157.3403,216.7051,165.1698,222.68" style="stroke:#181818;stroke-width:1.0;"/><text fill="#000000" font-family="sans-serif" font-size="13" lengthAdjust="spacing" textLength="78" x="102.7718" y="211.9452">CameraInput</text></g><!--SRC=[Iyv9B2vM2CX9h4mjyimhA2qfLgZcgkNopS_BTqhDI2pBp2yjKh2fqTL5KSE5ea5Nrqv1oJU_B1NCLr88IqqkoIyomgB8EJ4tjIWHgWp20G00]--></g></svg>