<?xml version="1.0" encoding="us-ascii" standalone="no"?><svg xmlns="http://www.w3.org/2000/svg" xmlns:xlink="http://www.w3.org/1999/xlink" contentStyleType="text/css" height="85px" preserveAspectRatio="none" style="width:158px;height:85px;background:#FFFFFF;" version="1.1" viewBox="0 0 158 85" width="158px" zoomAndPan="magnify"><defs/><g><!--class Model--><g id="elem_Model"><rect codeLine="1" fill="#F1F1F1" height="64.2969" id="Model" rx="2.5" ry="2.5" style="stroke:#181818;stroke-width:0.5;" width="137" x="7" y="7"/><ellipse cx="51.25" cy="23" fill="#A9DCDF" rx="11" ry="11" style="stroke:#181818;stroke-width:1.0;"/><path d="M54.2031,28 L53.375,25.1094 L49.1875,25.1094 L48.3438,28 L45.75,28 L49.6875,15.8125 L52.8438,15.8125 L56.7969,28 L54.2031,28 Z M52.7656,22.9531 L52,20.2969 Q51.9375,20.1406 51.8438,19.8125 Q51.75,19.4688 51.625,19.0625 Q51.5156,18.6406 51.4063,18.2344 Q51.3125,17.8125 51.2813,17.5313 Q51.25,17.7031 51.1875,17.9531 Q51.1406,18.2031 51.0625,18.4844 Q51,18.7656 50.9219,19.0469 Q50.8438,19.3281 50.7813,19.5781 Q50.7188,19.8281 50.6563,20.0156 Q50.6094,20.2031 50.5781,20.2969 L49.8125,22.9531 L52.7656,22.9531 Z " fill="#000000"/><text fill="#000000" font-family="sans-serif" font-size="14" font-style="italic" lengthAdjust="spacing" textLength="40" x="71.75" y="27.8467">Model</text><line style="stroke:#181818;stroke-width:0.5;" x1="8" x2="143" y1="39" y2="39"/><line style="stroke:#181818;stroke-width:0.5;" x1="8" x2="143" y1="47" y2="47"/><ellipse cx="18" cy="60.6484" fill="#84BE84" rx="3" ry="3" style="stroke:#038048;stroke-width:1.0;"/><text fill="#000000" font-family="sans-serif" font-size="14" lengthAdjust="spacing" textLength="111" x="27" y="63.9951">Model(view:View)</text></g><!--SRC=[IqmgBYbAJ2vHICv9B2vMyCrFISrHgEPI009j24-ZB3Ert2eCI6XorG80]--></g></svg>