<?xml version="1.0" encoding="us-ascii" standalone="no"?><svg xmlns="http://www.w3.org/2000/svg" xmlns:xlink="http://www.w3.org/1999/xlink" contentStyleType="text/css" height="311px" preserveAspectRatio="none" style="width:316px;height:311px;background:#FFFFFF;" version="1.1" viewBox="0 0 316 311" width="316px" zoomAndPan="magnify"><defs/><g><!--class ShopUIModel--><g id="elem_ShopUIModel"><rect codeLine="1" fill="#F1F1F1" height="80.5938" id="ShopUIModel" rx="2.5" ry="2.5" style="stroke:#181818;stroke-width:0.5;" width="302" x="7" y="115"/><ellipse cx="110.75" cy="131" fill="#ADD1B2" rx="11" ry="11" style="stroke:#181818;stroke-width:1.0;"/><path d="M110.6875,126.8281 Q109.9375,126.8281 109.375,127.125 Q108.8125,127.4063 108.4219,127.9375 Q108.0313,128.4688 107.8281,129.25 Q107.6406,130.0156 107.6406,130.9688 Q107.6406,131.9375 107.8125,132.7031 Q108,133.4531 108.3594,133.9688 Q108.7344,134.4844 109.3125,134.7656 Q109.8906,135.0313 110.6875,135.0313 Q111.4219,135.0313 112.1563,134.8594 Q112.9063,134.6875 113.7813,134.3906 L113.7813,136.5469 Q113.375,136.7031 112.9844,136.8281 Q112.5938,136.9375 112.1875,137.0156 Q111.7813,137.0938 111.3594,137.125 Q110.9375,137.1719 110.4375,137.1719 Q109.0313,137.1719 108,136.7188 Q106.9844,136.2656 106.3125,135.4531 Q105.6406,134.6406 105.3125,133.5 Q104.9844,132.3438 104.9844,130.9531 Q104.9844,129.5781 105.3594,128.4219 Q105.7344,127.2656 106.4531,126.4375 Q107.1719,125.6094 108.2344,125.1563 Q109.2969,124.6875 110.6875,124.6875 Q111.5938,124.6875 112.5,124.9219 Q113.4063,125.1406 114.2344,125.5469 L113.4063,127.6406 Q112.7188,127.3125 112.0313,127.0781 Q111.3438,126.8281 110.6875,126.8281 Z " fill="#000000"/><text fill="#000000" font-family="sans-serif" font-size="14" lengthAdjust="spacing" textLength="86" x="131.25" y="135.8467">ShopUIModel</text><line style="stroke:#181818;stroke-width:0.5;" x1="8" x2="308" y1="147" y2="147"/><ellipse cx="18" cy="160.6484" fill="none" rx="3" ry="3" style="stroke:#038048;stroke-width:1.0;"/><text fill="#000000" font-family="sans-serif" font-size="14" lengthAdjust="spacing" textLength="212" x="27" y="163.9951">&#171;event&#187; plantsListChange : Action</text><line style="stroke:#181818;stroke-width:0.5;" x1="8" x2="308" y1="171.2969" y2="171.2969"/><ellipse cx="18" cy="184.9453" fill="#84BE84" rx="3" ry="3" style="stroke:#038048;stroke-width:1.0;"/><text fill="#000000" font-family="sans-serif" font-size="14" lengthAdjust="spacing" textLength="276" x="27" y="188.292">ShopUIModel(view:View, plants:List&lt;Item&gt;)</text></g><!--class List`1--><g id="elem_List`1"><rect codeLine="5" fill="#F1F1F1" height="48" id="List`1" rx="2.5" ry="2.5" style="stroke:#181818;stroke-width:0.5;" width="80" x="118" y="256"/><ellipse cx="133" cy="272" fill="#ADD1B2" rx="11" ry="11" style="stroke:#181818;stroke-width:1.0;"/><path d="M132.9375,267.8281 Q132.1875,267.8281 131.625,268.125 Q131.0625,268.4063 130.6719,268.9375 Q130.2813,269.4688 130.0781,270.25 Q129.8906,271.0156 129.8906,271.9688 Q129.8906,272.9375 130.0625,273.7031 Q130.25,274.4531 130.6094,274.9688 Q130.9844,275.4844 131.5625,275.7656 Q132.1406,276.0313 132.9375,276.0313 Q133.6719,276.0313 134.4063,275.8594 Q135.1563,275.6875 136.0313,275.3906 L136.0313,277.5469 Q135.625,277.7031 135.2344,277.8281 Q134.8438,277.9375 134.4375,278.0156 Q134.0313,278.0938 133.6094,278.125 Q133.1875,278.1719 132.6875,278.1719 Q131.2813,278.1719 130.25,277.7188 Q129.2344,277.2656 128.5625,276.4531 Q127.8906,275.6406 127.5625,274.5 Q127.2344,273.3438 127.2344,271.9531 Q127.2344,270.5781 127.6094,269.4219 Q127.9844,268.2656 128.7031,267.4375 Q129.4219,266.6094 130.4844,266.1563 Q131.5469,265.6875 132.9375,265.6875 Q133.8438,265.6875 134.75,265.9219 Q135.6563,266.1406 136.4844,266.5469 L135.6563,268.6406 Q134.9688,268.3125 134.2813,268.0781 Q133.5938,267.8281 132.9375,267.8281 Z " fill="#000000"/><text fill="#000000" font-family="sans-serif" font-size="14" lengthAdjust="spacing" textLength="38" x="147" y="276.8467">List`1</text><rect fill="#FFFFFF" height="15.9688" style="stroke:#181818;stroke-width:1.0;stroke-dasharray:2.0,2.0;" width="8" x="193" y="253"/><text fill="#000000" font-family="sans-serif" font-size="12" font-style="italic" lengthAdjust="spacing" textLength="6" x="194" y="265.1387">T</text><line style="stroke:#181818;stroke-width:0.5;" x1="119" x2="197" y1="288" y2="288"/><line style="stroke:#181818;stroke-width:0.5;" x1="119" x2="197" y1="296" y2="296"/></g><!--class Model--><g id="elem_Model"><rect fill="#F1F1F1" height="48" id="Model" rx="2.5" ry="2.5" style="stroke:#181818;stroke-width:0.5;" width="72" x="122" y="7"/><ellipse cx="137" cy="23" fill="#ADD1B2" rx="11" ry="11" style="stroke:#181818;stroke-width:1.0;"/><path d="M136.9375,18.8281 Q136.1875,18.8281 135.625,19.125 Q135.0625,19.4063 134.6719,19.9375 Q134.2813,20.4688 134.0781,21.25 Q133.8906,22.0156 133.8906,22.9688 Q133.8906,23.9375 134.0625,24.7031 Q134.25,25.4531 134.6094,25.9688 Q134.9844,26.4844 135.5625,26.7656 Q136.1406,27.0313 136.9375,27.0313 Q137.6719,27.0313 138.4063,26.8594 Q139.1563,26.6875 140.0313,26.3906 L140.0313,28.5469 Q139.625,28.7031 139.2344,28.8281 Q138.8438,28.9375 138.4375,29.0156 Q138.0313,29.0938 137.6094,29.125 Q137.1875,29.1719 136.6875,29.1719 Q135.2813,29.1719 134.25,28.7188 Q133.2344,28.2656 132.5625,27.4531 Q131.8906,26.6406 131.5625,25.5 Q131.2344,24.3438 131.2344,22.9531 Q131.2344,21.5781 131.6094,20.4219 Q131.9844,19.2656 132.7031,18.4375 Q133.4219,17.6094 134.4844,17.1563 Q135.5469,16.6875 136.9375,16.6875 Q137.8438,16.6875 138.75,16.9219 Q139.6563,17.1406 140.4844,17.5469 L139.6563,19.6406 Q138.9688,19.3125 138.2813,19.0781 Q137.5938,18.8281 136.9375,18.8281 Z " fill="#000000"/><text fill="#000000" font-family="sans-serif" font-size="14" lengthAdjust="spacing" textLength="40" x="151" y="27.8467">Model</text><line style="stroke:#181818;stroke-width:0.5;" x1="123" x2="193" y1="39" y2="39"/><line style="stroke:#181818;stroke-width:0.5;" x1="123" x2="193" y1="47" y2="47"/></g><!--reverse link Model to ShopUIModel--><g id="link_Model_ShopUIModel"><path codeLine="7" d="M158,75.14 C158,88 158,102.04 158,114.69 " fill="none" id="Model-backto-ShopUIModel" style="stroke:#181818;stroke-width:1.0;"/><polygon fill="none" points="151,75.04,158,55.04,165,75.04,151,75.04" style="stroke:#181818;stroke-width:1.0;"/></g><!--link ShopUIModel to List`1--><g id="link_ShopUIModel_List`1"><path codeLine="8" d="M158,196.27 C158,213.97 158,234.41 158,250.55 " fill="none" id="ShopUIModel-to-List`1" style="stroke:#181818;stroke-width:1.0;"/><polygon fill="#181818" points="158,255.84,162,246.84,158,250.84,154,246.84,158,255.84" style="stroke:#181818;stroke-width:1.0;"/><text fill="#000000" font-family="sans-serif" font-size="13" lengthAdjust="spacing" textLength="77" x="71.1344" y="244.811">plants&lt;Item&gt;</text></g><!--SRC=[Iyv9B2vM2Cx8BmZrzCrFISrHgEPI009j1GKRczIorBmIEpk5Wfp4l99YdypY4kUCnBpqL0Kh1SVaaipyF0MeMYJz6cMPgULMOK121whF2gJHnhCaDTTEawkMAnbien98CC5GoIR43cXZBHV4RfiQNLramxYG7QQhQwUW134IOfeIt1G0]--></g></svg>