<?xml version="1.0" encoding="us-ascii" standalone="no"?><svg xmlns="http://www.w3.org/2000/svg" xmlns:xlink="http://www.w3.org/1999/xlink" contentStyleType="text/css" height="202px" preserveAspectRatio="none" style="width:192px;height:202px;background:#FFFFFF;" version="1.1" viewBox="0 0 192 202" width="192px" zoomAndPan="magnify"><defs/><g><!--class Item--><g id="elem_Item"><rect codeLine="1" fill="#F1F1F1" height="80.5938" id="Item" rx="2.5" ry="2.5" style="stroke:#181818;stroke-width:0.5;" width="178" x="7" y="115"/><ellipse cx="76.25" cy="131" fill="#A9DCDF" rx="11" ry="11" style="stroke:#181818;stroke-width:1.0;"/><path d="M79.2031,136 L78.375,133.1094 L74.1875,133.1094 L73.3438,136 L70.75,136 L74.6875,123.8125 L77.8438,123.8125 L81.7969,136 L79.2031,136 Z M77.7656,130.9531 L77,128.2969 Q76.9375,128.1406 76.8438,127.8125 Q76.75,127.4688 76.625,127.0625 Q76.5156,126.6406 76.4063,126.2344 Q76.3125,125.8125 76.2813,125.5313 Q76.25,125.7031 76.1875,125.9531 Q76.1406,126.2031 76.0625,126.4844 Q76,126.7656 75.9219,127.0469 Q75.8438,127.3281 75.7813,127.5781 Q75.7188,127.8281 75.6563,128.0156 Q75.6094,128.2031 75.5781,128.2969 L74.8125,130.9531 L77.7656,130.9531 Z " fill="#000000"/><text fill="#000000" font-family="sans-serif" font-size="14" font-style="italic" lengthAdjust="spacing" textLength="31" x="96.75" y="135.8467">Item</text><line style="stroke:#181818;stroke-width:0.5;" x1="8" x2="184" y1="147" y2="147"/><line style="stroke:#181818;stroke-width:0.5;" x1="8" x2="184" y1="155" y2="155"/><ellipse cx="18" cy="168.6484" fill="#84BE84" rx="3" ry="3" style="stroke:#038048;stroke-width:1.0;"/><text fill="#000000" font-family="sans-serif" font-size="14" lengthAdjust="spacing" textLength="73" x="27" y="171.9951">GetId() : int</text><ellipse cx="18" cy="184.9453" fill="#84BE84" rx="3" ry="3" style="stroke:#038048;stroke-width:1.0;"/><text fill="#000000" font-family="sans-serif" font-size="14" lengthAdjust="spacing" textLength="152" x="27" y="188.292">GetDescription() : string</text></g><!--class ScriptableObject--><g id="elem_ScriptableObject"><rect fill="#F1F1F1" height="48" id="ScriptableObject" rx="2.5" ry="2.5" style="stroke:#181818;stroke-width:0.5;" width="136" x="28" y="7"/><ellipse cx="43" cy="23" fill="#ADD1B2" rx="11" ry="11" style="stroke:#181818;stroke-width:1.0;"/><path d="M42.9375,18.8281 Q42.1875,18.8281 41.625,19.125 Q41.0625,19.4063 40.6719,19.9375 Q40.2813,20.4688 40.0781,21.25 Q39.8906,22.0156 39.8906,22.9688 Q39.8906,23.9375 40.0625,24.7031 Q40.25,25.4531 40.6094,25.9688 Q40.9844,26.4844 41.5625,26.7656 Q42.1406,27.0313 42.9375,27.0313 Q43.6719,27.0313 44.4063,26.8594 Q45.1563,26.6875 46.0313,26.3906 L46.0313,28.5469 Q45.625,28.7031 45.2344,28.8281 Q44.8438,28.9375 44.4375,29.0156 Q44.0313,29.0938 43.6094,29.125 Q43.1875,29.1719 42.6875,29.1719 Q41.2813,29.1719 40.25,28.7188 Q39.2344,28.2656 38.5625,27.4531 Q37.8906,26.6406 37.5625,25.5 Q37.2344,24.3438 37.2344,22.9531 Q37.2344,21.5781 37.6094,20.4219 Q37.9844,19.2656 38.7031,18.4375 Q39.4219,17.6094 40.4844,17.1563 Q41.5469,16.6875 42.9375,16.6875 Q43.8438,16.6875 44.75,16.9219 Q45.6563,17.1406 46.4844,17.5469 L45.6563,19.6406 Q44.9688,19.3125 44.2813,19.0781 Q43.5938,18.8281 42.9375,18.8281 Z " fill="#000000"/><text fill="#000000" font-family="sans-serif" font-size="14" lengthAdjust="spacing" textLength="104" x="57" y="27.8467">ScriptableObject</text><line style="stroke:#181818;stroke-width:0.5;" x1="29" x2="163" y1="39" y2="39"/><line style="stroke:#181818;stroke-width:0.5;" x1="29" x2="163" y1="47" y2="47"/></g><!--reverse link ScriptableObject to Item--><g id="link_ScriptableObject_Item"><path codeLine="5" d="M96,75.14 C96,88 96,102.04 96,114.69 " fill="none" id="ScriptableObject-backto-Item" style="stroke:#181818;stroke-width:1.0;"/><polygon fill="none" points="89,75.04,96,55.04,103,75.04,89,75.04" style="stroke:#181818;stroke-width:1.0;"/></g><!--SRC=[IqmgBYbAJ2vHICv9B2vMy2n9pLMevb800cq5zzGIpnGDJGKhXSoy4eIOIsfnSb5cGKbcVXvO4cX0PbuwLorNC5WuCIadrJyfAnLefasDhYxOI000]--></g></svg>