<?xml version="1.0" encoding="us-ascii" standalone="no"?><svg xmlns="http://www.w3.org/2000/svg" xmlns:xlink="http://www.w3.org/1999/xlink" contentStyleType="text/css" height="267px" preserveAspectRatio="none" style="width:271px;height:267px;background:#FFFFFF;" version="1.1" viewBox="0 0 271 267" width="271px" zoomAndPan="magnify"><defs/><g><!--class PlantItem--><g id="elem_PlantItem"><rect codeLine="1" fill="#F1F1F1" height="80.5938" id="PlantItem" rx="2.5" ry="2.5" style="stroke:#181818;stroke-width:0.5;" width="228" x="7" y="180"/><ellipse cx="85.25" cy="196" fill="#ADD1B2" rx="11" ry="11" style="stroke:#181818;stroke-width:1.0;"/><path d="M85.1875,191.8281 Q84.4375,191.8281 83.875,192.125 Q83.3125,192.4063 82.9219,192.9375 Q82.5313,193.4688 82.3281,194.25 Q82.1406,195.0156 82.1406,195.9688 Q82.1406,196.9375 82.3125,197.7031 Q82.5,198.4531 82.8594,198.9688 Q83.2344,199.4844 83.8125,199.7656 Q84.3906,200.0313 85.1875,200.0313 Q85.9219,200.0313 86.6563,199.8594 Q87.4063,199.6875 88.2813,199.3906 L88.2813,201.5469 Q87.875,201.7031 87.4844,201.8281 Q87.0938,201.9375 86.6875,202.0156 Q86.2813,202.0938 85.8594,202.125 Q85.4375,202.1719 84.9375,202.1719 Q83.5313,202.1719 82.5,201.7188 Q81.4844,201.2656 80.8125,200.4531 Q80.1406,199.6406 79.8125,198.5 Q79.4844,197.3438 79.4844,195.9531 Q79.4844,194.5781 79.8594,193.4219 Q80.2344,192.2656 80.9531,191.4375 Q81.6719,190.6094 82.7344,190.1563 Q83.7969,189.6875 85.1875,189.6875 Q86.0938,189.6875 87,189.9219 Q87.9063,190.1406 88.7344,190.5469 L87.9063,192.6406 Q87.2188,192.3125 86.5313,192.0781 Q85.8438,191.8281 85.1875,191.8281 Z " fill="#000000"/><text fill="#000000" font-family="sans-serif" font-size="14" lengthAdjust="spacing" textLength="63" x="105.75" y="200.8467">PlantItem</text><line style="stroke:#181818;stroke-width:0.5;" x1="8" x2="234" y1="212" y2="212"/><line style="stroke:#181818;stroke-width:0.5;" x1="8" x2="234" y1="220" y2="220"/><ellipse cx="18" cy="233.6484" fill="#84BE84" rx="3" ry="3" style="stroke:#038048;stroke-width:1.0;"/><text fill="#000000" font-family="sans-serif" font-size="14" lengthAdjust="spacing" textLength="131" x="27" y="236.9951">GetSeason() : Season</text><ellipse cx="18" cy="249.9453" fill="#84BE84" rx="3" ry="3" style="stroke:#038048;stroke-width:1.0;"/><text fill="#000000" font-family="sans-serif" font-size="14" lengthAdjust="spacing" textLength="202" x="27" y="253.292">GetWorldPrefab() : GameObject</text></g><!--class Season--><g id="elem_Season"><rect codeLine="5" fill="#F1F1F1" height="113.1875" id="Season" rx="2.5" ry="2.5" style="stroke:#181818;stroke-width:0.5;" width="76" x="188" y="7"/><ellipse cx="203" cy="23" fill="#EB937F" rx="11" ry="11" style="stroke:#181818;stroke-width:1.0;"/><path d="M206.0156,29 L199.0313,29 L199.0313,16.8594 L206.0156,16.8594 L206.0156,18.9688 L201.5938,18.9688 L201.5938,21.6406 L205.7031,21.6406 L205.7031,23.75 L201.5938,23.75 L201.5938,26.875 L206.0156,26.875 L206.0156,29 Z " fill="#000000"/><text fill="#000000" font-family="sans-serif" font-size="14" lengthAdjust="spacing" textLength="44" x="217" y="27.8467">Season</text><line style="stroke:#181818;stroke-width:0.5;" x1="189" x2="263" y1="39" y2="39"/><text fill="#000000" font-family="sans-serif" font-size="14" lengthAdjust="spacing" textLength="47" x="194" y="55.9951">Winter,</text><text fill="#000000" font-family="sans-serif" font-size="14" lengthAdjust="spacing" textLength="44" x="194" y="72.292">Spring,</text><text fill="#000000" font-family="sans-serif" font-size="14" lengthAdjust="spacing" textLength="59" x="194" y="88.5889">Summer,</text><text fill="#000000" font-family="sans-serif" font-size="14" lengthAdjust="spacing" textLength="55" x="194" y="104.8857">Autumn,</text><line style="stroke:#181818;stroke-width:0.5;" x1="189" x2="263" y1="112.1875" y2="112.1875"/></g><!--class Item--><g id="elem_Item"><rect fill="#F1F1F1" height="48" id="Item" rx="2.5" ry="2.5" style="stroke:#181818;stroke-width:0.5;" width="63" x="89.5" y="39.5"/><ellipse cx="104.5" cy="55.5" fill="#ADD1B2" rx="11" ry="11" style="stroke:#181818;stroke-width:1.0;"/><path d="M104.4375,51.3281 Q103.6875,51.3281 103.125,51.625 Q102.5625,51.9063 102.1719,52.4375 Q101.7813,52.9688 101.5781,53.75 Q101.3906,54.5156 101.3906,55.4688 Q101.3906,56.4375 101.5625,57.2031 Q101.75,57.9531 102.1094,58.4688 Q102.4844,58.9844 103.0625,59.2656 Q103.6406,59.5313 104.4375,59.5313 Q105.1719,59.5313 105.9063,59.3594 Q106.6563,59.1875 107.5313,58.8906 L107.5313,61.0469 Q107.125,61.2031 106.7344,61.3281 Q106.3438,61.4375 105.9375,61.5156 Q105.5313,61.5938 105.1094,61.625 Q104.6875,61.6719 104.1875,61.6719 Q102.7813,61.6719 101.75,61.2188 Q100.7344,60.7656 100.0625,59.9531 Q99.3906,59.1406 99.0625,58 Q98.7344,56.8438 98.7344,55.4531 Q98.7344,54.0781 99.1094,52.9219 Q99.4844,51.7656 100.2031,50.9375 Q100.9219,50.1094 101.9844,49.6563 Q103.0469,49.1875 104.4375,49.1875 Q105.3438,49.1875 106.25,49.4219 Q107.1563,49.6406 107.9844,50.0469 L107.1563,52.1406 Q106.4688,51.8125 105.7813,51.5781 Q105.0938,51.3281 104.4375,51.3281 Z " fill="#000000"/><text fill="#000000" font-family="sans-serif" font-size="14" lengthAdjust="spacing" textLength="31" x="118.5" y="60.3467">Item</text><line style="stroke:#181818;stroke-width:0.5;" x1="90.5" x2="151.5" y1="71.5" y2="71.5"/><line style="stroke:#181818;stroke-width:0.5;" x1="90.5" x2="151.5" y1="79.5" y2="79.5"/></g><!--reverse link Item to PlantItem--><g id="link_Item_PlantItem"><path codeLine="11" d="M121,107.91 C121,130.48 121,157.87 121,179.86 " fill="none" id="Item-backto-PlantItem" style="stroke:#181818;stroke-width:1.0;"/><polygon fill="none" points="114,107.71,121,87.71,128,107.71,114,107.71" style="stroke:#181818;stroke-width:1.0;"/></g><!--SRC=[Iyv9B2vM2CX9p2lnB4dDLQZcKW02RGNtr9BWrCJY_3mDJGKh1GWJ8HMUNvIJ4b2KcfQO19PtJynDzK_AIaqkuQhbIiqhpONgW1eNdfbNabga0sO75nHbvgL3sQMvkJ1nnzAIqjmy7Q1-i3jiQdHr4Su20000]--></g></svg>