<?xml version="1.0" encoding="us-ascii" standalone="no"?><svg xmlns="http://www.w3.org/2000/svg" xmlns:xlink="http://www.w3.org/1999/xlink" contentStyleType="text/css" height="202px" preserveAspectRatio="none" style="width:231px;height:202px;background:#FFFFFF;" version="1.1" viewBox="0 0 231 202" width="231px" zoomAndPan="magnify"><defs/><g><!--class UIPlantItem--><g id="elem_UIPlantItem"><rect codeLine="1" fill="#F1F1F1" height="80.5938" id="UIPlantItem" rx="2.5" ry="2.5" style="stroke:#181818;stroke-width:0.5;" width="217" x="7" y="115"/><ellipse cx="72.25" cy="131" fill="#ADD1B2" rx="11" ry="11" style="stroke:#181818;stroke-width:1.0;"/><path d="M72.1875,126.8281 Q71.4375,126.8281 70.875,127.125 Q70.3125,127.4063 69.9219,127.9375 Q69.5313,128.4688 69.3281,129.25 Q69.1406,130.0156 69.1406,130.9688 Q69.1406,131.9375 69.3125,132.7031 Q69.5,133.4531 69.8594,133.9688 Q70.2344,134.4844 70.8125,134.7656 Q71.3906,135.0313 72.1875,135.0313 Q72.9219,135.0313 73.6563,134.8594 Q74.4063,134.6875 75.2813,134.3906 L75.2813,136.5469 Q74.875,136.7031 74.4844,136.8281 Q74.0938,136.9375 73.6875,137.0156 Q73.2813,137.0938 72.8594,137.125 Q72.4375,137.1719 71.9375,137.1719 Q70.5313,137.1719 69.5,136.7188 Q68.4844,136.2656 67.8125,135.4531 Q67.1406,134.6406 66.8125,133.5 Q66.4844,132.3438 66.4844,130.9531 Q66.4844,129.5781 66.8594,128.4219 Q67.2344,127.2656 67.9531,126.4375 Q68.6719,125.6094 69.7344,125.1563 Q70.7969,124.6875 72.1875,124.6875 Q73.0938,124.6875 74,124.9219 Q74.9063,125.1406 75.7344,125.5469 L74.9063,127.6406 Q74.2188,127.3125 73.5313,127.0781 Q72.8438,126.8281 72.1875,126.8281 Z " fill="#000000"/><text fill="#000000" font-family="sans-serif" font-size="14" lengthAdjust="spacing" textLength="78" x="92.75" y="135.8467">UIPlantItem</text><line style="stroke:#181818;stroke-width:0.5;" x1="8" x2="223" y1="147" y2="147"/><line style="stroke:#181818;stroke-width:0.5;" x1="8" x2="223" y1="155" y2="155"/><ellipse cx="18" cy="168.6484" fill="#84BE84" rx="3" ry="3" style="stroke:#038048;stroke-width:1.0;"/><text fill="#000000" font-family="sans-serif" font-size="14" lengthAdjust="spacing" textLength="167" x="27" y="171.9951">GetSelectButton() : Button</text><ellipse cx="18" cy="184.9453" fill="#84BE84" rx="3" ry="3" style="stroke:#038048;stroke-width:1.0;"/><text fill="#000000" font-family="sans-serif" font-size="14" lengthAdjust="spacing" textLength="191" x="27" y="188.292">SetStartData(item:Item) : void</text></g><!--class MonoBehaviour--><g id="elem_MonoBehaviour"><rect fill="#F1F1F1" height="48" id="MonoBehaviour" rx="2.5" ry="2.5" style="stroke:#181818;stroke-width:0.5;" width="133" x="49" y="7"/><ellipse cx="64" cy="23" fill="#ADD1B2" rx="11" ry="11" style="stroke:#181818;stroke-width:1.0;"/><path d="M63.9375,18.8281 Q63.1875,18.8281 62.625,19.125 Q62.0625,19.4063 61.6719,19.9375 Q61.2813,20.4688 61.0781,21.25 Q60.8906,22.0156 60.8906,22.9688 Q60.8906,23.9375 61.0625,24.7031 Q61.25,25.4531 61.6094,25.9688 Q61.9844,26.4844 62.5625,26.7656 Q63.1406,27.0313 63.9375,27.0313 Q64.6719,27.0313 65.4063,26.8594 Q66.1563,26.6875 67.0313,26.3906 L67.0313,28.5469 Q66.625,28.7031 66.2344,28.8281 Q65.8438,28.9375 65.4375,29.0156 Q65.0313,29.0938 64.6094,29.125 Q64.1875,29.1719 63.6875,29.1719 Q62.2813,29.1719 61.25,28.7188 Q60.2344,28.2656 59.5625,27.4531 Q58.8906,26.6406 58.5625,25.5 Q58.2344,24.3438 58.2344,22.9531 Q58.2344,21.5781 58.6094,20.4219 Q58.9844,19.2656 59.7031,18.4375 Q60.4219,17.6094 61.4844,17.1563 Q62.5469,16.6875 63.9375,16.6875 Q64.8438,16.6875 65.75,16.9219 Q66.6563,17.1406 67.4844,17.5469 L66.6563,19.6406 Q65.9688,19.3125 65.2813,19.0781 Q64.5938,18.8281 63.9375,18.8281 Z " fill="#000000"/><text fill="#000000" font-family="sans-serif" font-size="14" lengthAdjust="spacing" textLength="101" x="78" y="27.8467">MonoBehaviour</text><line style="stroke:#181818;stroke-width:0.5;" x1="50" x2="181" y1="39" y2="39"/><line style="stroke:#181818;stroke-width:0.5;" x1="50" x2="181" y1="47" y2="47"/></g><!--reverse link MonoBehaviour to UIPlantItem--><g id="link_MonoBehaviour_UIPlantItem"><path codeLine="5" d="M115.5,75.14 C115.5,88 115.5,102.04 115.5,114.69 " fill="none" id="MonoBehaviour-backto-UIPlantItem" style="stroke:#181818;stroke-width:1.0;"/><polygon fill="none" points="108.5,75.04,115.5,55.04,122.5,75.04,108.5,75.04" style="stroke:#181818;stroke-width:1.0;"/></g><!--SRC=[Iyv9B2vM2FKCo4dCA_4iISrLgEPI009j1VVKak3KdDJa4gVIafByF0rD1Ii521Eg81Yee2IngCGbiIHH8nEerGga7wIiB3ypXQkMopS_BzyfDIEnB3E_j4Z1faPN5zaY0000]--></g></svg>