<?xml version="1.0" encoding="us-ascii" standalone="no"?><svg xmlns="http://www.w3.org/2000/svg" xmlns:xlink="http://www.w3.org/1999/xlink" contentStyleType="text/css" height="202px" preserveAspectRatio="none" style="width:133px;height:202px;background:#FFFFFF;" version="1.1" viewBox="0 0 133 202" width="133px" zoomAndPan="magnify"><defs/><g><!--class GravityMove--><g id="elem_GravityMove"><rect codeLine="1" fill="#F1F1F1" height="80.5938" id="GravityMove" rx="2.5" ry="2.5" style="stroke:#181818;stroke-width:0.5;" width="119" x="7" y="115"/><ellipse cx="24.7" cy="131" fill="#ADD1B2" rx="11" ry="11" style="stroke:#181818;stroke-width:1.0;"/><path d="M24.6375,126.8281 Q23.8875,126.8281 23.325,127.125 Q22.7625,127.4063 22.3719,127.9375 Q21.9813,128.4688 21.7781,129.25 Q21.5906,130.0156 21.5906,130.9688 Q21.5906,131.9375 21.7625,132.7031 Q21.95,133.4531 22.3094,133.9688 Q22.6844,134.4844 23.2625,134.7656 Q23.8406,135.0313 24.6375,135.0313 Q25.3719,135.0313 26.1063,134.8594 Q26.8563,134.6875 27.7313,134.3906 L27.7313,136.5469 Q27.325,136.7031 26.9344,136.8281 Q26.5438,136.9375 26.1375,137.0156 Q25.7313,137.0938 25.3094,137.125 Q24.8875,137.1719 24.3875,137.1719 Q22.9813,137.1719 21.95,136.7188 Q20.9344,136.2656 20.2625,135.4531 Q19.5906,134.6406 19.2625,133.5 Q18.9344,132.3438 18.9344,130.9531 Q18.9344,129.5781 19.3094,128.4219 Q19.6844,127.2656 20.4031,126.4375 Q21.1219,125.6094 22.1844,125.1563 Q23.2469,124.6875 24.6375,124.6875 Q25.5438,124.6875 26.45,124.9219 Q27.3563,125.1406 28.1844,125.5469 L27.3563,127.6406 Q26.6688,127.3125 25.9813,127.0781 Q25.2938,126.8281 24.6375,126.8281 Z " fill="#000000"/><text fill="#000000" font-family="sans-serif" font-size="14" lengthAdjust="spacing" textLength="81" x="39.3" y="135.8467">GravityMove</text><line style="stroke:#181818;stroke-width:0.5;" x1="8" x2="125" y1="147" y2="147"/><line style="stroke:#181818;stroke-width:0.5;" x1="8" x2="125" y1="155" y2="155"/><text fill="#000000" font-family="sans-serif" font-size="14" lengthAdjust="spacing" textLength="93" x="27" y="171.9951">Update() : void</text><ellipse cx="18" cy="184.9453" fill="#84BE84" rx="3" ry="3" style="stroke:#038048;stroke-width:1.0;"/><text fill="#000000" font-family="sans-serif" font-size="14" lengthAdjust="spacing" textLength="82" x="27" y="188.292">Move() : void</text></g><!--class IMovement--><g id="elem_IMovement"><rect fill="#F1F1F1" height="48" id="IMovement" rx="2.5" ry="2.5" style="stroke:#181818;stroke-width:0.5;" width="106" x="13.5" y="7"/><ellipse cx="28.5" cy="23" fill="#ADD1B2" rx="11" ry="11" style="stroke:#181818;stroke-width:1.0;"/><path d="M28.4375,18.8281 Q27.6875,18.8281 27.125,19.125 Q26.5625,19.4063 26.1719,19.9375 Q25.7813,20.4688 25.5781,21.25 Q25.3906,22.0156 25.3906,22.9688 Q25.3906,23.9375 25.5625,24.7031 Q25.75,25.4531 26.1094,25.9688 Q26.4844,26.4844 27.0625,26.7656 Q27.6406,27.0313 28.4375,27.0313 Q29.1719,27.0313 29.9063,26.8594 Q30.6563,26.6875 31.5313,26.3906 L31.5313,28.5469 Q31.125,28.7031 30.7344,28.8281 Q30.3438,28.9375 29.9375,29.0156 Q29.5313,29.0938 29.1094,29.125 Q28.6875,29.1719 28.1875,29.1719 Q26.7813,29.1719 25.75,28.7188 Q24.7344,28.2656 24.0625,27.4531 Q23.3906,26.6406 23.0625,25.5 Q22.7344,24.3438 22.7344,22.9531 Q22.7344,21.5781 23.1094,20.4219 Q23.4844,19.2656 24.2031,18.4375 Q24.9219,17.6094 25.9844,17.1563 Q27.0469,16.6875 28.4375,16.6875 Q29.3438,16.6875 30.25,16.9219 Q31.1563,17.1406 31.9844,17.5469 L31.1563,19.6406 Q30.4688,19.3125 29.7813,19.0781 Q29.0938,18.8281 28.4375,18.8281 Z " fill="#000000"/><text fill="#000000" font-family="sans-serif" font-size="14" lengthAdjust="spacing" textLength="74" x="42.5" y="27.8467">IMovement</text><line style="stroke:#181818;stroke-width:0.5;" x1="14.5" x2="118.5" y1="39" y2="39"/><line style="stroke:#181818;stroke-width:0.5;" x1="14.5" x2="118.5" y1="47" y2="47"/></g><!--reverse link IMovement to GravityMove--><g id="link_IMovement_GravityMove"><path codeLine="5" d="M66.5,75.14 C66.5,88 66.5,102.04 66.5,114.69 " fill="none" id="IMovement-backto-GravityMove" style="stroke:#181818;stroke-width:1.0;"/><polygon fill="none" points="59.5,75.04,66.5,55.04,73.5,75.04,59.5,75.04" style="stroke:#181818;stroke-width:1.0;"/></g><!--SRC=[Iyv9B2vMS2zABCiigVJDBqjLgEPI08BGWfJ4abGDJGKhXRByp1ImcBO2I052h9RB4oIGcvfNec1JewkBR0m0]--></g></svg>