<?xml version="1.0" encoding="us-ascii" standalone="no"?><svg xmlns="http://www.w3.org/2000/svg" xmlns:xlink="http://www.w3.org/1999/xlink" contentStyleType="text/css" height="440px" preserveAspectRatio="none" style="width:4393px;height:440px;background:#FFFFFF;" version="1.1" viewBox="0 0 4393 440" width="4393px" zoomAndPan="magnify"><defs/><g><!--class CameraInput--><g id="elem_CameraInput"><rect codeLine="1" fill="#F1F1F1" height="96.8906" id="CameraInput" rx="2.5" ry="2.5" style="stroke:#181818;stroke-width:0.5;" width="353" x="113" y="180"/><ellipse cx="243.75" cy="196" fill="#ADD1B2" rx="11" ry="11" style="stroke:#181818;stroke-width:1.0;"/><path d="M243.6875,191.8281 Q242.9375,191.8281 242.375,192.125 Q241.8125,192.4063 241.4219,192.9375 Q241.0313,193.4688 240.8281,194.25 Q240.6406,195.0156 240.6406,195.9688 Q240.6406,196.9375 240.8125,197.7031 Q241,198.4531 241.3594,198.9688 Q241.7344,199.4844 242.3125,199.7656 Q242.8906,200.0313 243.6875,200.0313 Q244.4219,200.0313 245.1563,199.8594 Q245.9063,199.6875 246.7813,199.3906 L246.7813,201.5469 Q246.375,201.7031 245.9844,201.8281 Q245.5938,201.9375 245.1875,202.0156 Q244.7813,202.0938 244.3594,202.125 Q243.9375,202.1719 243.4375,202.1719 Q242.0313,202.1719 241,201.7188 Q239.9844,201.2656 239.3125,200.4531 Q238.6406,199.6406 238.3125,198.5 Q237.9844,197.3438 237.9844,195.9531 Q237.9844,194.5781 238.3594,193.4219 Q238.7344,192.2656 239.4531,191.4375 Q240.1719,190.6094 241.2344,190.1563 Q242.2969,189.6875 243.6875,189.6875 Q244.5938,189.6875 245.5,189.9219 Q246.4063,190.1406 247.2344,190.5469 L246.4063,192.6406 Q245.7188,192.3125 245.0313,192.0781 Q244.3438,191.8281 243.6875,191.8281 Z " fill="#000000"/><text fill="#000000" font-family="sans-serif" font-size="14" lengthAdjust="spacing" textLength="83" x="264.25" y="200.8467">CameraInput</text><line style="stroke:#181818;stroke-width:0.5;" x1="114" x2="465" y1="212" y2="212"/><line style="stroke:#181818;stroke-width:0.5;" x1="114" x2="465" y1="220" y2="220"/><ellipse cx="124" cy="233.6484" fill="#84BE84" rx="3" ry="3" style="stroke:#038048;stroke-width:1.0;"/><text fill="#000000" font-family="sans-serif" font-size="14" lengthAdjust="spacing" textLength="326" x="133" y="236.9951">OnPointerEnter(eventData:PointerEventData) : void</text><ellipse cx="124" cy="249.9453" fill="#84BE84" rx="3" ry="3" style="stroke:#038048;stroke-width:1.0;"/><text fill="#000000" font-family="sans-serif" font-size="14" lengthAdjust="spacing" textLength="315" x="133" y="253.292">OnPointerExit(eventData:PointerEventData) : void</text><ellipse cx="124" cy="266.2422" fill="#84BE84" rx="3" ry="3" style="stroke:#038048;stroke-width:1.0;"/><text fill="#000000" font-family="sans-serif" font-size="14" lengthAdjust="spacing" textLength="327" x="133" y="269.5889">OnPointerMove(eventData:PointerEventData) : void</text></g><!--class MonoBehaviour--><g id="elem_MonoBehaviour"><rect fill="#F1F1F1" height="48" id="MonoBehaviour" rx="2.5" ry="2.5" style="stroke:#181818;stroke-width:0.5;" width="133" x="1679" y="39.5"/><ellipse cx="1694" cy="55.5" fill="#ADD1B2" rx="11" ry="11" style="stroke:#181818;stroke-width:1.0;"/><path d="M1693.9375,51.3281 Q1693.1875,51.3281 1692.625,51.625 Q1692.0625,51.9063 1691.6719,52.4375 Q1691.2813,52.9688 1691.0781,53.75 Q1690.8906,54.5156 1690.8906,55.4688 Q1690.8906,56.4375 1691.0625,57.2031 Q1691.25,57.9531 1691.6094,58.4688 Q1691.9844,58.9844 1692.5625,59.2656 Q1693.1406,59.5313 1693.9375,59.5313 Q1694.6719,59.5313 1695.4063,59.3594 Q1696.1563,59.1875 1697.0313,58.8906 L1697.0313,61.0469 Q1696.625,61.2031 1696.2344,61.3281 Q1695.8438,61.4375 1695.4375,61.5156 Q1695.0313,61.5938 1694.6094,61.625 Q1694.1875,61.6719 1693.6875,61.6719 Q1692.2813,61.6719 1691.25,61.2188 Q1690.2344,60.7656 1689.5625,59.9531 Q1688.8906,59.1406 1688.5625,58 Q1688.2344,56.8438 1688.2344,55.4531 Q1688.2344,54.0781 1688.6094,52.9219 Q1688.9844,51.7656 1689.7031,50.9375 Q1690.4219,50.1094 1691.4844,49.6563 Q1692.5469,49.1875 1693.9375,49.1875 Q1694.8438,49.1875 1695.75,49.4219 Q1696.6563,49.6406 1697.4844,50.0469 L1696.6563,52.1406 Q1695.9688,51.8125 1695.2813,51.5781 Q1694.5938,51.3281 1693.9375,51.3281 Z " fill="#000000"/><text fill="#000000" font-family="sans-serif" font-size="14" lengthAdjust="spacing" textLength="101" x="1708" y="60.3467">MonoBehaviour</text><line style="stroke:#181818;stroke-width:0.5;" x1="1680" x2="1811" y1="71.5" y2="71.5"/><line style="stroke:#181818;stroke-width:0.5;" x1="1680" x2="1811" y1="79.5" y2="79.5"/></g><!--class IPointerEnterHandler--><g id="elem_IPointerEnterHandler"><rect fill="#F1F1F1" height="48" id="IPointerEnterHandler" rx="2.5" ry="2.5" style="stroke:#181818;stroke-width:0.5;" width="169" x="7" y="39.5"/><ellipse cx="22" cy="55.5" fill="#ADD1B2" rx="11" ry="11" style="stroke:#181818;stroke-width:1.0;"/><path d="M21.9375,51.3281 Q21.1875,51.3281 20.625,51.625 Q20.0625,51.9063 19.6719,52.4375 Q19.2813,52.9688 19.0781,53.75 Q18.8906,54.5156 18.8906,55.4688 Q18.8906,56.4375 19.0625,57.2031 Q19.25,57.9531 19.6094,58.4688 Q19.9844,58.9844 20.5625,59.2656 Q21.1406,59.5313 21.9375,59.5313 Q22.6719,59.5313 23.4063,59.3594 Q24.1563,59.1875 25.0313,58.8906 L25.0313,61.0469 Q24.625,61.2031 24.2344,61.3281 Q23.8438,61.4375 23.4375,61.5156 Q23.0313,61.5938 22.6094,61.625 Q22.1875,61.6719 21.6875,61.6719 Q20.2813,61.6719 19.25,61.2188 Q18.2344,60.7656 17.5625,59.9531 Q16.8906,59.1406 16.5625,58 Q16.2344,56.8438 16.2344,55.4531 Q16.2344,54.0781 16.6094,52.9219 Q16.9844,51.7656 17.7031,50.9375 Q18.4219,50.1094 19.4844,49.6563 Q20.5469,49.1875 21.9375,49.1875 Q22.8438,49.1875 23.75,49.4219 Q24.6563,49.6406 25.4844,50.0469 L24.6563,52.1406 Q23.9688,51.8125 23.2813,51.5781 Q22.5938,51.3281 21.9375,51.3281 Z " fill="#000000"/><text fill="#000000" font-family="sans-serif" font-size="14" lengthAdjust="spacing" textLength="137" x="36" y="60.3467">IPointerEnterHandler</text><line style="stroke:#181818;stroke-width:0.5;" x1="8" x2="175" y1="71.5" y2="71.5"/><line style="stroke:#181818;stroke-width:0.5;" x1="8" x2="175" y1="79.5" y2="79.5"/></g><!--class IPointerExitHandler--><g id="elem_IPointerExitHandler"><rect fill="#F1F1F1" height="48" id="IPointerExitHandler" rx="2.5" ry="2.5" style="stroke:#181818;stroke-width:0.5;" width="158" x="210.5" y="39.5"/><ellipse cx="225.5" cy="55.5" fill="#ADD1B2" rx="11" ry="11" style="stroke:#181818;stroke-width:1.0;"/><path d="M225.4375,51.3281 Q224.6875,51.3281 224.125,51.625 Q223.5625,51.9063 223.1719,52.4375 Q222.7813,52.9688 222.5781,53.75 Q222.3906,54.5156 222.3906,55.4688 Q222.3906,56.4375 222.5625,57.2031 Q222.75,57.9531 223.1094,58.4688 Q223.4844,58.9844 224.0625,59.2656 Q224.6406,59.5313 225.4375,59.5313 Q226.1719,59.5313 226.9063,59.3594 Q227.6563,59.1875 228.5313,58.8906 L228.5313,61.0469 Q228.125,61.2031 227.7344,61.3281 Q227.3438,61.4375 226.9375,61.5156 Q226.5313,61.5938 226.1094,61.625 Q225.6875,61.6719 225.1875,61.6719 Q223.7813,61.6719 222.75,61.2188 Q221.7344,60.7656 221.0625,59.9531 Q220.3906,59.1406 220.0625,58 Q219.7344,56.8438 219.7344,55.4531 Q219.7344,54.0781 220.1094,52.9219 Q220.4844,51.7656 221.2031,50.9375 Q221.9219,50.1094 222.9844,49.6563 Q224.0469,49.1875 225.4375,49.1875 Q226.3438,49.1875 227.25,49.4219 Q228.1563,49.6406 228.9844,50.0469 L228.1563,52.1406 Q227.4688,51.8125 226.7813,51.5781 Q226.0938,51.3281 225.4375,51.3281 Z " fill="#000000"/><text fill="#000000" font-family="sans-serif" font-size="14" lengthAdjust="spacing" textLength="126" x="239.5" y="60.3467">IPointerExitHandler</text><line style="stroke:#181818;stroke-width:0.5;" x1="211.5" x2="367.5" y1="71.5" y2="71.5"/><line style="stroke:#181818;stroke-width:0.5;" x1="211.5" x2="367.5" y1="79.5" y2="79.5"/></g><!--class IPointerMoveHandler--><g id="elem_IPointerMoveHandler"><rect fill="#F1F1F1" height="48" id="IPointerMoveHandler" rx="2.5" ry="2.5" style="stroke:#181818;stroke-width:0.5;" width="170" x="403.5" y="39.5"/><ellipse cx="418.5" cy="55.5" fill="#ADD1B2" rx="11" ry="11" style="stroke:#181818;stroke-width:1.0;"/><path d="M418.4375,51.3281 Q417.6875,51.3281 417.125,51.625 Q416.5625,51.9063 416.1719,52.4375 Q415.7813,52.9688 415.5781,53.75 Q415.3906,54.5156 415.3906,55.4688 Q415.3906,56.4375 415.5625,57.2031 Q415.75,57.9531 416.1094,58.4688 Q416.4844,58.9844 417.0625,59.2656 Q417.6406,59.5313 418.4375,59.5313 Q419.1719,59.5313 419.9063,59.3594 Q420.6563,59.1875 421.5313,58.8906 L421.5313,61.0469 Q421.125,61.2031 420.7344,61.3281 Q420.3438,61.4375 419.9375,61.5156 Q419.5313,61.5938 419.1094,61.625 Q418.6875,61.6719 418.1875,61.6719 Q416.7813,61.6719 415.75,61.2188 Q414.7344,60.7656 414.0625,59.9531 Q413.3906,59.1406 413.0625,58 Q412.7344,56.8438 412.7344,55.4531 Q412.7344,54.0781 413.1094,52.9219 Q413.4844,51.7656 414.2031,50.9375 Q414.9219,50.1094 415.9844,49.6563 Q417.0469,49.1875 418.4375,49.1875 Q419.3438,49.1875 420.25,49.4219 Q421.1563,49.6406 421.9844,50.0469 L421.1563,52.1406 Q420.4688,51.8125 419.7813,51.5781 Q419.0938,51.3281 418.4375,51.3281 Z " fill="#000000"/><text fill="#000000" font-family="sans-serif" font-size="14" lengthAdjust="spacing" textLength="138" x="432.5" y="60.3467">IPointerMoveHandler</text><line style="stroke:#181818;stroke-width:0.5;" x1="404.5" x2="572.5" y1="71.5" y2="71.5"/><line style="stroke:#181818;stroke-width:0.5;" x1="404.5" x2="572.5" y1="79.5" y2="79.5"/></g><!--class PlayerUIInputs--><g id="elem_PlayerUIInputs"><rect codeLine="10" fill="#F1F1F1" height="64.2969" id="PlayerUIInputs" rx="2.5" ry="2.5" style="stroke:#181818;stroke-width:0.5;" width="204" x="2548.5" y="196.5"/><ellipse cx="2598.75" cy="212.5" fill="#ADD1B2" rx="11" ry="11" style="stroke:#181818;stroke-width:1.0;"/><path d="M2598.6875,208.3281 Q2597.9375,208.3281 2597.375,208.625 Q2596.8125,208.9063 2596.4219,209.4375 Q2596.0313,209.9688 2595.8281,210.75 Q2595.6406,211.5156 2595.6406,212.4688 Q2595.6406,213.4375 2595.8125,214.2031 Q2596,214.9531 2596.3594,215.4688 Q2596.7344,215.9844 2597.3125,216.2656 Q2597.8906,216.5313 2598.6875,216.5313 Q2599.4219,216.5313 2600.1563,216.3594 Q2600.9063,216.1875 2601.7813,215.8906 L2601.7813,218.0469 Q2601.375,218.2031 2600.9844,218.3281 Q2600.5938,218.4375 2600.1875,218.5156 Q2599.7813,218.5938 2599.3594,218.625 Q2598.9375,218.6719 2598.4375,218.6719 Q2597.0313,218.6719 2596,218.2188 Q2594.9844,217.7656 2594.3125,216.9531 Q2593.6406,216.1406 2593.3125,215 Q2592.9844,213.8438 2592.9844,212.4531 Q2592.9844,211.0781 2593.3594,209.9219 Q2593.7344,208.7656 2594.4531,207.9375 Q2595.1719,207.1094 2596.2344,206.6563 Q2597.2969,206.1875 2598.6875,206.1875 Q2599.5938,206.1875 2600.5,206.4219 Q2601.4063,206.6406 2602.2344,207.0469 L2601.4063,209.1406 Q2600.7188,208.8125 2600.0313,208.5781 Q2599.3438,208.3281 2598.6875,208.3281 Z " fill="#000000"/><text fill="#000000" font-family="sans-serif" font-size="14" lengthAdjust="spacing" textLength="95" x="2619.25" y="217.3467">PlayerUIInputs</text><line style="stroke:#181818;stroke-width:0.5;" x1="2549.5" x2="2751.5" y1="228.5" y2="228.5"/><line style="stroke:#181818;stroke-width:0.5;" x1="2549.5" x2="2751.5" y1="236.5" y2="236.5"/><ellipse cx="2559.5" cy="250.1484" fill="#84BE84" rx="3" ry="3" style="stroke:#038048;stroke-width:1.0;"/><text fill="#000000" font-family="sans-serif" font-size="14" lengthAdjust="spacing" textLength="178" x="2568.5" y="253.4951">ShopVisibilityChange() : void</text></g><!--class PlayerController--><g id="elem_PlayerController"><rect codeLine="14" fill="#F1F1F1" height="64.2969" id="PlayerController" rx="2.5" ry="2.5" style="stroke:#181818;stroke-width:0.5;" width="239" x="3041" y="196.5"/><ellipse cx="3103.75" cy="212.5" fill="#ADD1B2" rx="11" ry="11" style="stroke:#181818;stroke-width:1.0;"/><path d="M3103.6875,208.3281 Q3102.9375,208.3281 3102.375,208.625 Q3101.8125,208.9063 3101.4219,209.4375 Q3101.0313,209.9688 3100.8281,210.75 Q3100.6406,211.5156 3100.6406,212.4688 Q3100.6406,213.4375 3100.8125,214.2031 Q3101,214.9531 3101.3594,215.4688 Q3101.7344,215.9844 3102.3125,216.2656 Q3102.8906,216.5313 3103.6875,216.5313 Q3104.4219,216.5313 3105.1563,216.3594 Q3105.9063,216.1875 3106.7813,215.8906 L3106.7813,218.0469 Q3106.375,218.2031 3105.9844,218.3281 Q3105.5938,218.4375 3105.1875,218.5156 Q3104.7813,218.5938 3104.3594,218.625 Q3103.9375,218.6719 3103.4375,218.6719 Q3102.0313,218.6719 3101,218.2188 Q3099.9844,217.7656 3099.3125,216.9531 Q3098.6406,216.1406 3098.3125,215 Q3097.9844,213.8438 3097.9844,212.4531 Q3097.9844,211.0781 3098.3594,209.9219 Q3098.7344,208.7656 3099.4531,207.9375 Q3100.1719,207.1094 3101.2344,206.6563 Q3102.2969,206.1875 3103.6875,206.1875 Q3104.5938,206.1875 3105.5,206.4219 Q3106.4063,206.6406 3107.2344,207.0469 L3106.4063,209.1406 Q3105.7188,208.8125 3105.0313,208.5781 Q3104.3438,208.3281 3103.6875,208.3281 Z " fill="#000000"/><text fill="#000000" font-family="sans-serif" font-size="14" lengthAdjust="spacing" textLength="105" x="3124.25" y="217.3467">PlayerController</text><line style="stroke:#181818;stroke-width:0.5;" x1="3042" x2="3279" y1="228.5" y2="228.5"/><line style="stroke:#181818;stroke-width:0.5;" x1="3042" x2="3279" y1="236.5" y2="236.5"/><ellipse cx="3052" cy="250.1484" fill="#84BE84" rx="3" ry="3" style="stroke:#038048;stroke-width:1.0;"/><text fill="#000000" font-family="sans-serif" font-size="14" lengthAdjust="spacing" textLength="213" x="3061" y="253.4951">RotatePlayer(delta:Vector2) : void</text></g><!--class IMovement--><g id="elem_IMovement"><rect codeLine="72" fill="#F1F1F1" height="64.2969" id="IMovement" rx="2.5" ry="2.5" style="stroke:#181818;stroke-width:0.5;" width="106" x="3107.5" y="31.5"/><ellipse cx="3122.5" cy="47.5" fill="#B4A7E5" rx="11" ry="11" style="stroke:#181818;stroke-width:1.0;"/><path d="M3125.0625,53.5 L3119.5469,53.5 L3119.5469,52.0313 L3121.0313,51.3594 L3121.0313,43.5 L3119.5469,42.8281 L3119.5469,41.3594 L3125.0625,41.3594 L3125.0625,42.8281 L3123.5938,43.5 L3123.5938,51.3594 L3125.0625,52.0313 L3125.0625,53.5 Z " fill="#000000"/><text fill="#000000" font-family="sans-serif" font-size="14" font-style="italic" lengthAdjust="spacing" textLength="74" x="3136.5" y="52.3467">IMovement</text><line style="stroke:#181818;stroke-width:0.5;" x1="3108.5" x2="3212.5" y1="63.5" y2="63.5"/><line style="stroke:#181818;stroke-width:0.5;" x1="3108.5" x2="3212.5" y1="71.5" y2="71.5"/><text fill="#000000" font-family="sans-serif" font-size="14" lengthAdjust="spacing" textLength="82" x="3113.5" y="88.4951">Move() : void</text></g><!--class PlayerInputs--><g id="elem_PlayerInputs"><rect codeLine="19" fill="#F1F1F1" height="48" id="PlayerInputs" rx="2.5" ry="2.5" style="stroke:#181818;stroke-width:0.5;" width="112" x="501.5" y="204.5"/><ellipse cx="516.5" cy="220.5" fill="#ADD1B2" rx="11" ry="11" style="stroke:#181818;stroke-width:1.0;"/><path d="M516.4375,216.3281 Q515.6875,216.3281 515.125,216.625 Q514.5625,216.9063 514.1719,217.4375 Q513.7813,217.9688 513.5781,218.75 Q513.3906,219.5156 513.3906,220.4688 Q513.3906,221.4375 513.5625,222.2031 Q513.75,222.9531 514.1094,223.4688 Q514.4844,223.9844 515.0625,224.2656 Q515.6406,224.5313 516.4375,224.5313 Q517.1719,224.5313 517.9063,224.3594 Q518.6563,224.1875 519.5313,223.8906 L519.5313,226.0469 Q519.125,226.2031 518.7344,226.3281 Q518.3438,226.4375 517.9375,226.5156 Q517.5313,226.5938 517.1094,226.625 Q516.6875,226.6719 516.1875,226.6719 Q514.7813,226.6719 513.75,226.2188 Q512.7344,225.7656 512.0625,224.9531 Q511.3906,224.1406 511.0625,223 Q510.7344,221.8438 510.7344,220.4531 Q510.7344,219.0781 511.1094,217.9219 Q511.4844,216.7656 512.2031,215.9375 Q512.9219,215.1094 513.9844,214.6563 Q515.0469,214.1875 516.4375,214.1875 Q517.3438,214.1875 518.25,214.4219 Q519.1563,214.6406 519.9844,215.0469 L519.1563,217.1406 Q518.4688,216.8125 517.7813,216.5781 Q517.0938,216.3281 516.4375,216.3281 Z " fill="#000000"/><text fill="#000000" font-family="sans-serif" font-size="14" lengthAdjust="spacing" textLength="80" x="530.5" y="225.3467">PlayerInputs</text><line style="stroke:#181818;stroke-width:0.5;" x1="502.5" x2="612.5" y1="236.5" y2="236.5"/><line style="stroke:#181818;stroke-width:0.5;" x1="502.5" x2="612.5" y1="244.5" y2="244.5"/></g><!--class Vector2--><g id="elem_Vector2"><rect fill="#F1F1F1" height="48" id="Vector2" rx="2.5" ry="2.5" style="stroke:#181818;stroke-width:0.5;" width="81" x="575" y="361.5"/><ellipse cx="590" cy="377.5" fill="#ADD1B2" rx="11" ry="11" style="stroke:#181818;stroke-width:1.0;"/><path d="M589.9375,373.3281 Q589.1875,373.3281 588.625,373.625 Q588.0625,373.9063 587.6719,374.4375 Q587.2813,374.9688 587.0781,375.75 Q586.8906,376.5156 586.8906,377.4688 Q586.8906,378.4375 587.0625,379.2031 Q587.25,379.9531 587.6094,380.4688 Q587.9844,380.9844 588.5625,381.2656 Q589.1406,381.5313 589.9375,381.5313 Q590.6719,381.5313 591.4063,381.3594 Q592.1563,381.1875 593.0313,380.8906 L593.0313,383.0469 Q592.625,383.2031 592.2344,383.3281 Q591.8438,383.4375 591.4375,383.5156 Q591.0313,383.5938 590.6094,383.625 Q590.1875,383.6719 589.6875,383.6719 Q588.2813,383.6719 587.25,383.2188 Q586.2344,382.7656 585.5625,381.9531 Q584.8906,381.1406 584.5625,380 Q584.2344,378.8438 584.2344,377.4531 Q584.2344,376.0781 584.6094,374.9219 Q584.9844,373.7656 585.7031,372.9375 Q586.4219,372.1094 587.4844,371.6563 Q588.5469,371.1875 589.9375,371.1875 Q590.8438,371.1875 591.75,371.4219 Q592.6563,371.6406 593.4844,372.0469 L592.6563,374.1406 Q591.9688,373.8125 591.2813,373.5781 Q590.5938,373.3281 589.9375,373.3281 Z " fill="#000000"/><text fill="#000000" font-family="sans-serif" font-size="14" lengthAdjust="spacing" textLength="49" x="604" y="382.3467">Vector2</text><line style="stroke:#181818;stroke-width:0.5;" x1="576" x2="655" y1="393.5" y2="393.5"/><line style="stroke:#181818;stroke-width:0.5;" x1="576" x2="655" y1="401.5" y2="401.5"/></g><!--class Camera--><g id="elem_Camera"><rect fill="#F1F1F1" height="48" id="Camera" rx="2.5" ry="2.5" style="stroke:#181818;stroke-width:0.5;" width="81" x="459" y="361.5"/><ellipse cx="474" cy="377.5" fill="#ADD1B2" rx="11" ry="11" style="stroke:#181818;stroke-width:1.0;"/><path d="M473.9375,373.3281 Q473.1875,373.3281 472.625,373.625 Q472.0625,373.9063 471.6719,374.4375 Q471.2813,374.9688 471.0781,375.75 Q470.8906,376.5156 470.8906,377.4688 Q470.8906,378.4375 471.0625,379.2031 Q471.25,379.9531 471.6094,380.4688 Q471.9844,380.9844 472.5625,381.2656 Q473.1406,381.5313 473.9375,381.5313 Q474.6719,381.5313 475.4063,381.3594 Q476.1563,381.1875 477.0313,380.8906 L477.0313,383.0469 Q476.625,383.2031 476.2344,383.3281 Q475.8438,383.4375 475.4375,383.5156 Q475.0313,383.5938 474.6094,383.625 Q474.1875,383.6719 473.6875,383.6719 Q472.2813,383.6719 471.25,383.2188 Q470.2344,382.7656 469.5625,381.9531 Q468.8906,381.1406 468.5625,380 Q468.2344,378.8438 468.2344,377.4531 Q468.2344,376.0781 468.6094,374.9219 Q468.9844,373.7656 469.7031,372.9375 Q470.4219,372.1094 471.4844,371.6563 Q472.5469,371.1875 473.9375,371.1875 Q474.8438,371.1875 475.75,371.4219 Q476.6563,371.6406 477.4844,372.0469 L476.6563,374.1406 Q475.9688,373.8125 475.2813,373.5781 Q474.5938,373.3281 473.9375,373.3281 Z " fill="#000000"/><text fill="#000000" font-family="sans-serif" font-size="14" lengthAdjust="spacing" textLength="49" x="488" y="382.3467">Camera</text><line style="stroke:#181818;stroke-width:0.5;" x1="460" x2="539" y1="393.5" y2="393.5"/><line style="stroke:#181818;stroke-width:0.5;" x1="460" x2="539" y1="401.5" y2="401.5"/></g><!--class GameObjectPlacer--><g id="elem_GameObjectPlacer"><rect codeLine="24" fill="#F1F1F1" height="48" id="GameObjectPlacer" rx="2.5" ry="2.5" style="stroke:#181818;stroke-width:0.5;" width="150" x="648.5" y="204.5"/><ellipse cx="663.5" cy="220.5" fill="#ADD1B2" rx="11" ry="11" style="stroke:#181818;stroke-width:1.0;"/><path d="M663.4375,216.3281 Q662.6875,216.3281 662.125,216.625 Q661.5625,216.9063 661.1719,217.4375 Q660.7813,217.9688 660.5781,218.75 Q660.3906,219.5156 660.3906,220.4688 Q660.3906,221.4375 660.5625,222.2031 Q660.75,222.9531 661.1094,223.4688 Q661.4844,223.9844 662.0625,224.2656 Q662.6406,224.5313 663.4375,224.5313 Q664.1719,224.5313 664.9063,224.3594 Q665.6563,224.1875 666.5313,223.8906 L666.5313,226.0469 Q666.125,226.2031 665.7344,226.3281 Q665.3438,226.4375 664.9375,226.5156 Q664.5313,226.5938 664.1094,226.625 Q663.6875,226.6719 663.1875,226.6719 Q661.7813,226.6719 660.75,226.2188 Q659.7344,225.7656 659.0625,224.9531 Q658.3906,224.1406 658.0625,223 Q657.7344,221.8438 657.7344,220.4531 Q657.7344,219.0781 658.1094,217.9219 Q658.4844,216.7656 659.2031,215.9375 Q659.9219,215.1094 660.9844,214.6563 Q662.0469,214.1875 663.4375,214.1875 Q664.3438,214.1875 665.25,214.4219 Q666.1563,214.6406 666.9844,215.0469 L666.1563,217.1406 Q665.4688,216.8125 664.7813,216.5781 Q664.0938,216.3281 663.4375,216.3281 Z " fill="#000000"/><text fill="#000000" font-family="sans-serif" font-size="14" lengthAdjust="spacing" textLength="118" x="677.5" y="225.3467">GameObjectPlacer</text><line style="stroke:#181818;stroke-width:0.5;" x1="649.5" x2="797.5" y1="236.5" y2="236.5"/><line style="stroke:#181818;stroke-width:0.5;" x1="649.5" x2="797.5" y1="244.5" y2="244.5"/></g><!--class PlantBuildFocus--><g id="elem_PlantBuildFocus"><rect codeLine="27" fill="#F1F1F1" height="64.2969" id="PlantBuildFocus" rx="2.5" ry="2.5" style="stroke:#181818;stroke-width:0.5;" width="413" x="797" y="353.5"/><ellipse cx="949.25" cy="369.5" fill="#ADD1B2" rx="11" ry="11" style="stroke:#181818;stroke-width:1.0;"/><path d="M949.1875,365.3281 Q948.4375,365.3281 947.875,365.625 Q947.3125,365.9063 946.9219,366.4375 Q946.5313,366.9688 946.3281,367.75 Q946.1406,368.5156 946.1406,369.4688 Q946.1406,370.4375 946.3125,371.2031 Q946.5,371.9531 946.8594,372.4688 Q947.2344,372.9844 947.8125,373.2656 Q948.3906,373.5313 949.1875,373.5313 Q949.9219,373.5313 950.6563,373.3594 Q951.4063,373.1875 952.2813,372.8906 L952.2813,375.0469 Q951.875,375.2031 951.4844,375.3281 Q951.0938,375.4375 950.6875,375.5156 Q950.2813,375.5938 949.8594,375.625 Q949.4375,375.6719 948.9375,375.6719 Q947.5313,375.6719 946.5,375.2188 Q945.4844,374.7656 944.8125,373.9531 Q944.1406,373.1406 943.8125,372 Q943.4844,370.8438 943.4844,369.4531 Q943.4844,368.0781 943.8594,366.9219 Q944.2344,365.7656 944.9531,364.9375 Q945.6719,364.1094 946.7344,363.6563 Q947.7969,363.1875 949.1875,363.1875 Q950.0938,363.1875 951,363.4219 Q951.9063,363.6406 952.7344,364.0469 L951.9063,366.1406 Q951.2188,365.8125 950.5313,365.5781 Q949.8438,365.3281 949.1875,365.3281 Z " fill="#000000"/><text fill="#000000" font-family="sans-serif" font-size="14" lengthAdjust="spacing" textLength="100" x="969.75" y="374.3467">PlantBuildFocus</text><line style="stroke:#181818;stroke-width:0.5;" x1="798" x2="1209" y1="385.5" y2="385.5"/><line style="stroke:#181818;stroke-width:0.5;" x1="798" x2="1209" y1="393.5" y2="393.5"/><ellipse cx="808" cy="407.1484" fill="#84BE84" rx="3" ry="3" style="stroke:#038048;stroke-width:1.0;"/><text fill="#000000" font-family="sans-serif" font-size="14" lengthAdjust="spacing" textLength="387" x="817" y="410.4951">&#171;override&#187; GetFocusPlacePos(rayTouchPos:Vector3) : Vector3</text></g><!--class FocusScript--><g id="elem_FocusScript"><rect codeLine="31" fill="#F1F1F1" height="80.5938" id="FocusScript" rx="2.5" ry="2.5" style="stroke:#181818;stroke-width:0.5;" width="340" x="833.5" y="188"/><ellipse cx="963.75" cy="204" fill="#A9DCDF" rx="11" ry="11" style="stroke:#181818;stroke-width:1.0;"/><path d="M966.7031,209 L965.875,206.1094 L961.6875,206.1094 L960.8438,209 L958.25,209 L962.1875,196.8125 L965.3438,196.8125 L969.2969,209 L966.7031,209 Z M965.2656,203.9531 L964.5,201.2969 Q964.4375,201.1406 964.3438,200.8125 Q964.25,200.4688 964.125,200.0625 Q964.0156,199.6406 963.9063,199.2344 Q963.8125,198.8125 963.7813,198.5313 Q963.75,198.7031 963.6875,198.9531 Q963.6406,199.2031 963.5625,199.4844 Q963.5,199.7656 963.4219,200.0469 Q963.3438,200.3281 963.2813,200.5781 Q963.2188,200.8281 963.1563,201.0156 Q963.1094,201.2031 963.0781,201.2969 L962.3125,203.9531 L965.2656,203.9531 Z " fill="#000000"/><text fill="#000000" font-family="sans-serif" font-size="14" font-style="italic" lengthAdjust="spacing" textLength="71" x="984.25" y="208.8467">FocusScript</text><line style="stroke:#181818;stroke-width:0.5;" x1="834.5" x2="1172.5" y1="220" y2="220"/><line style="stroke:#181818;stroke-width:0.5;" x1="834.5" x2="1172.5" y1="228" y2="228"/><ellipse cx="844.5" cy="241.6484" fill="#84BE84" rx="3" ry="3" style="stroke:#038048;stroke-width:1.0;"/><text fill="#000000" font-family="sans-serif" font-size="14" lengthAdjust="spacing" textLength="145" x="853.5" y="244.9951">GetFocusRange() : float</text><ellipse cx="844.5" cy="257.9453" fill="#84BE84" rx="3" ry="3" style="stroke:#038048;stroke-width:1.0;"/><text fill="#000000" font-family="sans-serif" font-size="14" font-style="italic" lengthAdjust="spacing" textLength="314" x="853.5" y="261.292">GetFocusPlacePos(rayTouchPos:Vector3) : Vector3</text></g><!--class StartupScript--><g id="elem_StartupScript"><rect codeLine="36" fill="#F1F1F1" height="48" id="StartupScript" rx="2.5" ry="2.5" style="stroke:#181818;stroke-width:0.5;" width="114" x="1208.5" y="204.5"/><ellipse cx="1223.5" cy="220.5" fill="#ADD1B2" rx="11" ry="11" style="stroke:#181818;stroke-width:1.0;"/><path d="M1223.4375,216.3281 Q1222.6875,216.3281 1222.125,216.625 Q1221.5625,216.9063 1221.1719,217.4375 Q1220.7813,217.9688 1220.5781,218.75 Q1220.3906,219.5156 1220.3906,220.4688 Q1220.3906,221.4375 1220.5625,222.2031 Q1220.75,222.9531 1221.1094,223.4688 Q1221.4844,223.9844 1222.0625,224.2656 Q1222.6406,224.5313 1223.4375,224.5313 Q1224.1719,224.5313 1224.9063,224.3594 Q1225.6563,224.1875 1226.5313,223.8906 L1226.5313,226.0469 Q1226.125,226.2031 1225.7344,226.3281 Q1225.3438,226.4375 1224.9375,226.5156 Q1224.5313,226.5938 1224.1094,226.625 Q1223.6875,226.6719 1223.1875,226.6719 Q1221.7813,226.6719 1220.75,226.2188 Q1219.7344,225.7656 1219.0625,224.9531 Q1218.3906,224.1406 1218.0625,223 Q1217.7344,221.8438 1217.7344,220.4531 Q1217.7344,219.0781 1218.1094,217.9219 Q1218.4844,216.7656 1219.2031,215.9375 Q1219.9219,215.1094 1220.9844,214.6563 Q1222.0469,214.1875 1223.4375,214.1875 Q1224.3438,214.1875 1225.25,214.4219 Q1226.1563,214.6406 1226.9844,215.0469 L1226.1563,217.1406 Q1225.4688,216.8125 1224.7813,216.5781 Q1224.0938,216.3281 1223.4375,216.3281 Z " fill="#000000"/><text fill="#000000" font-family="sans-serif" font-size="14" lengthAdjust="spacing" textLength="82" x="1237.5" y="225.3467">StartupScript</text><line style="stroke:#181818;stroke-width:0.5;" x1="1209.5" x2="1321.5" y1="236.5" y2="236.5"/><line style="stroke:#181818;stroke-width:0.5;" x1="1209.5" x2="1321.5" y1="244.5" y2="244.5"/></g><!--class BuildableObject--><g id="elem_BuildableObject"><rect codeLine="39" fill="#F1F1F1" height="48" id="BuildableObject" rx="2.5" ry="2.5" style="stroke:#181818;stroke-width:0.5;" width="133" x="1358" y="204.5"/><ellipse cx="1373" cy="220.5" fill="#ADD1B2" rx="11" ry="11" style="stroke:#181818;stroke-width:1.0;"/><path d="M1372.9375,216.3281 Q1372.1875,216.3281 1371.625,216.625 Q1371.0625,216.9063 1370.6719,217.4375 Q1370.2813,217.9688 1370.0781,218.75 Q1369.8906,219.5156 1369.8906,220.4688 Q1369.8906,221.4375 1370.0625,222.2031 Q1370.25,222.9531 1370.6094,223.4688 Q1370.9844,223.9844 1371.5625,224.2656 Q1372.1406,224.5313 1372.9375,224.5313 Q1373.6719,224.5313 1374.4063,224.3594 Q1375.1563,224.1875 1376.0313,223.8906 L1376.0313,226.0469 Q1375.625,226.2031 1375.2344,226.3281 Q1374.8438,226.4375 1374.4375,226.5156 Q1374.0313,226.5938 1373.6094,226.625 Q1373.1875,226.6719 1372.6875,226.6719 Q1371.2813,226.6719 1370.25,226.2188 Q1369.2344,225.7656 1368.5625,224.9531 Q1367.8906,224.1406 1367.5625,223 Q1367.2344,221.8438 1367.2344,220.4531 Q1367.2344,219.0781 1367.6094,217.9219 Q1367.9844,216.7656 1368.7031,215.9375 Q1369.4219,215.1094 1370.4844,214.6563 Q1371.5469,214.1875 1372.9375,214.1875 Q1373.8438,214.1875 1374.75,214.4219 Q1375.6563,214.6406 1376.4844,215.0469 L1375.6563,217.1406 Q1374.9688,216.8125 1374.2813,216.5781 Q1373.5938,216.3281 1372.9375,216.3281 Z " fill="#000000"/><text fill="#000000" font-family="sans-serif" font-size="14" lengthAdjust="spacing" textLength="101" x="1387" y="225.3467">BuildableObject</text><line style="stroke:#181818;stroke-width:0.5;" x1="1359" x2="1490" y1="236.5" y2="236.5"/><line style="stroke:#181818;stroke-width:0.5;" x1="1359" x2="1490" y1="244.5" y2="244.5"/></g><!--class ShopUIModel--><g id="elem_ShopUIModel"><rect codeLine="42" fill="#F1F1F1" height="80.5938" id="ShopUIModel" rx="2.5" ry="2.5" style="stroke:#181818;stroke-width:0.5;" width="302" x="3469.5" y="188"/><ellipse cx="3573.25" cy="204" fill="#ADD1B2" rx="11" ry="11" style="stroke:#181818;stroke-width:1.0;"/><path d="M3573.1875,199.8281 Q3572.4375,199.8281 3571.875,200.125 Q3571.3125,200.4063 3570.9219,200.9375 Q3570.5313,201.4688 3570.3281,202.25 Q3570.1406,203.0156 3570.1406,203.9688 Q3570.1406,204.9375 3570.3125,205.7031 Q3570.5,206.4531 3570.8594,206.9688 Q3571.2344,207.4844 3571.8125,207.7656 Q3572.3906,208.0313 3573.1875,208.0313 Q3573.9219,208.0313 3574.6563,207.8594 Q3575.4063,207.6875 3576.2813,207.3906 L3576.2813,209.5469 Q3575.875,209.7031 3575.4844,209.8281 Q3575.0938,209.9375 3574.6875,210.0156 Q3574.2813,210.0938 3573.8594,210.125 Q3573.4375,210.1719 3572.9375,210.1719 Q3571.5313,210.1719 3570.5,209.7188 Q3569.4844,209.2656 3568.8125,208.4531 Q3568.1406,207.6406 3567.8125,206.5 Q3567.4844,205.3438 3567.4844,203.9531 Q3567.4844,202.5781 3567.8594,201.4219 Q3568.2344,200.2656 3568.9531,199.4375 Q3569.6719,198.6094 3570.7344,198.1563 Q3571.7969,197.6875 3573.1875,197.6875 Q3574.0938,197.6875 3575,197.9219 Q3575.9063,198.1406 3576.7344,198.5469 L3575.9063,200.6406 Q3575.2188,200.3125 3574.5313,200.0781 Q3573.8438,199.8281 3573.1875,199.8281 Z " fill="#000000"/><text fill="#000000" font-family="sans-serif" font-size="14" lengthAdjust="spacing" textLength="86" x="3593.75" y="208.8467">ShopUIModel</text><line style="stroke:#181818;stroke-width:0.5;" x1="3470.5" x2="3770.5" y1="220" y2="220"/><ellipse cx="3480.5" cy="233.6484" fill="none" rx="3" ry="3" style="stroke:#038048;stroke-width:1.0;"/><text fill="#000000" font-family="sans-serif" font-size="14" lengthAdjust="spacing" textLength="212" x="3489.5" y="236.9951">&#171;event&#187; plantsListChange : Action</text><line style="stroke:#181818;stroke-width:0.5;" x1="3470.5" x2="3770.5" y1="244.2969" y2="244.2969"/><ellipse cx="3480.5" cy="257.9453" fill="#84BE84" rx="3" ry="3" style="stroke:#038048;stroke-width:1.0;"/><text fill="#000000" font-family="sans-serif" font-size="14" lengthAdjust="spacing" textLength="276" x="3489.5" y="261.292">ShopUIModel(view:View, plants:List&lt;Item&gt;)</text></g><!--class List`1--><g id="elem_List`1"><rect codeLine="46" fill="#F1F1F1" height="48" id="List`1" rx="2.5" ry="2.5" style="stroke:#181818;stroke-width:0.5;" width="80" x="3580.5" y="361.5"/><ellipse cx="3595.5" cy="377.5" fill="#ADD1B2" rx="11" ry="11" style="stroke:#181818;stroke-width:1.0;"/><path d="M3595.4375,373.3281 Q3594.6875,373.3281 3594.125,373.625 Q3593.5625,373.9063 3593.1719,374.4375 Q3592.7813,374.9688 3592.5781,375.75 Q3592.3906,376.5156 3592.3906,377.4688 Q3592.3906,378.4375 3592.5625,379.2031 Q3592.75,379.9531 3593.1094,380.4688 Q3593.4844,380.9844 3594.0625,381.2656 Q3594.6406,381.5313 3595.4375,381.5313 Q3596.1719,381.5313 3596.9063,381.3594 Q3597.6563,381.1875 3598.5313,380.8906 L3598.5313,383.0469 Q3598.125,383.2031 3597.7344,383.3281 Q3597.3438,383.4375 3596.9375,383.5156 Q3596.5313,383.5938 3596.1094,383.625 Q3595.6875,383.6719 3595.1875,383.6719 Q3593.7813,383.6719 3592.75,383.2188 Q3591.7344,382.7656 3591.0625,381.9531 Q3590.3906,381.1406 3590.0625,380 Q3589.7344,378.8438 3589.7344,377.4531 Q3589.7344,376.0781 3590.1094,374.9219 Q3590.4844,373.7656 3591.2031,372.9375 Q3591.9219,372.1094 3592.9844,371.6563 Q3594.0469,371.1875 3595.4375,371.1875 Q3596.3438,371.1875 3597.25,371.4219 Q3598.1563,371.6406 3598.9844,372.0469 L3598.1563,374.1406 Q3597.4688,373.8125 3596.7813,373.5781 Q3596.0938,373.3281 3595.4375,373.3281 Z " fill="#000000"/><text fill="#000000" font-family="sans-serif" font-size="14" lengthAdjust="spacing" textLength="38" x="3609.5" y="382.3467">List`1</text><rect fill="#FFFFFF" height="15.9688" style="stroke:#181818;stroke-width:1.0;stroke-dasharray:2.0,2.0;" width="8" x="3655.5" y="358.5"/><text fill="#000000" font-family="sans-serif" font-size="12" font-style="italic" lengthAdjust="spacing" textLength="6" x="3656.5" y="370.6387">T</text><line style="stroke:#181818;stroke-width:0.5;" x1="3581.5" x2="3659.5" y1="393.5" y2="393.5"/><line style="stroke:#181818;stroke-width:0.5;" x1="3581.5" x2="3659.5" y1="401.5" y2="401.5"/></g><!--class Model--><g id="elem_Model"><rect codeLine="50" fill="#F1F1F1" height="64.2969" id="Model" rx="2.5" ry="2.5" style="stroke:#181818;stroke-width:0.5;" width="137" x="3552" y="31.5"/><ellipse cx="3596.25" cy="47.5" fill="#A9DCDF" rx="11" ry="11" style="stroke:#181818;stroke-width:1.0;"/><path d="M3599.2031,52.5 L3598.375,49.6094 L3594.1875,49.6094 L3593.3438,52.5 L3590.75,52.5 L3594.6875,40.3125 L3597.8438,40.3125 L3601.7969,52.5 L3599.2031,52.5 Z M3597.7656,47.4531 L3597,44.7969 Q3596.9375,44.6406 3596.8438,44.3125 Q3596.75,43.9688 3596.625,43.5625 Q3596.5156,43.1406 3596.4063,42.7344 Q3596.3125,42.3125 3596.2813,42.0313 Q3596.25,42.2031 3596.1875,42.4531 Q3596.1406,42.7031 3596.0625,42.9844 Q3596,43.2656 3595.9219,43.5469 Q3595.8438,43.8281 3595.7813,44.0781 Q3595.7188,44.3281 3595.6563,44.5156 Q3595.6094,44.7031 3595.5781,44.7969 L3594.8125,47.4531 L3597.7656,47.4531 Z " fill="#000000"/><text fill="#000000" font-family="sans-serif" font-size="14" font-style="italic" lengthAdjust="spacing" textLength="40" x="3616.75" y="52.3467">Model</text><line style="stroke:#181818;stroke-width:0.5;" x1="3553" x2="3688" y1="63.5" y2="63.5"/><line style="stroke:#181818;stroke-width:0.5;" x1="3553" x2="3688" y1="71.5" y2="71.5"/><ellipse cx="3563" cy="85.1484" fill="#84BE84" rx="3" ry="3" style="stroke:#038048;stroke-width:1.0;"/><text fill="#000000" font-family="sans-serif" font-size="14" lengthAdjust="spacing" textLength="111" x="3572" y="88.4951">Model(view:View)</text></g><!--class ShopUIVIew--><g id="elem_ShopUIVIew"><rect codeLine="53" fill="#F1F1F1" height="96.8906" id="ShopUIVIew" rx="2.5" ry="2.5" style="stroke:#181818;stroke-width:0.5;" width="305" x="1366" y="337"/><ellipse cx="1475.75" cy="353" fill="#ADD1B2" rx="11" ry="11" style="stroke:#181818;stroke-width:1.0;"/><path d="M1475.6875,348.8281 Q1474.9375,348.8281 1474.375,349.125 Q1473.8125,349.4063 1473.4219,349.9375 Q1473.0313,350.4688 1472.8281,351.25 Q1472.6406,352.0156 1472.6406,352.9688 Q1472.6406,353.9375 1472.8125,354.7031 Q1473,355.4531 1473.3594,355.9688 Q1473.7344,356.4844 1474.3125,356.7656 Q1474.8906,357.0313 1475.6875,357.0313 Q1476.4219,357.0313 1477.1563,356.8594 Q1477.9063,356.6875 1478.7813,356.3906 L1478.7813,358.5469 Q1478.375,358.7031 1477.9844,358.8281 Q1477.5938,358.9375 1477.1875,359.0156 Q1476.7813,359.0938 1476.3594,359.125 Q1475.9375,359.1719 1475.4375,359.1719 Q1474.0313,359.1719 1473,358.7188 Q1471.9844,358.2656 1471.3125,357.4531 Q1470.6406,356.6406 1470.3125,355.5 Q1469.9844,354.3438 1469.9844,352.9531 Q1469.9844,351.5781 1470.3594,350.4219 Q1470.7344,349.2656 1471.4531,348.4375 Q1472.1719,347.6094 1473.2344,347.1563 Q1474.2969,346.6875 1475.6875,346.6875 Q1476.5938,346.6875 1477.5,346.9219 Q1478.4063,347.1406 1479.2344,347.5469 L1478.4063,349.6406 Q1477.7188,349.3125 1477.0313,349.0781 Q1476.3438,348.8281 1475.6875,348.8281 Z " fill="#000000"/><text fill="#000000" font-family="sans-serif" font-size="14" lengthAdjust="spacing" textLength="77" x="1496.25" y="357.8467">ShopUIVIew</text><line style="stroke:#181818;stroke-width:0.5;" x1="1367" x2="1670" y1="369" y2="369"/><line style="stroke:#181818;stroke-width:0.5;" x1="1367" x2="1670" y1="377" y2="377"/><ellipse cx="1377" cy="390.6484" fill="#84BE84" rx="3" ry="3" style="stroke:#038048;stroke-width:1.0;"/><text fill="#000000" font-family="sans-serif" font-size="14" lengthAdjust="spacing" textLength="272" x="1386" y="393.9951">&#171;override&#187; Init(presenter:Presenter) : void</text><ellipse cx="1377" cy="406.9453" fill="#84BE84" rx="3" ry="3" style="stroke:#038048;stroke-width:1.0;"/><text fill="#000000" font-family="sans-serif" font-size="14" lengthAdjust="spacing" textLength="279" x="1386" y="410.292">InitializeShopItems(items:List&lt;Item&gt;) : void</text><ellipse cx="1377" cy="423.2422" fill="#84BE84" rx="3" ry="3" style="stroke:#038048;stroke-width:1.0;"/><text fill="#000000" font-family="sans-serif" font-size="14" lengthAdjust="spacing" textLength="146" x="1386" y="426.5889">UpdateShopList() : void</text></g><!--class View--><g id="elem_View"><rect codeLine="63" fill="#F1F1F1" height="64.2969" id="View" rx="2.5" ry="2.5" style="stroke:#181818;stroke-width:0.5;" width="225" x="1526" y="196.5"/><ellipse cx="1619.25" cy="212.5" fill="#A9DCDF" rx="11" ry="11" style="stroke:#181818;stroke-width:1.0;"/><path d="M1622.2031,217.5 L1621.375,214.6094 L1617.1875,214.6094 L1616.3438,217.5 L1613.75,217.5 L1617.6875,205.3125 L1620.8438,205.3125 L1624.7969,217.5 L1622.2031,217.5 Z M1620.7656,212.4531 L1620,209.7969 Q1619.9375,209.6406 1619.8438,209.3125 Q1619.75,208.9688 1619.625,208.5625 Q1619.5156,208.1406 1619.4063,207.7344 Q1619.3125,207.3125 1619.2813,207.0313 Q1619.25,207.2031 1619.1875,207.4531 Q1619.1406,207.7031 1619.0625,207.9844 Q1619,208.2656 1618.9219,208.5469 Q1618.8438,208.8281 1618.7813,209.0781 Q1618.7188,209.3281 1618.6563,209.5156 Q1618.6094,209.7031 1618.5781,209.7969 L1617.8125,212.4531 L1620.7656,212.4531 Z " fill="#000000"/><text fill="#000000" font-family="sans-serif" font-size="14" font-style="italic" lengthAdjust="spacing" textLength="30" x="1639.75" y="217.3467">View</text><line style="stroke:#181818;stroke-width:0.5;" x1="1527" x2="1750" y1="228.5" y2="228.5"/><line style="stroke:#181818;stroke-width:0.5;" x1="1527" x2="1750" y1="236.5" y2="236.5"/><ellipse cx="1537" cy="250.1484" fill="#84BE84" rx="3" ry="3" style="stroke:#038048;stroke-width:1.0;"/><text fill="#000000" font-family="sans-serif" font-size="14" font-style="italic" lengthAdjust="spacing" textLength="199" x="1546" y="253.4951">Init(presenter:Presenter) : void</text></g><!--class PlayerCharacterView--><g id="elem_PlayerCharacterView"><rect codeLine="59" fill="#F1F1F1" height="64.2969" id="PlayerCharacterView" rx="2.5" ry="2.5" style="stroke:#181818;stroke-width:0.5;" width="298" x="1706.5" y="353.5"/><ellipse cx="1785.75" cy="369.5" fill="#ADD1B2" rx="11" ry="11" style="stroke:#181818;stroke-width:1.0;"/><path d="M1785.6875,365.3281 Q1784.9375,365.3281 1784.375,365.625 Q1783.8125,365.9063 1783.4219,366.4375 Q1783.0313,366.9688 1782.8281,367.75 Q1782.6406,368.5156 1782.6406,369.4688 Q1782.6406,370.4375 1782.8125,371.2031 Q1783,371.9531 1783.3594,372.4688 Q1783.7344,372.9844 1784.3125,373.2656 Q1784.8906,373.5313 1785.6875,373.5313 Q1786.4219,373.5313 1787.1563,373.3594 Q1787.9063,373.1875 1788.7813,372.8906 L1788.7813,375.0469 Q1788.375,375.2031 1787.9844,375.3281 Q1787.5938,375.4375 1787.1875,375.5156 Q1786.7813,375.5938 1786.3594,375.625 Q1785.9375,375.6719 1785.4375,375.6719 Q1784.0313,375.6719 1783,375.2188 Q1781.9844,374.7656 1781.3125,373.9531 Q1780.6406,373.1406 1780.3125,372 Q1779.9844,370.8438 1779.9844,369.4531 Q1779.9844,368.0781 1780.3594,366.9219 Q1780.7344,365.7656 1781.4531,364.9375 Q1782.1719,364.1094 1783.2344,363.6563 Q1784.2969,363.1875 1785.6875,363.1875 Q1786.5938,363.1875 1787.5,363.4219 Q1788.4063,363.6406 1789.2344,364.0469 L1788.4063,366.1406 Q1787.7188,365.8125 1787.0313,365.5781 Q1786.3438,365.3281 1785.6875,365.3281 Z " fill="#000000"/><text fill="#000000" font-family="sans-serif" font-size="14" lengthAdjust="spacing" textLength="131" x="1806.25" y="374.3467">PlayerCharacterView</text><line style="stroke:#181818;stroke-width:0.5;" x1="1707.5" x2="2003.5" y1="385.5" y2="385.5"/><line style="stroke:#181818;stroke-width:0.5;" x1="1707.5" x2="2003.5" y1="393.5" y2="393.5"/><ellipse cx="1717.5" cy="407.1484" fill="#84BE84" rx="3" ry="3" style="stroke:#038048;stroke-width:1.0;"/><text fill="#000000" font-family="sans-serif" font-size="14" lengthAdjust="spacing" textLength="272" x="1726.5" y="410.4951">&#171;override&#187; Init(presenter:Presenter) : void</text></g><!--class PlantPlaceMove--><g id="elem_PlantPlaceMove"><rect codeLine="67" fill="#F1F1F1" height="80.5938" id="PlantPlaceMove" rx="2.5" ry="2.5" style="stroke:#181818;stroke-width:0.5;" width="132" x="1786.5" y="188"/><ellipse cx="1801.5" cy="204" fill="#ADD1B2" rx="11" ry="11" style="stroke:#181818;stroke-width:1.0;"/><path d="M1801.4375,199.8281 Q1800.6875,199.8281 1800.125,200.125 Q1799.5625,200.4063 1799.1719,200.9375 Q1798.7813,201.4688 1798.5781,202.25 Q1798.3906,203.0156 1798.3906,203.9688 Q1798.3906,204.9375 1798.5625,205.7031 Q1798.75,206.4531 1799.1094,206.9688 Q1799.4844,207.4844 1800.0625,207.7656 Q1800.6406,208.0313 1801.4375,208.0313 Q1802.1719,208.0313 1802.9063,207.8594 Q1803.6563,207.6875 1804.5313,207.3906 L1804.5313,209.5469 Q1804.125,209.7031 1803.7344,209.8281 Q1803.3438,209.9375 1802.9375,210.0156 Q1802.5313,210.0938 1802.1094,210.125 Q1801.6875,210.1719 1801.1875,210.1719 Q1799.7813,210.1719 1798.75,209.7188 Q1797.7344,209.2656 1797.0625,208.4531 Q1796.3906,207.6406 1796.0625,206.5 Q1795.7344,205.3438 1795.7344,203.9531 Q1795.7344,202.5781 1796.1094,201.4219 Q1796.4844,200.2656 1797.2031,199.4375 Q1797.9219,198.6094 1798.9844,198.1563 Q1800.0469,197.6875 1801.4375,197.6875 Q1802.3438,197.6875 1803.25,197.9219 Q1804.1563,198.1406 1804.9844,198.5469 L1804.1563,200.6406 Q1803.4688,200.3125 1802.7813,200.0781 Q1802.0938,199.8281 1801.4375,199.8281 Z " fill="#000000"/><text fill="#000000" font-family="sans-serif" font-size="14" lengthAdjust="spacing" textLength="100" x="1815.5" y="208.8467">PlantPlaceMove</text><line style="stroke:#181818;stroke-width:0.5;" x1="1787.5" x2="1917.5" y1="220" y2="220"/><line style="stroke:#181818;stroke-width:0.5;" x1="1787.5" x2="1917.5" y1="228" y2="228"/><text fill="#000000" font-family="sans-serif" font-size="14" lengthAdjust="spacing" textLength="77" x="1792.5" y="244.9951">Start() : void</text><text fill="#000000" font-family="sans-serif" font-size="14" lengthAdjust="spacing" textLength="93" x="1792.5" y="261.292">Update() : void</text></g><!--class CharacterControllerMove--><g id="elem_CharacterControllerMove"><rect codeLine="75" fill="#F1F1F1" height="64.2969" id="CharacterControllerMove" rx="2.5" ry="2.5" style="stroke:#181818;stroke-width:0.5;" width="218" x="2787.5" y="196.5"/><ellipse cx="2813.75" cy="212.5" fill="#ADD1B2" rx="11" ry="11" style="stroke:#181818;stroke-width:1.0;"/><path d="M2813.6875,208.3281 Q2812.9375,208.3281 2812.375,208.625 Q2811.8125,208.9063 2811.4219,209.4375 Q2811.0313,209.9688 2810.8281,210.75 Q2810.6406,211.5156 2810.6406,212.4688 Q2810.6406,213.4375 2810.8125,214.2031 Q2811,214.9531 2811.3594,215.4688 Q2811.7344,215.9844 2812.3125,216.2656 Q2812.8906,216.5313 2813.6875,216.5313 Q2814.4219,216.5313 2815.1563,216.3594 Q2815.9063,216.1875 2816.7813,215.8906 L2816.7813,218.0469 Q2816.375,218.2031 2815.9844,218.3281 Q2815.5938,218.4375 2815.1875,218.5156 Q2814.7813,218.5938 2814.3594,218.625 Q2813.9375,218.6719 2813.4375,218.6719 Q2812.0313,218.6719 2811,218.2188 Q2809.9844,217.7656 2809.3125,216.9531 Q2808.6406,216.1406 2808.3125,215 Q2807.9844,213.8438 2807.9844,212.4531 Q2807.9844,211.0781 2808.3594,209.9219 Q2808.7344,208.7656 2809.4531,207.9375 Q2810.1719,207.1094 2811.2344,206.6563 Q2812.2969,206.1875 2813.6875,206.1875 Q2814.5938,206.1875 2815.5,206.4219 Q2816.4063,206.6406 2817.2344,207.0469 L2816.4063,209.1406 Q2815.7188,208.8125 2815.0313,208.5781 Q2814.3438,208.3281 2813.6875,208.3281 Z " fill="#000000"/><text fill="#000000" font-family="sans-serif" font-size="14" lengthAdjust="spacing" textLength="161" x="2830.25" y="217.3467">CharacterControllerMove</text><line style="stroke:#181818;stroke-width:0.5;" x1="2788.5" x2="3004.5" y1="228.5" y2="228.5"/><line style="stroke:#181818;stroke-width:0.5;" x1="2788.5" x2="3004.5" y1="236.5" y2="236.5"/><ellipse cx="2798.5" cy="250.1484" fill="#84BE84" rx="3" ry="3" style="stroke:#038048;stroke-width:1.0;"/><text fill="#000000" font-family="sans-serif" font-size="14" lengthAdjust="spacing" textLength="192" x="2807.5" y="253.4951">Move(direction:Vector3) : void</text></g><!--class GravityMove--><g id="elem_GravityMove"><rect codeLine="80" fill="#F1F1F1" height="80.5938" id="GravityMove" rx="2.5" ry="2.5" style="stroke:#181818;stroke-width:0.5;" width="119" x="3315" y="188"/><ellipse cx="3332.7" cy="204" fill="#ADD1B2" rx="11" ry="11" style="stroke:#181818;stroke-width:1.0;"/><path d="M3332.6375,199.8281 Q3331.8875,199.8281 3331.325,200.125 Q3330.7625,200.4063 3330.3719,200.9375 Q3329.9813,201.4688 3329.7781,202.25 Q3329.5906,203.0156 3329.5906,203.9688 Q3329.5906,204.9375 3329.7625,205.7031 Q3329.95,206.4531 3330.3094,206.9688 Q3330.6844,207.4844 3331.2625,207.7656 Q3331.8406,208.0313 3332.6375,208.0313 Q3333.3719,208.0313 3334.1063,207.8594 Q3334.8563,207.6875 3335.7313,207.3906 L3335.7313,209.5469 Q3335.325,209.7031 3334.9344,209.8281 Q3334.5438,209.9375 3334.1375,210.0156 Q3333.7313,210.0938 3333.3094,210.125 Q3332.8875,210.1719 3332.3875,210.1719 Q3330.9813,210.1719 3329.95,209.7188 Q3328.9344,209.2656 3328.2625,208.4531 Q3327.5906,207.6406 3327.2625,206.5 Q3326.9344,205.3438 3326.9344,203.9531 Q3326.9344,202.5781 3327.3094,201.4219 Q3327.6844,200.2656 3328.4031,199.4375 Q3329.1219,198.6094 3330.1844,198.1563 Q3331.2469,197.6875 3332.6375,197.6875 Q3333.5438,197.6875 3334.45,197.9219 Q3335.3563,198.1406 3336.1844,198.5469 L3335.3563,200.6406 Q3334.6688,200.3125 3333.9813,200.0781 Q3333.2938,199.8281 3332.6375,199.8281 Z " fill="#000000"/><text fill="#000000" font-family="sans-serif" font-size="14" lengthAdjust="spacing" textLength="81" x="3347.3" y="208.8467">GravityMove</text><line style="stroke:#181818;stroke-width:0.5;" x1="3316" x2="3433" y1="220" y2="220"/><line style="stroke:#181818;stroke-width:0.5;" x1="3316" x2="3433" y1="228" y2="228"/><text fill="#000000" font-family="sans-serif" font-size="14" lengthAdjust="spacing" textLength="93" x="3335" y="244.9951">Update() : void</text><ellipse cx="3326" cy="257.9453" fill="#84BE84" rx="3" ry="3" style="stroke:#038048;stroke-width:1.0;"/><text fill="#000000" font-family="sans-serif" font-size="14" lengthAdjust="spacing" textLength="82" x="3335" y="261.292">Move() : void</text></g><!--class UIPlantItem--><g id="elem_UIPlantItem"><rect codeLine="85" fill="#F1F1F1" height="80.5938" id="UIPlantItem" rx="2.5" ry="2.5" style="stroke:#181818;stroke-width:0.5;" width="217" x="1954" y="188"/><ellipse cx="2019.25" cy="204" fill="#ADD1B2" rx="11" ry="11" style="stroke:#181818;stroke-width:1.0;"/><path d="M2019.1875,199.8281 Q2018.4375,199.8281 2017.875,200.125 Q2017.3125,200.4063 2016.9219,200.9375 Q2016.5313,201.4688 2016.3281,202.25 Q2016.1406,203.0156 2016.1406,203.9688 Q2016.1406,204.9375 2016.3125,205.7031 Q2016.5,206.4531 2016.8594,206.9688 Q2017.2344,207.4844 2017.8125,207.7656 Q2018.3906,208.0313 2019.1875,208.0313 Q2019.9219,208.0313 2020.6563,207.8594 Q2021.4063,207.6875 2022.2813,207.3906 L2022.2813,209.5469 Q2021.875,209.7031 2021.4844,209.8281 Q2021.0938,209.9375 2020.6875,210.0156 Q2020.2813,210.0938 2019.8594,210.125 Q2019.4375,210.1719 2018.9375,210.1719 Q2017.5313,210.1719 2016.5,209.7188 Q2015.4844,209.2656 2014.8125,208.4531 Q2014.1406,207.6406 2013.8125,206.5 Q2013.4844,205.3438 2013.4844,203.9531 Q2013.4844,202.5781 2013.8594,201.4219 Q2014.2344,200.2656 2014.9531,199.4375 Q2015.6719,198.6094 2016.7344,198.1563 Q2017.7969,197.6875 2019.1875,197.6875 Q2020.0938,197.6875 2021,197.9219 Q2021.9063,198.1406 2022.7344,198.5469 L2021.9063,200.6406 Q2021.2188,200.3125 2020.5313,200.0781 Q2019.8438,199.8281 2019.1875,199.8281 Z " fill="#000000"/><text fill="#000000" font-family="sans-serif" font-size="14" lengthAdjust="spacing" textLength="78" x="2039.75" y="208.8467">UIPlantItem</text><line style="stroke:#181818;stroke-width:0.5;" x1="1955" x2="2170" y1="220" y2="220"/><line style="stroke:#181818;stroke-width:0.5;" x1="1955" x2="2170" y1="228" y2="228"/><ellipse cx="1965" cy="241.6484" fill="#84BE84" rx="3" ry="3" style="stroke:#038048;stroke-width:1.0;"/><text fill="#000000" font-family="sans-serif" font-size="14" lengthAdjust="spacing" textLength="167" x="1974" y="244.9951">GetSelectButton() : Button</text><ellipse cx="1965" cy="257.9453" fill="#84BE84" rx="3" ry="3" style="stroke:#038048;stroke-width:1.0;"/><text fill="#000000" font-family="sans-serif" font-size="14" lengthAdjust="spacing" textLength="191" x="1974" y="261.292">SetStartData(item:Item) : void</text></g><!--class PlantItem--><g id="elem_PlantItem"><rect codeLine="90" fill="#F1F1F1" height="80.5938" id="PlantItem" rx="2.5" ry="2.5" style="stroke:#181818;stroke-width:0.5;" width="228" x="3781.5" y="345"/><ellipse cx="3859.75" cy="361" fill="#ADD1B2" rx="11" ry="11" style="stroke:#181818;stroke-width:1.0;"/><path d="M3859.6875,356.8281 Q3858.9375,356.8281 3858.375,357.125 Q3857.8125,357.4063 3857.4219,357.9375 Q3857.0313,358.4688 3856.8281,359.25 Q3856.6406,360.0156 3856.6406,360.9688 Q3856.6406,361.9375 3856.8125,362.7031 Q3857,363.4531 3857.3594,363.9688 Q3857.7344,364.4844 3858.3125,364.7656 Q3858.8906,365.0313 3859.6875,365.0313 Q3860.4219,365.0313 3861.1563,364.8594 Q3861.9063,364.6875 3862.7813,364.3906 L3862.7813,366.5469 Q3862.375,366.7031 3861.9844,366.8281 Q3861.5938,366.9375 3861.1875,367.0156 Q3860.7813,367.0938 3860.3594,367.125 Q3859.9375,367.1719 3859.4375,367.1719 Q3858.0313,367.1719 3857,366.7188 Q3855.9844,366.2656 3855.3125,365.4531 Q3854.6406,364.6406 3854.3125,363.5 Q3853.9844,362.3438 3853.9844,360.9531 Q3853.9844,359.5781 3854.3594,358.4219 Q3854.7344,357.2656 3855.4531,356.4375 Q3856.1719,355.6094 3857.2344,355.1563 Q3858.2969,354.6875 3859.6875,354.6875 Q3860.5938,354.6875 3861.5,354.9219 Q3862.4063,355.1406 3863.2344,355.5469 L3862.4063,357.6406 Q3861.7188,357.3125 3861.0313,357.0781 Q3860.3438,356.8281 3859.6875,356.8281 Z " fill="#000000"/><text fill="#000000" font-family="sans-serif" font-size="14" lengthAdjust="spacing" textLength="63" x="3880.25" y="365.8467">PlantItem</text><line style="stroke:#181818;stroke-width:0.5;" x1="3782.5" x2="4008.5" y1="377" y2="377"/><line style="stroke:#181818;stroke-width:0.5;" x1="3782.5" x2="4008.5" y1="385" y2="385"/><ellipse cx="3792.5" cy="398.6484" fill="#84BE84" rx="3" ry="3" style="stroke:#038048;stroke-width:1.0;"/><text fill="#000000" font-family="sans-serif" font-size="14" lengthAdjust="spacing" textLength="131" x="3801.5" y="401.9951">GetSeason() : Season</text><ellipse cx="3792.5" cy="414.9453" fill="#84BE84" rx="3" ry="3" style="stroke:#038048;stroke-width:1.0;"/><text fill="#000000" font-family="sans-serif" font-size="14" lengthAdjust="spacing" textLength="202" x="3801.5" y="418.292">GetWorldPrefab() : GameObject</text></g><!--class Season--><g id="elem_Season"><rect codeLine="94" fill="#F1F1F1" height="113.1875" id="Season" rx="2.5" ry="2.5" style="stroke:#181818;stroke-width:0.5;" width="76" x="3998.5" y="7"/><ellipse cx="4013.5" cy="23" fill="#EB937F" rx="11" ry="11" style="stroke:#181818;stroke-width:1.0;"/><path d="M4016.5156,29 L4009.5313,29 L4009.5313,16.8594 L4016.5156,16.8594 L4016.5156,18.9688 L4012.0938,18.9688 L4012.0938,21.6406 L4016.2031,21.6406 L4016.2031,23.75 L4012.0938,23.75 L4012.0938,26.875 L4016.5156,26.875 L4016.5156,29 Z " fill="#000000"/><text fill="#000000" font-family="sans-serif" font-size="14" lengthAdjust="spacing" textLength="44" x="4027.5" y="27.8467">Season</text><line style="stroke:#181818;stroke-width:0.5;" x1="3999.5" x2="4073.5" y1="39" y2="39"/><text fill="#000000" font-family="sans-serif" font-size="14" lengthAdjust="spacing" textLength="47" x="4004.5" y="55.9951">Winter,</text><text fill="#000000" font-family="sans-serif" font-size="14" lengthAdjust="spacing" textLength="44" x="4004.5" y="72.292">Spring,</text><text fill="#000000" font-family="sans-serif" font-size="14" lengthAdjust="spacing" textLength="59" x="4004.5" y="88.5889">Summer,</text><text fill="#000000" font-family="sans-serif" font-size="14" lengthAdjust="spacing" textLength="55" x="4004.5" y="104.8857">Autumn,</text><line style="stroke:#181818;stroke-width:0.5;" x1="3999.5" x2="4073.5" y1="112.1875" y2="112.1875"/></g><!--class Item--><g id="elem_Item"><rect codeLine="101" fill="#F1F1F1" height="80.5938" id="Item" rx="2.5" ry="2.5" style="stroke:#181818;stroke-width:0.5;" width="178" x="3806.5" y="188"/><ellipse cx="3875.75" cy="204" fill="#A9DCDF" rx="11" ry="11" style="stroke:#181818;stroke-width:1.0;"/><path d="M3878.7031,209 L3877.875,206.1094 L3873.6875,206.1094 L3872.8438,209 L3870.25,209 L3874.1875,196.8125 L3877.3438,196.8125 L3881.2969,209 L3878.7031,209 Z M3877.2656,203.9531 L3876.5,201.2969 Q3876.4375,201.1406 3876.3438,200.8125 Q3876.25,200.4688 3876.125,200.0625 Q3876.0156,199.6406 3875.9063,199.2344 Q3875.8125,198.8125 3875.7813,198.5313 Q3875.75,198.7031 3875.6875,198.9531 Q3875.6406,199.2031 3875.5625,199.4844 Q3875.5,199.7656 3875.4219,200.0469 Q3875.3438,200.3281 3875.2813,200.5781 Q3875.2188,200.8281 3875.1563,201.0156 Q3875.1094,201.2031 3875.0781,201.2969 L3874.3125,203.9531 L3877.2656,203.9531 Z " fill="#000000"/><text fill="#000000" font-family="sans-serif" font-size="14" font-style="italic" lengthAdjust="spacing" textLength="31" x="3896.25" y="208.8467">Item</text><line style="stroke:#181818;stroke-width:0.5;" x1="3807.5" x2="3983.5" y1="220" y2="220"/><line style="stroke:#181818;stroke-width:0.5;" x1="3807.5" x2="3983.5" y1="228" y2="228"/><ellipse cx="3817.5" cy="241.6484" fill="#84BE84" rx="3" ry="3" style="stroke:#038048;stroke-width:1.0;"/><text fill="#000000" font-family="sans-serif" font-size="14" lengthAdjust="spacing" textLength="73" x="3826.5" y="244.9951">GetId() : int</text><ellipse cx="3817.5" cy="257.9453" fill="#84BE84" rx="3" ry="3" style="stroke:#038048;stroke-width:1.0;"/><text fill="#000000" font-family="sans-serif" font-size="14" lengthAdjust="spacing" textLength="152" x="3826.5" y="261.292">GetDescription() : string</text></g><!--class ScriptableObject--><g id="elem_ScriptableObject"><rect fill="#F1F1F1" height="48" id="ScriptableObject" rx="2.5" ry="2.5" style="stroke:#181818;stroke-width:0.5;" width="136" x="3827.5" y="39.5"/><ellipse cx="3842.5" cy="55.5" fill="#ADD1B2" rx="11" ry="11" style="stroke:#181818;stroke-width:1.0;"/><path d="M3842.4375,51.3281 Q3841.6875,51.3281 3841.125,51.625 Q3840.5625,51.9063 3840.1719,52.4375 Q3839.7813,52.9688 3839.5781,53.75 Q3839.3906,54.5156 3839.3906,55.4688 Q3839.3906,56.4375 3839.5625,57.2031 Q3839.75,57.9531 3840.1094,58.4688 Q3840.4844,58.9844 3841.0625,59.2656 Q3841.6406,59.5313 3842.4375,59.5313 Q3843.1719,59.5313 3843.9063,59.3594 Q3844.6563,59.1875 3845.5313,58.8906 L3845.5313,61.0469 Q3845.125,61.2031 3844.7344,61.3281 Q3844.3438,61.4375 3843.9375,61.5156 Q3843.5313,61.5938 3843.1094,61.625 Q3842.6875,61.6719 3842.1875,61.6719 Q3840.7813,61.6719 3839.75,61.2188 Q3838.7344,60.7656 3838.0625,59.9531 Q3837.3906,59.1406 3837.0625,58 Q3836.7344,56.8438 3836.7344,55.4531 Q3836.7344,54.0781 3837.1094,52.9219 Q3837.4844,51.7656 3838.2031,50.9375 Q3838.9219,50.1094 3839.9844,49.6563 Q3841.0469,49.1875 3842.4375,49.1875 Q3843.3438,49.1875 3844.25,49.4219 Q3845.1563,49.6406 3845.9844,50.0469 L3845.1563,52.1406 Q3844.4688,51.8125 3843.7813,51.5781 Q3843.0938,51.3281 3842.4375,51.3281 Z " fill="#000000"/><text fill="#000000" font-family="sans-serif" font-size="14" lengthAdjust="spacing" textLength="104" x="3856.5" y="60.3467">ScriptableObject</text><line style="stroke:#181818;stroke-width:0.5;" x1="3828.5" x2="3962.5" y1="71.5" y2="71.5"/><line style="stroke:#181818;stroke-width:0.5;" x1="3828.5" x2="3962.5" y1="79.5" y2="79.5"/></g><!--class ShopUIPresenter--><g id="elem_ShopUIPresenter"><rect codeLine="106" fill="#F1F1F1" height="96.8906" id="ShopUIPresenter" rx="2.5" ry="2.5" style="stroke:#181818;stroke-width:0.5;" width="299" x="4087" y="180"/><ellipse cx="4177.75" cy="196" fill="#ADD1B2" rx="11" ry="11" style="stroke:#181818;stroke-width:1.0;"/><path d="M4177.6875,191.8281 Q4176.9375,191.8281 4176.375,192.125 Q4175.8125,192.4063 4175.4219,192.9375 Q4175.0313,193.4688 4174.8281,194.25 Q4174.6406,195.0156 4174.6406,195.9688 Q4174.6406,196.9375 4174.8125,197.7031 Q4175,198.4531 4175.3594,198.9688 Q4175.7344,199.4844 4176.3125,199.7656 Q4176.8906,200.0313 4177.6875,200.0313 Q4178.4219,200.0313 4179.1563,199.8594 Q4179.9063,199.6875 4180.7813,199.3906 L4180.7813,201.5469 Q4180.375,201.7031 4179.9844,201.8281 Q4179.5938,201.9375 4179.1875,202.0156 Q4178.7813,202.0938 4178.3594,202.125 Q4177.9375,202.1719 4177.4375,202.1719 Q4176.0313,202.1719 4175,201.7188 Q4173.9844,201.2656 4173.3125,200.4531 Q4172.6406,199.6406 4172.3125,198.5 Q4171.9844,197.3438 4171.9844,195.9531 Q4171.9844,194.5781 4172.3594,193.4219 Q4172.7344,192.2656 4173.4531,191.4375 Q4174.1719,190.6094 4175.2344,190.1563 Q4176.2969,189.6875 4177.6875,189.6875 Q4178.5938,189.6875 4179.5,189.9219 Q4180.4063,190.1406 4181.2344,190.5469 L4180.4063,192.6406 Q4179.7188,192.3125 4179.0313,192.0781 Q4178.3438,191.8281 4177.6875,191.8281 Z " fill="#000000"/><text fill="#000000" font-family="sans-serif" font-size="14" lengthAdjust="spacing" textLength="109" x="4198.25" y="200.8467">ShopUIPresenter</text><line style="stroke:#181818;stroke-width:0.5;" x1="4088" x2="4385" y1="212" y2="212"/><line style="stroke:#181818;stroke-width:0.5;" x1="4088" x2="4385" y1="220" y2="220"/><ellipse cx="4098" cy="233.6484" fill="#84BE84" rx="3" ry="3" style="stroke:#038048;stroke-width:1.0;"/><text fill="#000000" font-family="sans-serif" font-size="14" lengthAdjust="spacing" textLength="273" x="4107" y="236.9951">ShopUIPresenter(model:Model, view:View)</text><ellipse cx="4098" cy="249.9453" fill="#84BE84" rx="3" ry="3" style="stroke:#038048;stroke-width:1.0;"/><text fill="#000000" font-family="sans-serif" font-size="14" lengthAdjust="spacing" textLength="181" x="4107" y="253.292">SelectItem(item:Item) : void</text><ellipse cx="4098" cy="266.2422" fill="#84BE84" rx="3" ry="3" style="stroke:#038048;stroke-width:1.0;"/><text fill="#000000" font-family="sans-serif" font-size="14" lengthAdjust="spacing" textLength="145" x="4107" y="269.5889">UpdateItemsUI() : void</text></g><!--class Presenter--><g id="elem_Presenter"><rect codeLine="112" fill="#F1F1F1" height="64.2969" id="Presenter" rx="2.5" ry="2.5" style="stroke:#181818;stroke-width:0.5;" width="253" x="4110" y="31.5"/><ellipse cx="4200.75" cy="47.5" fill="#A9DCDF" rx="11" ry="11" style="stroke:#181818;stroke-width:1.0;"/><path d="M4203.7031,52.5 L4202.875,49.6094 L4198.6875,49.6094 L4197.8438,52.5 L4195.25,52.5 L4199.1875,40.3125 L4202.3438,40.3125 L4206.2969,52.5 L4203.7031,52.5 Z M4202.2656,47.4531 L4201.5,44.7969 Q4201.4375,44.6406 4201.3438,44.3125 Q4201.25,43.9688 4201.125,43.5625 Q4201.0156,43.1406 4200.9063,42.7344 Q4200.8125,42.3125 4200.7813,42.0313 Q4200.75,42.2031 4200.6875,42.4531 Q4200.6406,42.7031 4200.5625,42.9844 Q4200.5,43.2656 4200.4219,43.5469 Q4200.3438,43.8281 4200.2813,44.0781 Q4200.2188,44.3281 4200.1563,44.5156 Q4200.1094,44.7031 4200.0781,44.7969 L4199.3125,47.4531 L4202.2656,47.4531 Z " fill="#000000"/><text fill="#000000" font-family="sans-serif" font-size="14" font-style="italic" lengthAdjust="spacing" textLength="63" x="4221.25" y="52.3467">Presenter</text><line style="stroke:#181818;stroke-width:0.5;" x1="4111" x2="4362" y1="63.5" y2="63.5"/><line style="stroke:#181818;stroke-width:0.5;" x1="4111" x2="4362" y1="71.5" y2="71.5"/><ellipse cx="4121" cy="85.1484" fill="#84BE84" rx="3" ry="3" style="stroke:#038048;stroke-width:1.0;"/><text fill="#000000" font-family="sans-serif" font-size="14" lengthAdjust="spacing" textLength="227" x="4130" y="88.4951">Presenter(model:Model, view:View)</text></g><!--class LeavesTestGenerator--><g id="elem_LeavesTestGenerator"><rect codeLine="115" fill="#F1F1F1" height="48" id="LeavesTestGenerator" rx="2.5" ry="2.5" style="stroke:#181818;stroke-width:0.5;" width="167" x="2206" y="204.5"/><ellipse cx="2221" cy="220.5" fill="#ADD1B2" rx="11" ry="11" style="stroke:#181818;stroke-width:1.0;"/><path d="M2220.9375,216.3281 Q2220.1875,216.3281 2219.625,216.625 Q2219.0625,216.9063 2218.6719,217.4375 Q2218.2813,217.9688 2218.0781,218.75 Q2217.8906,219.5156 2217.8906,220.4688 Q2217.8906,221.4375 2218.0625,222.2031 Q2218.25,222.9531 2218.6094,223.4688 Q2218.9844,223.9844 2219.5625,224.2656 Q2220.1406,224.5313 2220.9375,224.5313 Q2221.6719,224.5313 2222.4063,224.3594 Q2223.1563,224.1875 2224.0313,223.8906 L2224.0313,226.0469 Q2223.625,226.2031 2223.2344,226.3281 Q2222.8438,226.4375 2222.4375,226.5156 Q2222.0313,226.5938 2221.6094,226.625 Q2221.1875,226.6719 2220.6875,226.6719 Q2219.2813,226.6719 2218.25,226.2188 Q2217.2344,225.7656 2216.5625,224.9531 Q2215.8906,224.1406 2215.5625,223 Q2215.2344,221.8438 2215.2344,220.4531 Q2215.2344,219.0781 2215.6094,217.9219 Q2215.9844,216.7656 2216.7031,215.9375 Q2217.4219,215.1094 2218.4844,214.6563 Q2219.5469,214.1875 2220.9375,214.1875 Q2221.8438,214.1875 2222.75,214.4219 Q2223.6563,214.6406 2224.4844,215.0469 L2223.6563,217.1406 Q2222.9688,216.8125 2222.2813,216.5781 Q2221.5938,216.3281 2220.9375,216.3281 Z " fill="#000000"/><text fill="#000000" font-family="sans-serif" font-size="14" lengthAdjust="spacing" textLength="135" x="2235" y="225.3467">LeavesTestGenerator</text><line style="stroke:#181818;stroke-width:0.5;" x1="2207" x2="2372" y1="236.5" y2="236.5"/><line style="stroke:#181818;stroke-width:0.5;" x1="2207" x2="2372" y1="244.5" y2="244.5"/></g><!--class Tester--><g id="elem_Tester"><rect codeLine="118" fill="#F1F1F1" height="80.5938" id="Tester" rx="2.5" ry="2.5" style="stroke:#181818;stroke-width:0.5;" width="105" x="2408" y="188"/><ellipse cx="2437.85" cy="204" fill="#ADD1B2" rx="11" ry="11" style="stroke:#181818;stroke-width:1.0;"/><path d="M2437.7875,199.8281 Q2437.0375,199.8281 2436.475,200.125 Q2435.9125,200.4063 2435.5219,200.9375 Q2435.1313,201.4688 2434.9281,202.25 Q2434.7406,203.0156 2434.7406,203.9688 Q2434.7406,204.9375 2434.9125,205.7031 Q2435.1,206.4531 2435.4594,206.9688 Q2435.8344,207.4844 2436.4125,207.7656 Q2436.9906,208.0313 2437.7875,208.0313 Q2438.5219,208.0313 2439.2563,207.8594 Q2440.0063,207.6875 2440.8813,207.3906 L2440.8813,209.5469 Q2440.475,209.7031 2440.0844,209.8281 Q2439.6938,209.9375 2439.2875,210.0156 Q2438.8813,210.0938 2438.4594,210.125 Q2438.0375,210.1719 2437.5375,210.1719 Q2436.1313,210.1719 2435.1,209.7188 Q2434.0844,209.2656 2433.4125,208.4531 Q2432.7406,207.6406 2432.4125,206.5 Q2432.0844,205.3438 2432.0844,203.9531 Q2432.0844,202.5781 2432.4594,201.4219 Q2432.8344,200.2656 2433.5531,199.4375 Q2434.2719,198.6094 2435.3344,198.1563 Q2436.3969,197.6875 2437.7875,197.6875 Q2438.6938,197.6875 2439.6,197.9219 Q2440.5063,198.1406 2441.3344,198.5469 L2440.5063,200.6406 Q2439.8188,200.3125 2439.1313,200.0781 Q2438.4438,199.8281 2437.7875,199.8281 Z " fill="#000000"/><text fill="#000000" font-family="sans-serif" font-size="14" lengthAdjust="spacing" textLength="40" x="2455.15" y="208.8467">Tester</text><line style="stroke:#181818;stroke-width:0.5;" x1="2409" x2="2512" y1="220" y2="220"/><line style="stroke:#181818;stroke-width:0.5;" x1="2409" x2="2512" y1="228" y2="228"/><text fill="#000000" font-family="sans-serif" font-size="14" lengthAdjust="spacing" textLength="77" x="2414" y="244.9951">Start() : void</text><text fill="#000000" font-family="sans-serif" font-size="14" lengthAdjust="spacing" textLength="93" x="2414" y="261.292">Update() : void</text></g><!--reverse link MonoBehaviour to CameraInput--><g id="link_MonoBehaviour_CameraInput"><path codeLine="6" d="M1658.69,67.99 C1453.22,77.22 921.45,106.76 483.5,180 C477.77,180.96 471.96,181.99 466.11,183.09 " fill="none" id="MonoBehaviour-backto-CameraInput" style="stroke:#181818;stroke-width:1.0;"/><polygon fill="none" points="1658.4,61,1678.69,67.11,1659.02,74.98,1658.4,61" style="stroke:#181818;stroke-width:1.0;"/></g><!--reverse link IPointerEnterHandler to CameraInput--><g id="link_IPointerEnterHandler_CameraInput"><path codeLine="7" d="M134.99,100.3 C163.35,123.65 200.68,154.38 231.55,179.79 " fill="none" id="IPointerEnterHandler-backto-CameraInput" style="stroke:#181818;stroke-width:1.0;"/><polygon fill="none" points="130.44,105.62,119.45,87.51,139.34,94.82,130.44,105.62" style="stroke:#181818;stroke-width:1.0;"/></g><!--reverse link IPointerExitHandler to CameraInput--><g id="link_IPointerExitHandler_CameraInput"><path codeLine="8" d="M289.5,107.72 C289.5,129.91 289.5,156.99 289.5,179.79 " fill="none" id="IPointerExitHandler-backto-CameraInput" style="stroke:#181818;stroke-width:1.0;"/><polygon fill="none" points="282.5,107.51,289.5,87.51,296.5,107.51,282.5,107.51" style="stroke:#181818;stroke-width:1.0;"/></g><!--reverse link IPointerMoveHandler to CameraInput--><g id="link_IPointerMoveHandler_CameraInput"><path codeLine="9" d="M444.79,100.3 C416.29,123.65 378.77,154.38 347.74,179.79 " fill="none" id="IPointerMoveHandler-backto-CameraInput" style="stroke:#181818;stroke-width:1.0;"/><polygon fill="none" points="440.5,94.77,460.41,87.51,449.37,105.6,440.5,94.77" style="stroke:#181818;stroke-width:1.0;"/></g><!--reverse link MonoBehaviour to PlayerUIInputs--><g id="link_MonoBehaviour_PlayerUIInputs"><path codeLine="13" d="M1832.16,70.68 C1978.26,82.55 2281.97,113.49 2530.5,180 C2546.84,184.37 2563.98,190.3 2580.03,196.48 " fill="none" id="MonoBehaviour-backto-PlayerUIInputs" style="stroke:#181818;stroke-width:1.0;"/><polygon fill="none" points="1831.58,77.66,1812.19,69.1,1832.68,63.7,1831.58,77.66" style="stroke:#181818;stroke-width:1.0;"/></g><!--reverse link MonoBehaviour to PlayerController--><g id="link_MonoBehaviour_PlayerController"><path codeLine="17" d="M1832.36,65.17 C2040.29,68.33 2582.14,85.75 3022.5,180 C3041.7,184.11 3061.93,190.08 3080.79,196.42 " fill="none" id="MonoBehaviour-backto-PlayerController" style="stroke:#181818;stroke-width:1.0;"/><polygon fill="none" points="1832.04,72.17,1812.14,64.9,1832.23,58.17,1832.04,72.17" style="stroke:#181818;stroke-width:1.0;"/></g><!--reverse link IMovement to PlayerController--><g id="link_IMovement_PlayerController"><path codeLine="18" d="M3160.5,115.83 C3160.5,142.24 3160.5,173.55 3160.5,196.3 " fill="none" id="IMovement-backto-PlayerController" style="stroke:#181818;stroke-width:1.0;"/><polygon fill="none" points="3153.5,115.54,3160.5,95.54,3167.5,115.54,3153.5,115.54" style="stroke:#181818;stroke-width:1.0;"/></g><!--reverse link MonoBehaviour to PlayerInputs--><g id="link_MonoBehaviour_PlayerInputs"><path codeLine="21" d="M1658.78,68.22 C1430.99,78.83 820.2,112.89 630.5,180 C614.68,185.6 598.85,195.27 586,204.43 " fill="none" id="MonoBehaviour-backto-PlayerInputs" style="stroke:#181818;stroke-width:1.0;"/><polygon fill="none" points="1658.67,61.22,1678.97,67.3,1659.31,75.21,1658.67,61.22" style="stroke:#181818;stroke-width:1.0;"/></g><!--link PlayerInputs to Vector2--><g id="link_PlayerInputs_Vector2"><path codeLine="22" d="M566.18,252.71 C576.55,280.41 593.88,326.71 604.99,356.41 " fill="none" id="PlayerInputs-to-Vector2" style="stroke:#181818;stroke-width:1.0;"/><polygon fill="#181818" points="606.85,361.39,607.4352,351.5585,605.0944,356.7084,599.9446,354.3675,606.85,361.39" style="stroke:#181818;stroke-width:1.0;"/><text fill="#000000" font-family="sans-serif" font-size="13" lengthAdjust="spacing" textLength="64" x="532.4334" y="350.3738">MoveInput</text></g><!--link PlayerInputs to Camera--><g id="link_PlayerInputs_Camera"><path codeLine="23" d="M548.82,252.71 C538.45,280.41 521.12,326.71 510.01,356.41 " fill="none" id="PlayerInputs-to-Camera" style="stroke:#181818;stroke-width:1.0;"/><polygon fill="#181818" points="508.15,361.39,515.0554,354.3675,509.9056,356.7084,507.5648,351.5585,508.15,361.39" style="stroke:#181818;stroke-width:1.0;"/><text fill="#000000" font-family="sans-serif" font-size="13" lengthAdjust="spacing" textLength="78" x="422.3728" y="350.3738">CameraInput</text></g><!--reverse link MonoBehaviour to GameObjectPlacer--><g id="link_MonoBehaviour_GameObjectPlacer"><path codeLine="26" d="M1658.69,65.18 C1491.63,68.67 1115.44,87.19 815.5,180 C796.61,185.84 776.97,195.44 760.71,204.48 " fill="none" id="MonoBehaviour-backto-GameObjectPlacer" style="stroke:#181818;stroke-width:1.0;"/><polygon fill="none" points="1658.59,58.18,1678.71,64.81,1658.85,72.18,1658.59,58.18" style="stroke:#181818;stroke-width:1.0;"/></g><!--reverse link FocusScript to PlantBuildFocus--><g id="link_FocusScript_PlantBuildFocus"><path codeLine="30" d="M1003.5,289.15 C1003.5,311.05 1003.5,334.96 1003.5,353.36 " fill="none" id="FocusScript-backto-PlantBuildFocus" style="stroke:#181818;stroke-width:1.0;"/><polygon fill="none" points="996.5,289.01,1003.5,269.01,1010.5,289.01,996.5,289.01" style="stroke:#181818;stroke-width:1.0;"/></g><!--reverse link MonoBehaviour to FocusScript--><g id="link_MonoBehaviour_FocusScript"><path codeLine="35" d="M1658.91,81.31 C1549.5,102.82 1355.53,141.89 1190.5,180 C1179.57,182.53 1168.29,185.2 1156.95,187.95 " fill="none" id="MonoBehaviour-backto-FocusScript" style="stroke:#181818;stroke-width:1.0;"/><polygon fill="none" points="1657.69,74.41,1678.66,77.43,1660.38,88.15,1657.69,74.41" style="stroke:#181818;stroke-width:1.0;"/></g><!--reverse link MonoBehaviour to StartupScript--><g id="link_MonoBehaviour_StartupScript"><path codeLine="38" d="M1659.2,81.56 C1575.45,99.85 1445.91,132.78 1340.5,180 C1325.73,186.62 1310.46,195.8 1297.58,204.32 " fill="none" id="MonoBehaviour-backto-StartupScript" style="stroke:#181818;stroke-width:1.0;"/><polygon fill="none" points="1657.92,74.68,1678.94,77.34,1660.85,88.37,1657.92,74.68" style="stroke:#181818;stroke-width:1.0;"/></g><!--reverse link MonoBehaviour to BuildableObject--><g id="link_MonoBehaviour_BuildableObject"><path codeLine="41" d="M1677.71,96.18 C1630.01,118.81 1564.88,150.35 1508.5,180 C1493.97,187.64 1478.25,196.39 1464.39,204.28 " fill="none" id="MonoBehaviour-backto-BuildableObject" style="stroke:#181818;stroke-width:1.0;"/><polygon fill="none" points="1674.97,89.74,1696.04,87.52,1680.95,102.4,1674.97,89.74" style="stroke:#181818;stroke-width:1.0;"/></g><!--reverse link Model to ShopUIModel--><g id="link_Model_ShopUIModel"><path codeLine="48" d="M3620.5,115.61 C3620.5,138.95 3620.5,166.16 3620.5,187.91 " fill="none" id="Model-backto-ShopUIModel" style="stroke:#181818;stroke-width:1.0;"/><polygon fill="none" points="3613.5,115.54,3620.5,95.54,3627.5,115.54,3613.5,115.54" style="stroke:#181818;stroke-width:1.0;"/></g><!--link ShopUIModel to List`1--><g id="link_ShopUIModel_List`1"><path codeLine="49" d="M3620.5,269.01 C3620.5,296.31 3620.5,331.96 3620.5,356.39 " fill="none" id="ShopUIModel-to-List`1" style="stroke:#181818;stroke-width:1.0;"/><polygon fill="#181818" points="3620.5,361.43,3624.5,352.43,3620.5,356.43,3616.5,352.43,3620.5,361.43" style="stroke:#181818;stroke-width:1.0;"/><text fill="#000000" font-family="sans-serif" font-size="13" lengthAdjust="spacing" textLength="77" x="3533.6344" y="350.4241">plants&lt;Item&gt;</text></g><!--reverse link View to ShopUIVIew--><g id="link_View_ShopUIVIew"><path codeLine="58" d="M1601.91,276.76 C1587.13,295.85 1570.09,317.86 1555.29,336.98 " fill="none" id="View-backto-ShopUIVIew" style="stroke:#181818;stroke-width:1.0;"/><polygon fill="none" points="1596.44,272.4,1614.22,260.87,1607.51,280.97,1596.44,272.4" style="stroke:#181818;stroke-width:1.0;"/></g><!--reverse link View to PlayerCharacterView--><g id="link_View_PlayerCharacterView"><path codeLine="62" d="M1698.48,272.34 C1734.44,298.03 1779.35,330.11 1811.92,353.37 " fill="none" id="View-backto-PlayerCharacterView" style="stroke:#181818;stroke-width:1.0;"/><polygon fill="none" points="1694.36,278,1682.15,260.68,1702.5,266.61,1694.36,278" style="stroke:#181818;stroke-width:1.0;"/></g><!--reverse link MonoBehaviour to View--><g id="link_MonoBehaviour_View"><path codeLine="66" d="M1719.2,104.57 C1700.64,132.83 1676.14,170.16 1659.02,196.24 " fill="none" id="MonoBehaviour-backto-View" style="stroke:#181818;stroke-width:1.0;"/><polygon fill="none" points="1713.57,100.39,1730.4,87.51,1725.27,108.07,1713.57,100.39" style="stroke:#181818;stroke-width:1.0;"/></g><!--reverse link MonoBehaviour to PlantPlaceMove--><g id="link_MonoBehaviour_PlantPlaceMove"><path codeLine="71" d="M1771.76,104.5 C1788.43,129.9 1809.93,162.65 1826.55,187.96 " fill="none" id="MonoBehaviour-backto-PlantPlaceMove" style="stroke:#181818;stroke-width:1.0;"/><polygon fill="none" points="1765.73,108.07,1760.6,87.51,1777.43,100.39,1765.73,108.07" style="stroke:#181818;stroke-width:1.0;"/></g><!--reverse link MonoBehaviour to CharacterControllerMove--><g id="link_MonoBehaviour_CharacterControllerMove"><path codeLine="78" d="M1832.31,67.12 C2010.39,74.06 2428.89,98.41 2769.5,180 C2787.01,184.2 2805.4,190.12 2822.57,196.38 " fill="none" id="MonoBehaviour-backto-CharacterControllerMove" style="stroke:#181818;stroke-width:1.0;"/><polygon fill="none" points="1831.79,74.11,1812.06,66.37,1832.31,60.12,1831.79,74.11" style="stroke:#181818;stroke-width:1.0;"/></g><!--reverse link IMovement to CharacterControllerMove--><g id="link_IMovement_CharacterControllerMove"><path codeLine="79" d="M3093.2,106.05 C3047.69,134.15 2988.54,170.67 2947.04,196.3 " fill="none" id="IMovement-backto-CharacterControllerMove" style="stroke:#181818;stroke-width:1.0;"/><polygon fill="none" points="3089.53,100.09,3110.22,95.54,3096.88,112.01,3089.53,100.09" style="stroke:#181818;stroke-width:1.0;"/></g><!--reverse link IMovement to GravityMove--><g id="link_IMovement_GravityMove"><path codeLine="84" d="M3217.5,107.92 C3250.13,132.77 3290.77,163.72 3322.52,187.91 " fill="none" id="IMovement-backto-GravityMove" style="stroke:#181818;stroke-width:1.0;"/><polygon fill="none" points="3212.92,113.23,3201.26,95.54,3221.41,102.09,3212.92,113.23" style="stroke:#181818;stroke-width:1.0;"/></g><!--reverse link MonoBehaviour to UIPlantItem--><g id="link_MonoBehaviour_UIPlantItem"><path codeLine="89" d="M1808.32,96.8 C1859.25,122.99 1931.24,160.01 1985.61,187.96 " fill="none" id="MonoBehaviour-backto-UIPlantItem" style="stroke:#181818;stroke-width:1.0;"/><polygon fill="none" points="1804.83,102.88,1790.25,87.51,1811.23,90.43,1804.83,102.88" style="stroke:#181818;stroke-width:1.0;"/></g><!--reverse link Item to PlantItem--><g id="link_Item_PlantItem"><path codeLine="100" d="M3895.5,289.18 C3895.5,307.81 3895.5,327.89 3895.5,344.79 " fill="none" id="Item-backto-PlantItem" style="stroke:#181818;stroke-width:1.0;"/><polygon fill="none" points="3888.5,289.01,3895.5,269.01,3902.5,289.01,3888.5,289.01" style="stroke:#181818;stroke-width:1.0;"/></g><!--reverse link ScriptableObject to Item--><g id="link_ScriptableObject_Item"><path codeLine="105" d="M3895.5,107.87 C3895.5,132.75 3895.5,163.75 3895.5,187.96 " fill="none" id="ScriptableObject-backto-Item" style="stroke:#181818;stroke-width:1.0;"/><polygon fill="none" points="3888.5,107.51,3895.5,87.51,3902.5,107.51,3888.5,107.51" style="stroke:#181818;stroke-width:1.0;"/></g><!--reverse link Presenter to ShopUIPresenter--><g id="link_Presenter_ShopUIPresenter"><path codeLine="111" d="M4236.5,115.6 C4236.5,136.15 4236.5,159.71 4236.5,179.89 " fill="none" id="Presenter-backto-ShopUIPresenter" style="stroke:#181818;stroke-width:1.0;"/><polygon fill="none" points="4229.5,115.54,4236.5,95.54,4243.5,115.54,4229.5,115.54" style="stroke:#181818;stroke-width:1.0;"/></g><!--reverse link MonoBehaviour to LeavesTestGenerator--><g id="link_MonoBehaviour_LeavesTestGenerator"><path codeLine="117" d="M1832.14,82.12 C1922.5,101.64 2067.56,136.22 2188.5,180 C2207.45,186.86 2227.67,195.98 2245,204.4 " fill="none" id="MonoBehaviour-backto-LeavesTestGenerator" style="stroke:#181818;stroke-width:1.0;"/><polygon fill="none" points="1830.43,88.91,1812.33,77.89,1833.35,75.22,1830.43,88.91" style="stroke:#181818;stroke-width:1.0;"/></g><!--reverse link MonoBehaviour to Tester--><g id="link_MonoBehaviour_Tester"><path codeLine="122" d="M1832.19,68.58 C1959.07,77.05 2200.87,102.78 2390.5,180 C2396.35,182.38 2402.21,185.3 2407.91,188.52 " fill="none" id="MonoBehaviour-backto-Tester" style="stroke:#181818;stroke-width:1.0;"/><polygon fill="none" points="1831.61,75.56,1812.09,67.32,1832.49,61.58,1831.61,75.56" style="stroke:#181818;stroke-width:1.0;"/></g><!--SRC=[dLR1RgCm4BtdAr1EL4qEktkBeaXDkzj5QjMeQTBhEk0sNe6DZ4ats-s_xunjOA0ahP9316RcpPldyOCuPKKHNBACQnR9l3J1wo20ttbm9nTAICFrT_mB-OvBSyKCcrJBrS9PC0bsIYJlylu8SqBQhThnpwIz3MwLL7E-PJkXIXrC_ut7j951HFd_P399-R4eOFjX478x61HRAHSfstEzYknQKQkvtAfyBGgn4Qam-yijayyyFDvB6wa5VwcaqIf56bM1UsMOuUvncF0Kf5lps2ZzzJDL6i11X4rceFQ1vvH7tUGHQ4-_bJ0Upu8Xrh7tmy0pxGaY0W-zsfx1DTpSRNv39cJ5LebU5jsufW5fvgL8anygBfkDcaw1bjOYuRDPSCsDVMep5we8DTi_g3BUmhMNznlAwo-1W0rVnbhaZNwqpe1j2gDPR097WyPN5Aggz_MGFAMA6V_qjK9uEu5UZpw4WPTcQPWsPLwpwarh1Vb4soRRf5xlGwcTiAegd90L31_CRgq4x8Pr0jYA77KiRaHXtE61jYvY8vGCo0dp-U5Ey9V96lv6Fc-2YTF8y6ns1gHSnI4k_leod3xCF5MixRfhm0QKc9r91-dGXZLATsVRdNHuDIGS-ZhYB_qZ64bmqLppWgC1JHRLLSS-CKomLFpb28ZKYb3WF-sydRBA4t0C3CSGQaR8aEg0xDh-isNOATSsyZJUj4mFQbVELYLo1ZvHfsS4RGLY1FO4eI7v4dQwmvPWJgwFFPk03UnBumdkWiPLNG7xbYDOZakjGEEtXDIvoqg4vdRowH4_yahin-pw_A4mRxOQ8CsUaEdAGGWIFfqY1CO3ho8h6SudzRybJw6tUMcCaXRFNLP77G9mW_1xm4xv1FEFoq0AqOr_NvWLlgIxR1uzAfqcC5zFR6EVDoyMgCXbcVaC3_TeDt_anYdNGZxxwpBBglMBqfIP7A5GoACP8KkpSmAwLAF4qe0opTeLBwmX2zy3041Xm7S-JRpPrY9gk9DU7v_MXmjP3pCqiecrir50_ApQ6TmtXEtP5sexrg5M4PsLfZQnddgngyPxfXzph8xP3MSxNZpmmbnp2LyKS8WElQjwGZq8hjNLJ_KB1_8V]--></g></svg>