<?xml version="1.0" encoding="us-ascii" standalone="no"?><svg xmlns="http://www.w3.org/2000/svg" xmlns:xlink="http://www.w3.org/1999/xlink" contentStyleType="text/css" height="202px" preserveAspectRatio="none" style="width:147px;height:202px;background:#FFFFFF;" version="1.1" viewBox="0 0 147 202" width="147px" zoomAndPan="magnify"><defs/><g><!--class Tester--><g id="elem_Tester"><rect codeLine="1" fill="#F1F1F1" height="80.5938" id="Tester" rx="2.5" ry="2.5" style="stroke:#181818;stroke-width:0.5;" width="105" x="21" y="115"/><ellipse cx="50.85" cy="131" fill="#ADD1B2" rx="11" ry="11" style="stroke:#181818;stroke-width:1.0;"/><path d="M50.7875,126.8281 Q50.0375,126.8281 49.475,127.125 Q48.9125,127.4063 48.5219,127.9375 Q48.1313,128.4688 47.9281,129.25 Q47.7406,130.0156 47.7406,130.9688 Q47.7406,131.9375 47.9125,132.7031 Q48.1,133.4531 48.4594,133.9688 Q48.8344,134.4844 49.4125,134.7656 Q49.9906,135.0313 50.7875,135.0313 Q51.5219,135.0313 52.2563,134.8594 Q53.0063,134.6875 53.8813,134.3906 L53.8813,136.5469 Q53.475,136.7031 53.0844,136.8281 Q52.6938,136.9375 52.2875,137.0156 Q51.8813,137.0938 51.4594,137.125 Q51.0375,137.1719 50.5375,137.1719 Q49.1313,137.1719 48.1,136.7188 Q47.0844,136.2656 46.4125,135.4531 Q45.7406,134.6406 45.4125,133.5 Q45.0844,132.3438 45.0844,130.9531 Q45.0844,129.5781 45.4594,128.4219 Q45.8344,127.2656 46.5531,126.4375 Q47.2719,125.6094 48.3344,125.1563 Q49.3969,124.6875 50.7875,124.6875 Q51.6938,124.6875 52.6,124.9219 Q53.5063,125.1406 54.3344,125.5469 L53.5063,127.6406 Q52.8188,127.3125 52.1313,127.0781 Q51.4438,126.8281 50.7875,126.8281 Z " fill="#000000"/><text fill="#000000" font-family="sans-serif" font-size="14" lengthAdjust="spacing" textLength="40" x="68.15" y="135.8467">Tester</text><line style="stroke:#181818;stroke-width:0.5;" x1="22" x2="125" y1="147" y2="147"/><line style="stroke:#181818;stroke-width:0.5;" x1="22" x2="125" y1="155" y2="155"/><text fill="#000000" font-family="sans-serif" font-size="14" lengthAdjust="spacing" textLength="77" x="27" y="171.9951">Start() : void</text><text fill="#000000" font-family="sans-serif" font-size="14" lengthAdjust="spacing" textLength="93" x="27" y="188.292">Update() : void</text></g><!--class MonoBehaviour--><g id="elem_MonoBehaviour"><rect fill="#F1F1F1" height="48" id="MonoBehaviour" rx="2.5" ry="2.5" style="stroke:#181818;stroke-width:0.5;" width="133" x="7" y="7"/><ellipse cx="22" cy="23" fill="#ADD1B2" rx="11" ry="11" style="stroke:#181818;stroke-width:1.0;"/><path d="M21.9375,18.8281 Q21.1875,18.8281 20.625,19.125 Q20.0625,19.4063 19.6719,19.9375 Q19.2813,20.4688 19.0781,21.25 Q18.8906,22.0156 18.8906,22.9688 Q18.8906,23.9375 19.0625,24.7031 Q19.25,25.4531 19.6094,25.9688 Q19.9844,26.4844 20.5625,26.7656 Q21.1406,27.0313 21.9375,27.0313 Q22.6719,27.0313 23.4063,26.8594 Q24.1563,26.6875 25.0313,26.3906 L25.0313,28.5469 Q24.625,28.7031 24.2344,28.8281 Q23.8438,28.9375 23.4375,29.0156 Q23.0313,29.0938 22.6094,29.125 Q22.1875,29.1719 21.6875,29.1719 Q20.2813,29.1719 19.25,28.7188 Q18.2344,28.2656 17.5625,27.4531 Q16.8906,26.6406 16.5625,25.5 Q16.2344,24.3438 16.2344,22.9531 Q16.2344,21.5781 16.6094,20.4219 Q16.9844,19.2656 17.7031,18.4375 Q18.4219,17.6094 19.4844,17.1563 Q20.5469,16.6875 21.9375,16.6875 Q22.8438,16.6875 23.75,16.9219 Q24.6563,17.1406 25.4844,17.5469 L24.6563,19.6406 Q23.9688,19.3125 23.2813,19.0781 Q22.5938,18.8281 21.9375,18.8281 Z " fill="#000000"/><text fill="#000000" font-family="sans-serif" font-size="14" lengthAdjust="spacing" textLength="101" x="36" y="27.8467">MonoBehaviour</text><line style="stroke:#181818;stroke-width:0.5;" x1="8" x2="139" y1="39" y2="39"/><line style="stroke:#181818;stroke-width:0.5;" x1="8" x2="139" y1="47" y2="47"/></g><!--reverse link MonoBehaviour to Tester--><g id="link_MonoBehaviour_Tester"><path codeLine="5" d="M73.5,75.14 C73.5,88 73.5,102.04 73.5,114.69 " fill="none" id="MonoBehaviour-backto-Tester" style="stroke:#181818;stroke-width:1.0;"/><polygon fill="none" points="66.5,75.04,73.5,55.04,80.5,75.04,66.5,75.04" style="stroke:#181818;stroke-width:1.0;"/></g><!--SRC=[Iyv9B2vM24ajBaajKgZcKW22u9B4eX8DJGKhXRByp1ImK6X1Ic99AaAibiitFo_VAJKZiImplxH8mQP6LnTg2000]--></g></svg>