<?xml version="1.0" encoding="us-ascii" standalone="no"?><svg xmlns="http://www.w3.org/2000/svg" xmlns:xlink="http://www.w3.org/1999/xlink" contentStyleType="text/css" height="186px" preserveAspectRatio="none" style="width:312px;height:186px;background:#FFFFFF;" version="1.1" viewBox="0 0 312 186" width="312px" zoomAndPan="magnify"><defs/><g><!--class PlayerCharacterView--><g id="elem_PlayerCharacterView"><rect codeLine="1" fill="#F1F1F1" height="64.2969" id="PlayerCharacterView" rx="2.5" ry="2.5" style="stroke:#181818;stroke-width:0.5;" width="298" x="7" y="115"/><ellipse cx="86.25" cy="131" fill="#ADD1B2" rx="11" ry="11" style="stroke:#181818;stroke-width:1.0;"/><path d="M86.1875,126.8281 Q85.4375,126.8281 84.875,127.125 Q84.3125,127.4063 83.9219,127.9375 Q83.5313,128.4688 83.3281,129.25 Q83.1406,130.0156 83.1406,130.9688 Q83.1406,131.9375 83.3125,132.7031 Q83.5,133.4531 83.8594,133.9688 Q84.2344,134.4844 84.8125,134.7656 Q85.3906,135.0313 86.1875,135.0313 Q86.9219,135.0313 87.6563,134.8594 Q88.4063,134.6875 89.2813,134.3906 L89.2813,136.5469 Q88.875,136.7031 88.4844,136.8281 Q88.0938,136.9375 87.6875,137.0156 Q87.2813,137.0938 86.8594,137.125 Q86.4375,137.1719 85.9375,137.1719 Q84.5313,137.1719 83.5,136.7188 Q82.4844,136.2656 81.8125,135.4531 Q81.1406,134.6406 80.8125,133.5 Q80.4844,132.3438 80.4844,130.9531 Q80.4844,129.5781 80.8594,128.4219 Q81.2344,127.2656 81.9531,126.4375 Q82.6719,125.6094 83.7344,125.1563 Q84.7969,124.6875 86.1875,124.6875 Q87.0938,124.6875 88,124.9219 Q88.9063,125.1406 89.7344,125.5469 L88.9063,127.6406 Q88.2188,127.3125 87.5313,127.0781 Q86.8438,126.8281 86.1875,126.8281 Z " fill="#000000"/><text fill="#000000" font-family="sans-serif" font-size="14" lengthAdjust="spacing" textLength="131" x="106.75" y="135.8467">PlayerCharacterView</text><line style="stroke:#181818;stroke-width:0.5;" x1="8" x2="304" y1="147" y2="147"/><line style="stroke:#181818;stroke-width:0.5;" x1="8" x2="304" y1="155" y2="155"/><ellipse cx="18" cy="168.6484" fill="#84BE84" rx="3" ry="3" style="stroke:#038048;stroke-width:1.0;"/><text fill="#000000" font-family="sans-serif" font-size="14" lengthAdjust="spacing" textLength="272" x="27" y="171.9951">&#171;override&#187; Init(presenter:Presenter) : void</text></g><!--class View--><g id="elem_View"><rect fill="#F1F1F1" height="48" id="View" rx="2.5" ry="2.5" style="stroke:#181818;stroke-width:0.5;" width="62" x="125" y="7"/><ellipse cx="140" cy="23" fill="#ADD1B2" rx="11" ry="11" style="stroke:#181818;stroke-width:1.0;"/><path d="M139.9375,18.8281 Q139.1875,18.8281 138.625,19.125 Q138.0625,19.4063 137.6719,19.9375 Q137.2813,20.4688 137.0781,21.25 Q136.8906,22.0156 136.8906,22.9688 Q136.8906,23.9375 137.0625,24.7031 Q137.25,25.4531 137.6094,25.9688 Q137.9844,26.4844 138.5625,26.7656 Q139.1406,27.0313 139.9375,27.0313 Q140.6719,27.0313 141.4063,26.8594 Q142.1563,26.6875 143.0313,26.3906 L143.0313,28.5469 Q142.625,28.7031 142.2344,28.8281 Q141.8438,28.9375 141.4375,29.0156 Q141.0313,29.0938 140.6094,29.125 Q140.1875,29.1719 139.6875,29.1719 Q138.2813,29.1719 137.25,28.7188 Q136.2344,28.2656 135.5625,27.4531 Q134.8906,26.6406 134.5625,25.5 Q134.2344,24.3438 134.2344,22.9531 Q134.2344,21.5781 134.6094,20.4219 Q134.9844,19.2656 135.7031,18.4375 Q136.4219,17.6094 137.4844,17.1563 Q138.5469,16.6875 139.9375,16.6875 Q140.8438,16.6875 141.75,16.9219 Q142.6563,17.1406 143.4844,17.5469 L142.6563,19.6406 Q141.9688,19.3125 141.2813,19.0781 Q140.5938,18.8281 139.9375,18.8281 Z " fill="#000000"/><text fill="#000000" font-family="sans-serif" font-size="14" lengthAdjust="spacing" textLength="30" x="154" y="27.8467">View</text><line style="stroke:#181818;stroke-width:0.5;" x1="126" x2="186" y1="39" y2="39"/><line style="stroke:#181818;stroke-width:0.5;" x1="126" x2="186" y1="47" y2="47"/></g><!--reverse link View to PlayerCharacterView--><g id="link_View_PlayerCharacterView"><path codeLine="4" d="M156,75.09 C156,88.28 156,102.52 156,114.75 " fill="none" id="View-backto-PlayerCharacterView" style="stroke:#181818;stroke-width:1.0;"/><polygon fill="none" points="149,75.07,156,55.07,163,75.07,149,75.07" style="stroke:#181818;stroke-width:1.0;"/></g><!--SRC=[Iyv9B2vM2CX9h4mjSiv8B4fCBaaj2ijCBLUevb800cq56vlyijIYeioKL3ix1S-yp1ADWgBKujGye3gh01XBKy5AeIm_CuMhbWkisQP6LnURgG00]--></g></svg>