<?xml version="1.0" encoding="us-ascii" standalone="no"?><svg xmlns="http://www.w3.org/2000/svg" xmlns:xlink="http://www.w3.org/1999/xlink" contentStyleType="text/css" height="218px" preserveAspectRatio="none" style="width:319px;height:218px;background:#FFFFFF;" version="1.1" viewBox="0 0 319 218" width="319px" zoomAndPan="magnify"><defs/><g><!--class ShopUIVIew--><g id="elem_ShopUIVIew"><rect codeLine="1" fill="#F1F1F1" height="96.8906" id="ShopUIVIew" rx="2.5" ry="2.5" style="stroke:#181818;stroke-width:0.5;" width="305" x="7" y="115"/><ellipse cx="116.75" cy="131" fill="#ADD1B2" rx="11" ry="11" style="stroke:#181818;stroke-width:1.0;"/><path d="M116.6875,126.8281 Q115.9375,126.8281 115.375,127.125 Q114.8125,127.4063 114.4219,127.9375 Q114.0313,128.4688 113.8281,129.25 Q113.6406,130.0156 113.6406,130.9688 Q113.6406,131.9375 113.8125,132.7031 Q114,133.4531 114.3594,133.9688 Q114.7344,134.4844 115.3125,134.7656 Q115.8906,135.0313 116.6875,135.0313 Q117.4219,135.0313 118.1563,134.8594 Q118.9063,134.6875 119.7813,134.3906 L119.7813,136.5469 Q119.375,136.7031 118.9844,136.8281 Q118.5938,136.9375 118.1875,137.0156 Q117.7813,137.0938 117.3594,137.125 Q116.9375,137.1719 116.4375,137.1719 Q115.0313,137.1719 114,136.7188 Q112.9844,136.2656 112.3125,135.4531 Q111.6406,134.6406 111.3125,133.5 Q110.9844,132.3438 110.9844,130.9531 Q110.9844,129.5781 111.3594,128.4219 Q111.7344,127.2656 112.4531,126.4375 Q113.1719,125.6094 114.2344,125.1563 Q115.2969,124.6875 116.6875,124.6875 Q117.5938,124.6875 118.5,124.9219 Q119.4063,125.1406 120.2344,125.5469 L119.4063,127.6406 Q118.7188,127.3125 118.0313,127.0781 Q117.3438,126.8281 116.6875,126.8281 Z " fill="#000000"/><text fill="#000000" font-family="sans-serif" font-size="14" lengthAdjust="spacing" textLength="77" x="137.25" y="135.8467">ShopUIVIew</text><line style="stroke:#181818;stroke-width:0.5;" x1="8" x2="311" y1="147" y2="147"/><line style="stroke:#181818;stroke-width:0.5;" x1="8" x2="311" y1="155" y2="155"/><ellipse cx="18" cy="168.6484" fill="#84BE84" rx="3" ry="3" style="stroke:#038048;stroke-width:1.0;"/><text fill="#000000" font-family="sans-serif" font-size="14" lengthAdjust="spacing" textLength="272" x="27" y="171.9951">&#171;override&#187; Init(presenter:Presenter) : void</text><ellipse cx="18" cy="184.9453" fill="#84BE84" rx="3" ry="3" style="stroke:#038048;stroke-width:1.0;"/><text fill="#000000" font-family="sans-serif" font-size="14" lengthAdjust="spacing" textLength="279" x="27" y="188.292">InitializeShopItems(items:List&lt;Item&gt;) : void</text><ellipse cx="18" cy="201.2422" fill="#84BE84" rx="3" ry="3" style="stroke:#038048;stroke-width:1.0;"/><text fill="#000000" font-family="sans-serif" font-size="14" lengthAdjust="spacing" textLength="146" x="27" y="204.5889">UpdateShopList() : void</text></g><!--class View--><g id="elem_View"><rect fill="#F1F1F1" height="48" id="View" rx="2.5" ry="2.5" style="stroke:#181818;stroke-width:0.5;" width="62" x="128.5" y="7"/><ellipse cx="143.5" cy="23" fill="#ADD1B2" rx="11" ry="11" style="stroke:#181818;stroke-width:1.0;"/><path d="M143.4375,18.8281 Q142.6875,18.8281 142.125,19.125 Q141.5625,19.4063 141.1719,19.9375 Q140.7813,20.4688 140.5781,21.25 Q140.3906,22.0156 140.3906,22.9688 Q140.3906,23.9375 140.5625,24.7031 Q140.75,25.4531 141.1094,25.9688 Q141.4844,26.4844 142.0625,26.7656 Q142.6406,27.0313 143.4375,27.0313 Q144.1719,27.0313 144.9063,26.8594 Q145.6563,26.6875 146.5313,26.3906 L146.5313,28.5469 Q146.125,28.7031 145.7344,28.8281 Q145.3438,28.9375 144.9375,29.0156 Q144.5313,29.0938 144.1094,29.125 Q143.6875,29.1719 143.1875,29.1719 Q141.7813,29.1719 140.75,28.7188 Q139.7344,28.2656 139.0625,27.4531 Q138.3906,26.6406 138.0625,25.5 Q137.7344,24.3438 137.7344,22.9531 Q137.7344,21.5781 138.1094,20.4219 Q138.4844,19.2656 139.2031,18.4375 Q139.9219,17.6094 140.9844,17.1563 Q142.0469,16.6875 143.4375,16.6875 Q144.3438,16.6875 145.25,16.9219 Q146.1563,17.1406 146.9844,17.5469 L146.1563,19.6406 Q145.4688,19.3125 144.7813,19.0781 Q144.0938,18.8281 143.4375,18.8281 Z " fill="#000000"/><text fill="#000000" font-family="sans-serif" font-size="14" lengthAdjust="spacing" textLength="30" x="157.5" y="27.8467">View</text><line style="stroke:#181818;stroke-width:0.5;" x1="129.5" x2="189.5" y1="39" y2="39"/><line style="stroke:#181818;stroke-width:0.5;" x1="129.5" x2="189.5" y1="47" y2="47"/></g><!--reverse link View to ShopUIVIew--><g id="link_View_ShopUIVIew"><path codeLine="6" d="M159.5,75.37 C159.5,88.03 159.5,101.93 159.5,114.84 " fill="none" id="View-backto-ShopUIVIew" style="stroke:#181818;stroke-width:1.0;"/><polygon fill="none" points="152.5,75.03,159.5,55.03,166.5,75.03,152.5,75.03" style="stroke:#181818;stroke-width:1.0;"/></g><!--SRC=[Iyv9B2vM2Cx8BmZr3FDCBLUevb800cq56vlyijIYeioKL3ix1S-yp1ADWgBKujIyajGYgm0OIrF1Ig4iFpC5gWUaB3Cn9xCg5MIWPqbgRh569eYqyiaiBh412TYXQGajI4ai0Ii7AT60ozPoXMK2NMDJewkBv3e0]--></g></svg>