<?xml version="1.0" encoding="us-ascii" standalone="no"?><svg xmlns="http://www.w3.org/2000/svg" xmlns:xlink="http://www.w3.org/1999/xlink" contentStyleType="text/css" height="186px" preserveAspectRatio="none" style="width:239px;height:186px;background:#FFFFFF;" version="1.1" viewBox="0 0 239 186" width="239px" zoomAndPan="magnify"><defs/><g><!--class View--><g id="elem_View"><rect codeLine="1" fill="#F1F1F1" height="64.2969" id="View" rx="2.5" ry="2.5" style="stroke:#181818;stroke-width:0.5;" width="225" x="7" y="115"/><ellipse cx="100.25" cy="131" fill="#A9DCDF" rx="11" ry="11" style="stroke:#181818;stroke-width:1.0;"/><path d="M103.2031,136 L102.375,133.1094 L98.1875,133.1094 L97.3438,136 L94.75,136 L98.6875,123.8125 L101.8438,123.8125 L105.7969,136 L103.2031,136 Z M101.7656,130.9531 L101,128.2969 Q100.9375,128.1406 100.8438,127.8125 Q100.75,127.4688 100.625,127.0625 Q100.5156,126.6406 100.4063,126.2344 Q100.3125,125.8125 100.2813,125.5313 Q100.25,125.7031 100.1875,125.9531 Q100.1406,126.2031 100.0625,126.4844 Q100,126.7656 99.9219,127.0469 Q99.8438,127.3281 99.7813,127.5781 Q99.7188,127.8281 99.6563,128.0156 Q99.6094,128.2031 99.5781,128.2969 L98.8125,130.9531 L101.7656,130.9531 Z " fill="#000000"/><text fill="#000000" font-family="sans-serif" font-size="14" font-style="italic" lengthAdjust="spacing" textLength="30" x="120.75" y="135.8467">View</text><line style="stroke:#181818;stroke-width:0.5;" x1="8" x2="231" y1="147" y2="147"/><line style="stroke:#181818;stroke-width:0.5;" x1="8" x2="231" y1="155" y2="155"/><ellipse cx="18" cy="168.6484" fill="#84BE84" rx="3" ry="3" style="stroke:#038048;stroke-width:1.0;"/><text fill="#000000" font-family="sans-serif" font-size="14" font-style="italic" lengthAdjust="spacing" textLength="199" x="27" y="171.9951">Init(presenter:Presenter) : void</text></g><!--class MonoBehaviour--><g id="elem_MonoBehaviour"><rect fill="#F1F1F1" height="48" id="MonoBehaviour" rx="2.5" ry="2.5" style="stroke:#181818;stroke-width:0.5;" width="133" x="53" y="7"/><ellipse cx="68" cy="23" fill="#ADD1B2" rx="11" ry="11" style="stroke:#181818;stroke-width:1.0;"/><path d="M67.9375,18.8281 Q67.1875,18.8281 66.625,19.125 Q66.0625,19.4063 65.6719,19.9375 Q65.2813,20.4688 65.0781,21.25 Q64.8906,22.0156 64.8906,22.9688 Q64.8906,23.9375 65.0625,24.7031 Q65.25,25.4531 65.6094,25.9688 Q65.9844,26.4844 66.5625,26.7656 Q67.1406,27.0313 67.9375,27.0313 Q68.6719,27.0313 69.4063,26.8594 Q70.1563,26.6875 71.0313,26.3906 L71.0313,28.5469 Q70.625,28.7031 70.2344,28.8281 Q69.8438,28.9375 69.4375,29.0156 Q69.0313,29.0938 68.6094,29.125 Q68.1875,29.1719 67.6875,29.1719 Q66.2813,29.1719 65.25,28.7188 Q64.2344,28.2656 63.5625,27.4531 Q62.8906,26.6406 62.5625,25.5 Q62.2344,24.3438 62.2344,22.9531 Q62.2344,21.5781 62.6094,20.4219 Q62.9844,19.2656 63.7031,18.4375 Q64.4219,17.6094 65.4844,17.1563 Q66.5469,16.6875 67.9375,16.6875 Q68.8438,16.6875 69.75,16.9219 Q70.6563,17.1406 71.4844,17.5469 L70.6563,19.6406 Q69.9688,19.3125 69.2813,19.0781 Q68.5938,18.8281 67.9375,18.8281 Z " fill="#000000"/><text fill="#000000" font-family="sans-serif" font-size="14" lengthAdjust="spacing" textLength="101" x="82" y="27.8467">MonoBehaviour</text><line style="stroke:#181818;stroke-width:0.5;" x1="54" x2="185" y1="39" y2="39"/><line style="stroke:#181818;stroke-width:0.5;" x1="54" x2="185" y1="47" y2="47"/></g><!--reverse link MonoBehaviour to View--><g id="link_MonoBehaviour_View"><path codeLine="4" d="M119.5,75.09 C119.5,88.28 119.5,102.52 119.5,114.75 " fill="none" id="MonoBehaviour-backto-View" style="stroke:#181818;stroke-width:1.0;"/><polygon fill="none" points="112.5,75.07,119.5,55.07,126.5,75.07,112.5,75.07" style="stroke:#181818;stroke-width:1.0;"/></g><!--SRC=[IqmgBYbAJ2vHICv9B2vM2CjCBLUevb800cs5waIePAs2PrvcYKP1KMfnQbv9Qf5L08obgM2bK9QVcS9Lo-MRdvVlb9gHM9QPNrgaO5EZgmis3G00]--></g></svg>