<?xml version="1.0" encoding="us-ascii" standalone="no"?><svg xmlns="http://www.w3.org/2000/svg" xmlns:xlink="http://www.w3.org/1999/xlink" contentStyleType="text/css" height="85px" preserveAspectRatio="none" style="width:274px;height:85px;background:#FFFFFF;" version="1.1" viewBox="0 0 274 85" width="274px" zoomAndPan="magnify"><defs/><g><!--class Presenter--><g id="elem_Presenter"><rect codeLine="1" fill="#F1F1F1" height="64.2969" id="Presenter" rx="2.5" ry="2.5" style="stroke:#181818;stroke-width:0.5;" width="253" x="7" y="7"/><ellipse cx="97.75" cy="23" fill="#A9DCDF" rx="11" ry="11" style="stroke:#181818;stroke-width:1.0;"/><path d="M100.7031,28 L99.875,25.1094 L95.6875,25.1094 L94.8438,28 L92.25,28 L96.1875,15.8125 L99.3438,15.8125 L103.2969,28 L100.7031,28 Z M99.2656,22.9531 L98.5,20.2969 Q98.4375,20.1406 98.3438,19.8125 Q98.25,19.4688 98.125,19.0625 Q98.0156,18.6406 97.9063,18.2344 Q97.8125,17.8125 97.7813,17.5313 Q97.75,17.7031 97.6875,17.9531 Q97.6406,18.2031 97.5625,18.4844 Q97.5,18.7656 97.4219,19.0469 Q97.3438,19.3281 97.2813,19.5781 Q97.2188,19.8281 97.1563,20.0156 Q97.1094,20.2031 97.0781,20.2969 L96.3125,22.9531 L99.2656,22.9531 Z " fill="#000000"/><text fill="#000000" font-family="sans-serif" font-size="14" font-style="italic" lengthAdjust="spacing" textLength="63" x="118.25" y="27.8467">Presenter</text><line style="stroke:#181818;stroke-width:0.5;" x1="8" x2="259" y1="39" y2="39"/><line style="stroke:#181818;stroke-width:0.5;" x1="8" x2="259" y1="47" y2="47"/><ellipse cx="18" cy="60.6484" fill="#84BE84" rx="3" ry="3" style="stroke:#038048;stroke-width:1.0;"/><text fill="#000000" font-family="sans-serif" font-size="14" lengthAdjust="spacing" textLength="227" x="27" y="63.9951">Presenter(model:Model, view:View)</text></g><!--SRC=[IqmgBYbAJ2vHICv9B2vM22XABKxDAqajKgZcKW02ROI8Hcv-IcgEbI-8r54eoqmjjme34ffSjG00]--></g></svg>