<?xml version="1.0" encoding="us-ascii" standalone="no"?><svg xmlns="http://www.w3.org/2000/svg" xmlns:xlink="http://www.w3.org/1999/xlink" contentStyleType="text/css" height="218px" preserveAspectRatio="none" style="width:313px;height:218px;background:#FFFFFF;" version="1.1" viewBox="0 0 313 218" width="313px" zoomAndPan="magnify"><defs/><g><!--class ShopUIPresenter--><g id="elem_ShopUIPresenter"><rect codeLine="1" fill="#F1F1F1" height="96.8906" id="ShopUIPresenter" rx="2.5" ry="2.5" style="stroke:#181818;stroke-width:0.5;" width="299" x="7" y="115"/><ellipse cx="97.75" cy="131" fill="#ADD1B2" rx="11" ry="11" style="stroke:#181818;stroke-width:1.0;"/><path d="M97.6875,126.8281 Q96.9375,126.8281 96.375,127.125 Q95.8125,127.4063 95.4219,127.9375 Q95.0313,128.4688 94.8281,129.25 Q94.6406,130.0156 94.6406,130.9688 Q94.6406,131.9375 94.8125,132.7031 Q95,133.4531 95.3594,133.9688 Q95.7344,134.4844 96.3125,134.7656 Q96.8906,135.0313 97.6875,135.0313 Q98.4219,135.0313 99.1563,134.8594 Q99.9063,134.6875 100.7813,134.3906 L100.7813,136.5469 Q100.375,136.7031 99.9844,136.8281 Q99.5938,136.9375 99.1875,137.0156 Q98.7813,137.0938 98.3594,137.125 Q97.9375,137.1719 97.4375,137.1719 Q96.0313,137.1719 95,136.7188 Q93.9844,136.2656 93.3125,135.4531 Q92.6406,134.6406 92.3125,133.5 Q91.9844,132.3438 91.9844,130.9531 Q91.9844,129.5781 92.3594,128.4219 Q92.7344,127.2656 93.4531,126.4375 Q94.1719,125.6094 95.2344,125.1563 Q96.2969,124.6875 97.6875,124.6875 Q98.5938,124.6875 99.5,124.9219 Q100.4063,125.1406 101.2344,125.5469 L100.4063,127.6406 Q99.7188,127.3125 99.0313,127.0781 Q98.3438,126.8281 97.6875,126.8281 Z " fill="#000000"/><text fill="#000000" font-family="sans-serif" font-size="14" lengthAdjust="spacing" textLength="109" x="118.25" y="135.8467">ShopUIPresenter</text><line style="stroke:#181818;stroke-width:0.5;" x1="8" x2="305" y1="147" y2="147"/><line style="stroke:#181818;stroke-width:0.5;" x1="8" x2="305" y1="155" y2="155"/><ellipse cx="18" cy="168.6484" fill="#84BE84" rx="3" ry="3" style="stroke:#038048;stroke-width:1.0;"/><text fill="#000000" font-family="sans-serif" font-size="14" lengthAdjust="spacing" textLength="273" x="27" y="171.9951">ShopUIPresenter(model:Model, view:View)</text><ellipse cx="18" cy="184.9453" fill="#84BE84" rx="3" ry="3" style="stroke:#038048;stroke-width:1.0;"/><text fill="#000000" font-family="sans-serif" font-size="14" lengthAdjust="spacing" textLength="181" x="27" y="188.292">SelectItem(item:Item) : void</text><ellipse cx="18" cy="201.2422" fill="#84BE84" rx="3" ry="3" style="stroke:#038048;stroke-width:1.0;"/><text fill="#000000" font-family="sans-serif" font-size="14" lengthAdjust="spacing" textLength="145" x="27" y="204.5889">UpdateItemsUI() : void</text></g><!--class Presenter--><g id="elem_Presenter"><rect fill="#F1F1F1" height="48" id="Presenter" rx="2.5" ry="2.5" style="stroke:#181818;stroke-width:0.5;" width="95" x="109" y="7"/><ellipse cx="124" cy="23" fill="#ADD1B2" rx="11" ry="11" style="stroke:#181818;stroke-width:1.0;"/><path d="M123.9375,18.8281 Q123.1875,18.8281 122.625,19.125 Q122.0625,19.4063 121.6719,19.9375 Q121.2813,20.4688 121.0781,21.25 Q120.8906,22.0156 120.8906,22.9688 Q120.8906,23.9375 121.0625,24.7031 Q121.25,25.4531 121.6094,25.9688 Q121.9844,26.4844 122.5625,26.7656 Q123.1406,27.0313 123.9375,27.0313 Q124.6719,27.0313 125.4063,26.8594 Q126.1563,26.6875 127.0313,26.3906 L127.0313,28.5469 Q126.625,28.7031 126.2344,28.8281 Q125.8438,28.9375 125.4375,29.0156 Q125.0313,29.0938 124.6094,29.125 Q124.1875,29.1719 123.6875,29.1719 Q122.2813,29.1719 121.25,28.7188 Q120.2344,28.2656 119.5625,27.4531 Q118.8906,26.6406 118.5625,25.5 Q118.2344,24.3438 118.2344,22.9531 Q118.2344,21.5781 118.6094,20.4219 Q118.9844,19.2656 119.7031,18.4375 Q120.4219,17.6094 121.4844,17.1563 Q122.5469,16.6875 123.9375,16.6875 Q124.8438,16.6875 125.75,16.9219 Q126.6563,17.1406 127.4844,17.5469 L126.6563,19.6406 Q125.9688,19.3125 125.2813,19.0781 Q124.5938,18.8281 123.9375,18.8281 Z " fill="#000000"/><text fill="#000000" font-family="sans-serif" font-size="14" lengthAdjust="spacing" textLength="63" x="138" y="27.8467">Presenter</text><line style="stroke:#181818;stroke-width:0.5;" x1="110" x2="203" y1="39" y2="39"/><line style="stroke:#181818;stroke-width:0.5;" x1="110" x2="203" y1="47" y2="47"/></g><!--reverse link Presenter to ShopUIPresenter--><g id="link_Presenter_ShopUIPresenter"><path codeLine="6" d="M156.5,75.37 C156.5,88.03 156.5,101.93 156.5,114.84 " fill="none" id="Presenter-backto-ShopUIPresenter" style="stroke:#181818;stroke-width:1.0;"/><polygon fill="none" points="149.5,75.03,156.5,55.03,163.5,75.03,149.5,75.03" style="stroke:#181818;stroke-width:1.0;"/></g><!--SRC=[Iyv9B2vM2Cx8BmZr32XABKxDAqajKgZcKW02RNHnZTpybDGSAryGgQDGbfbQRXK693HXgbDpKfDBF4jISpKoWOGLYAMfOALGbf-P0bKIMf2IM98AaYWEzTI0IzPo8UosgT7LHRSO0000]--></g></svg>